####
#
# OBJ File Generated by Meshlab
#
####
# Object gripper_bar.obj
#
# Vertices: 94
# Faces: 184
#
####
vn -0.999513 -0.030061 -0.008409
v -0.051744 -0.066000 -0.000058
vn 0.584183 -0.612081 -0.532999
v 0.049998 -0.091000 -0.004998
vn 0.255384 0.639638 0.725012
v 0.012250 -0.063000 0.035250
vn 0.277261 0.698311 -0.659916
v 0.048037 -0.063000 -0.005860
vn -0.640033 -0.651047 0.408038
v -0.050002 -0.091000 0.005002
vn -0.088202 -0.107817 -0.990250
v -0.001496 -0.066000 -0.013920
vn 0.522607 0.702855 0.482573
v 0.050018 -0.063000 0.004410
vn -0.513670 0.703001 -0.491866
v -0.049938 -0.063000 -0.004494
vn 0.639997 -0.651076 0.408049
v 0.049998 -0.091000 0.005002
vn -0.255371 0.639642 0.725013
v -0.012250 -0.063000 0.035250
vn 0.162975 -0.019581 -0.986436
v 0.002975 -0.066000 -0.013680
vn -0.584217 -0.612042 -0.533006
v -0.050002 -0.091000 -0.004998
vn 0.700766 0.695168 -0.160214
v 0.051581 -0.063000 -0.001447
vn 0.000000 0.695258 -0.718761
v 0.000000 -0.063000 -0.014000
vn 0.776125 0.004546 0.630563
v 0.049998 -0.081000 0.005002
vn -0.470834 0.705399 0.529837
v -0.049515 -0.063000 0.004898
vn 0.248395 -0.349394 0.903451
v 0.012250 -0.066000 0.035250
vn 0.178203 -0.011385 -0.983928
v 0.047311 -0.066000 -0.006063
vn 0.000000 -0.156497 -0.987678
v 0.000000 -0.066000 -0.014000
vn -0.163893 0.697781 -0.697310
v -0.047558 -0.063000 -0.006015
vn -0.679435 0.695167 -0.234757
v -0.051388 -0.063000 -0.002121
vn 0.565498 0.701434 -0.433823
v 0.050395 -0.063000 -0.003963
vn 0.999511 -0.030131 -0.008409
v 0.051744 -0.066000 -0.000058
vn 0.116590 0.706036 -0.698513
v 0.002975 -0.063000 -0.013680
vn 0.470866 0.705355 0.529868
v 0.049515 -0.063000 0.004898
vn -0.655485 0.695457 0.294413
v -0.051173 -0.063000 0.002664
vn -0.776478 0.004574 0.630128
v -0.050002 -0.081000 0.005002
vn -0.248376 -0.349397 0.903455
v -0.012250 -0.066000 0.035250
vn 0.308422 -0.004565 -0.951239
v 0.047801 -0.066000 -0.005948
vn 0.088202 -0.107822 -0.990250
v 0.001496 -0.066000 -0.013920
vn -0.076819 0.695258 -0.714644
v -0.001496 -0.063000 -0.013920
vn -0.395762 0.701148 -0.593097
v -0.048867 -0.063000 -0.005394
vn -0.178202 -0.011371 -0.983928
v -0.047311 -0.066000 -0.006063
vn -0.975306 -0.015344 -0.220323
v -0.051581 -0.066000 -0.001447
vn -0.612014 0.698363 -0.371117
v -0.050792 -0.063000 -0.003386
vn 0.650025 0.695774 -0.305557
v 0.051124 -0.063000 -0.002770
vn 0.687763 0.000631 -0.725935
v 0.049998 -0.081000 -0.004998
vn 0.975305 -0.015412 -0.220322
v 0.051581 -0.066000 -0.001447
vn 0.951512 -0.008907 0.307483
v 0.051425 -0.066000 0.002011
vn 0.126624 0.705007 -0.697805
v 0.047311 -0.063000 -0.006063
vn -0.979081 -0.016732 0.202780
v -0.051606 -0.066000 0.001334
vn -0.715331 0.695166 0.071028
v -0.051713 -0.063000 0.000642
vn -0.573509 0.701121 0.423694
v -0.050465 -0.063000 0.003871
vn 0.375107 -0.001287 -0.926981
v 0.048037 -0.066000 -0.005860
vn 0.227442 -0.008780 -0.973752
v 0.047558 -0.066000 -0.006015
vn 0.076819 0.695258 -0.714644
v 0.001496 -0.063000 -0.013920
vn -0.333579 0.699334 -0.632184
v -0.048265 -0.063000 -0.005752
vn -0.687970 0.000637 -0.725738
v -0.050002 -0.081000 -0.004998
vn -0.162975 -0.019567 -0.986436
v -0.002975 -0.066000 -0.013680
vn -0.308420 -0.004542 -0.951239
v -0.047801 -0.066000 -0.005948
vn -0.945848 -0.007688 -0.324518
v -0.051388 -0.066000 -0.002121
vn -0.993230 -0.024330 -0.113588
v -0.051700 -0.066000 -0.000757
vn 0.612066 0.698303 -0.371146
v 0.050792 -0.063000 -0.003386
vn 0.457037 0.702841 -0.545097
v 0.049427 -0.063000 -0.004973
vn 0.993228 -0.024399 -0.113588
v 0.051700 -0.066000 -0.000757
vn 0.945848 -0.007754 -0.324517
v 0.051388 -0.066000 -0.002121
vn 0.914878 -0.002700 0.403722
v 0.051173 -0.066000 0.002664
vn 0.995066 -0.026003 0.095744
v 0.051713 -0.066000 0.000642
vn 0.683523 0.695167 0.222574
v 0.051425 -0.063000 0.002011
vn -0.995068 -0.025934 0.095745
v -0.051713 -0.066000 0.000642
vn -0.951512 -0.008841 0.307484
v -0.051425 -0.066000 0.002011
vn -0.522569 0.702904 0.482543
v -0.050018 -0.063000 0.004410
vn -0.619176 0.697719 0.360290
v -0.050851 -0.063000 0.003287
vn 0.163893 0.697781 -0.697310
v 0.047558 -0.063000 -0.006015
vn -0.457005 0.702887 -0.545065
v -0.049427 -0.063000 -0.004973
vn -0.374792 -0.001274 -0.927108
v -0.048037 -0.066000 -0.005860
vn -0.565453 0.701490 -0.433791
v -0.050395 -0.063000 -0.003963
vn -0.910908 -0.002119 -0.412604
v -0.051124 -0.066000 -0.002770
vn -0.126624 0.705007 -0.697805
v -0.047311 -0.063000 -0.006063
vn -0.227441 -0.008762 -0.973753
v -0.047558 -0.066000 -0.006015
vn -0.718818 0.695169 -0.006427
v -0.051744 -0.063000 -0.000058
vn -0.700766 0.695168 -0.160214
v -0.051581 -0.063000 -0.001447
vn 0.395787 0.701108 -0.593127
v 0.048867 -0.063000 -0.005394
vn 0.513709 0.702950 -0.491898
v 0.049938 -0.063000 -0.004494
vn 0.718818 0.695169 -0.006427
v 0.051744 -0.063000 -0.000058
vn 0.679435 0.695167 -0.234757
v 0.051388 -0.063000 -0.002121
vn 0.910655 -0.002154 -0.413162
v 0.051124 -0.066000 -0.002770
vn 0.619228 0.697660 0.360317
v 0.050851 -0.063000 0.003287
vn 0.979080 -0.016800 0.202779
v 0.051606 -0.066000 0.001334
vn 0.655493 0.695430 0.294459
v 0.051173 -0.063000 0.002664
vn -0.703518 0.695168 0.147661
v -0.051606 -0.063000 0.001334
vn -0.915108 -0.002665 0.403200
v -0.051173 -0.066000 0.002664
vn 0.221793 0.697782 -0.681108
v 0.047801 -0.063000 -0.005948
vn -0.277237 0.698325 -0.659910
v -0.048037 -0.063000 -0.005860
vn -0.650017 0.695803 -0.305510
v -0.051124 -0.063000 -0.002770
vn -0.116590 0.706036 -0.698513
v -0.002975 -0.063000 -0.013680
vn -0.713946 0.695167 -0.083807
v -0.051700 -0.063000 -0.000757
vn 0.333598 0.699300 -0.632212
v 0.048265 -0.063000 -0.005752
vn 0.713947 0.695167 -0.083807
v 0.051700 -0.063000 -0.000757
vn 0.715331 0.695166 0.071028
v 0.051713 -0.063000 0.000642
vn 0.573555 0.701066 0.423724
v 0.050465 -0.063000 0.003871
vn -0.683523 0.695167 0.222574
v -0.051425 -0.063000 0.002011
vn -0.221793 0.697782 -0.681108
v -0.047801 -0.063000 -0.005948
vn 0.703551 0.695133 0.147668
v 0.051606 -0.063000 0.001334
# 94 vertices, 0 vertices normals

f 12//12 9//9 5//5
f 12//12 2//2 9//9
f 12//12 5//5 1//1
f 17//17 15//15 3//3
f 17//17 9//9 15//15
f 18//18 2//2 11//11
f 19//19 12//12 6//6
f 19//19 2//2 12//12
f 23//23 9//9 2//2
f 25//25 15//15 7//7
f 25//25 3//3 15//15
f 27//27 10//10 16//16
f 28//28 17//17 3//3
f 28//28 3//3 10//10
f 28//28 27//27 5//5
f 28//28 10//10 27//27
f 28//28 5//5 9//9
f 28//28 9//9 17//17
f 30//30 11//11 2//2
f 30//30 2//2 19//19
f 31//31 19//19 6//6
f 31//31 14//14 19//19
f 40//40 18//18 11//11
f 40//40 11//11 24//24
f 44//44 2//2 29//29
f 44//44 37//37 2//2
f 44//44 4//4 37//37
f 45//45 29//29 2//2
f 45//45 2//2 18//18
f 46//46 30//30 19//19
f 46//46 19//19 14//14
f 46//46 24//24 11//11
f 46//46 11//11 30//30
f 48//48 32//32 47//47
f 49//49 6//6 12//12
f 49//49 12//12 33//33
f 51//51 12//12 34//34
f 52//52 34//34 12//12
f 52//52 12//12 1//1
f 53//53 37//37 22//22
f 53//53 36//36 37//37
f 55//55 23//23 2//2
f 55//55 2//2 38//38
f 56//56 38//38 2//2
f 57//57 9//9 39//39
f 58//58 9//9 23//23
f 60//60 1//1 5//5
f 60//60 5//5 41//41
f 61//61 41//41 5//5
f 62//62 43//43 27//27
f 62//62 27//27 16//16
f 63//63 26//26 27//27
f 63//63 27//27 43//43
f 64//64 45//45 18//18
f 64//64 18//18 40//40
f 65//65 48//48 8//8
f 65//65 32//32 48//48
f 66//66 50//50 12//12
f 67//67 48//48 35//35
f 67//67 8//8 48//48
f 68//68 12//12 51//51
f 70//70 33//33 12//12
f 70//70 12//12 50//50
f 70//70 69//69 33//33
f 70//70 20//20 69//69
f 71//71 60//60 42//42
f 71//71 1//1 60//60
f 72//72 34//34 52//52
f 72//72 51//51 34//34
f 72//72 21//21 51//51
f 73//73 54//54 37//37
f 74//74 22//22 37//37
f 74//74 37//37 54//54
f 76//76 13//13 38//38
f 76//76 38//38 56//56
f 77//77 56//56 2//2
f 77//77 37//37 36//36
f 77//77 2//2 37//37
f 77//77 76//76 56//56
f 77//77 36//36 76//76
f 79//79 39//39 9//9
f 79//79 9//9 58//58
f 80//80 9//9 57//57
f 80//80 57//57 39//39
f 80//80 39//39 59//59
f 80//80 78//78 15//15
f 80//80 15//15 9//9
f 81//81 60//60 41//41
f 81//81 42//42 60//60
f 82//82 61//61 5//5
f 82//82 26//26 61//61
f 82//82 27//27 26//26
f 82//82 5//5 27//27
f 83//83 44//44 29//29
f 83//83 4//4 44//44
f 83//83 29//29 45//45
f 83//83 45//45 64//64
f 84//84 48//48 47//47
f 84//84 66//66 12//12
f 84//84 12//12 48//48
f 85//85 35//35 48//48
f 85//85 48//48 12//12
f 85//85 12//12 68//68
f 85//85 68//68 51//51
f 85//85 51//51 21//21
f 86//86 31//31 6//6
f 86//86 6//6 49//49
f 86//86 49//49 33//33
f 86//86 33//33 69//69
f 87//87 52//52 1//1
f 87//87 1//1 71//71
f 87//87 72//72 52//52
f 88//88 73//73 37//37
f 88//88 37//37 4//4
f 89//89 75//75 23//23
f 89//89 23//23 55//55
f 89//89 55//55 38//38
f 89//89 38//38 13//13
f 90//90 23//23 75//75
f 90//90 58//58 23//23
f 91//91 7//7 15//15
f 91//91 15//15 78//78
f 92//92 61//61 26//26
f 92//92 81//81 41//41
f 92//92 41//41 61//61
f 93//93 70//70 50//50
f 93//93 20//20 70//70
f 93//93 50//50 66//66
f 93//93 66//66 84//84
f 94//94 79//79 58//58
f 94//94 58//58 90//90
f 94//94 59//59 39//39
f 94//94 80//80 59//59
f 94//94 39//39 79//79
f 94//94 90//90 75//75
f 94//94 78//78 80//80
f 94//94 75//75 89//89
f 94//94 91//91 78//78
f 94//94 89//89 13//13
f 94//94 7//7 91//91
f 94//94 13//13 76//76
f 94//94 25//25 7//7
f 94//94 76//76 36//36
f 94//94 3//3 25//25
f 94//94 36//36 53//53
f 94//94 10//10 3//3
f 94//94 53//53 22//22
f 94//94 16//16 10//10
f 94//94 22//22 74//74
f 94//94 62//62 16//16
f 94//94 74//74 54//54
f 94//94 43//43 62//62
f 94//94 54//54 73//73
f 94//94 63//63 43//43
f 94//94 73//73 88//88
f 94//94 26//26 63//63
f 94//94 88//88 4//4
f 94//94 92//92 26//26
f 94//94 4//4 83//83
f 94//94 81//81 92//92
f 94//94 83//83 64//64
f 94//94 42//42 81//81
f 94//94 64//64 40//40
f 94//94 71//71 42//42
f 94//94 40//40 24//24
f 94//94 87//87 71//71
f 94//94 24//24 46//46
f 94//94 72//72 87//87
f 94//94 46//46 14//14
f 94//94 21//21 72//72
f 94//94 14//14 31//31
f 94//94 85//85 21//21
f 94//94 31//31 86//86
f 94//94 35//35 85//85
f 94//94 86//86 69//69
f 94//94 67//67 35//35
f 94//94 69//69 20//20
f 94//94 20//20 93//93
f 94//94 8//8 67//67
f 94//94 65//65 8//8
f 94//94 32//32 65//65
f 94//94 47//47 32//32
f 94//94 93//93 84//84
f 94//94 84//84 47//47
# 184 faces, 0 coords texture

# End of File
