####
#
# OBJ File Generated by Meshlab
#
####
# Object finger4.obj
#
# Vertices: 40
# Faces: 76
#
####
vn 0.000000 0.000000 -0.000000
v -0.004200 0.011250 -0.006300
vn 1.570796 -1.570797 1.570796
v 0.009800 -0.013450 0.015700
vn -1.570796 1.570796 1.570796
v -0.009800 0.013450 0.015700
vn -2.951048 -2.827434 -0.958853
v -0.009653 -0.013450 -0.004227
vn 1.570796 1.570797 1.570796
v 0.009800 0.013450 0.015700
vn -2.951048 2.827434 -0.958853
v -0.009653 0.013450 -0.004227
vn -1.570796 -1.570796 1.570796
v -0.009800 -0.013450 0.015700
vn 2.214593 -2.984514 -2.214593
v 0.005699 -0.013450 -0.002199
vn 2.214594 2.984514 -2.214593
v 0.005699 0.013450 -0.002199
vn 0.489939 -2.984513 -3.093353
v -0.002010 -0.013450 -0.006128
vn -3.122254 2.984513 -0.245727
v -0.009800 0.013450 -0.003300
vn -3.122254 -2.984513 -0.245727
v -0.009800 -0.013450 -0.003300
vn -0.245727 2.984513 -3.122254
v -0.006800 0.013450 -0.006300
vn -0.958854 -2.827433 -2.951047
v -0.007727 -0.013450 -0.006153
vn -1.823847 2.827435 -2.510311
v -0.008563 0.013450 -0.005727
vn 3.093349 2.984514 -0.489938
v 0.009628 0.013450 0.005510
vn 3.093349 -2.984514 -0.489938
v 0.009628 -0.013450 0.005510
vn -2.510310 -2.827432 -1.823848
v -0.009227 -0.013450 -0.005063
vn -0.245727 -2.984513 -3.122254
v -0.006800 -0.013450 -0.006300
vn 0.000000 0.000000 -0.000000
v 0.004029 0.011250 -0.003626
vn 1.421858 -2.984513 -2.790554
v 0.002156 -0.013450 -0.004774
vn 0.489938 2.984513 -3.093349
v -0.002010 0.013450 -0.006128
vn -0.958854 2.827433 -2.951048
v -0.007727 0.013450 -0.006153
vn -2.510311 2.827432 -1.823848
v -0.009227 0.013450 -0.005063
vn -1.823848 -2.827435 -2.510312
v -0.008563 -0.013450 -0.005727
vn 0.123243 -3.063053 -3.136750
v -0.004200 -0.013450 -0.006300
vn 1.421856 2.984513 -2.790551
v 0.002156 0.013450 -0.004774
vn 1.840889 -2.984513 -2.533767
v 0.004029 -0.013450 -0.003626
vn 0.123243 3.063053 -3.136750
v -0.004200 0.013450 -0.006300
vn 3.136750 3.063051 -0.123244
v 0.009800 0.013450 0.007700
vn 3.136750 -3.063051 -0.123244
v 0.009800 -0.013450 0.007700
vn 2.790551 -2.984513 -1.421857
v 0.008274 -0.013450 0.001344
vn 2.790550 2.984513 -1.421857
v 0.008274 0.013450 0.001344
vn 1.840889 2.984513 -2.533767
v 0.004029 0.013450 -0.003626
vn 0.967813 -2.984513 -2.978622
v 0.000126 -0.013450 -0.005615
vn 0.967813 2.984513 -2.978622
v 0.000126 0.013450 -0.005615
vn 2.533767 -2.984514 -1.840890
v 0.007126 -0.013450 -0.000529
vn 2.533767 2.984514 -1.840889
v 0.007126 0.013450 -0.000529
vn 2.978622 2.984512 -0.967813
v 0.009115 0.013450 0.003374
vn 2.978622 -2.984512 -0.967813
v 0.009115 -0.013450 0.003374
# 40 vertices, 0 vertices normals

f 7//7 5//5 3//3
f 7//7 2//2 5//5
f 12//12 11//11 6//6
f 12//12 6//6 4//4
f 12//12 7//7 3//3
f 12//12 3//3 11//11
f 22//22 10//10 1//1
f 23//23 13//13 19//19
f 23//23 19//19 14//14
f 24//24 18//18 4//4
f 24//24 4//4 6//6
f 25//25 15//15 23//23
f 25//25 24//24 15//15
f 25//25 18//18 24//24
f 25//25 23//23 14//14
f 27//27 20//20 21//21
f 29//29 1//1 10//10
f 29//29 22//22 1//1
f 29//29 26//26 19//19
f 29//29 19//19 13//13
f 29//29 10//10 26//26
f 31//31 30//30 5//5
f 31//31 5//5 2//2
f 31//31 17//17 16//16
f 31//31 16//16 30//30
f 34//34 20//20 27//27
f 34//34 21//21 20//20
f 34//34 9//9 8//8
f 34//34 28//28 21//21
f 34//34 8//8 28//28
f 36//36 35//35 10//10
f 36//36 10//10 22//22
f 36//36 27//27 21//21
f 36//36 21//21 35//35
f 38//38 37//37 8//8
f 38//38 8//8 9//9
f 38//38 33//33 32//32
f 38//38 32//32 37//37
f 39//39 33//33 38//38
f 39//39 30//30 16//16
f 39//39 5//5 30//30
f 39//39 3//3 5//5
f 39//39 11//11 3//3
f 39//39 6//6 11//11
f 39//39 24//24 6//6
f 39//39 15//15 24//24
f 39//39 23//23 15//15
f 39//39 13//13 23//23
f 39//39 29//29 13//13
f 39//39 22//22 29//29
f 39//39 36//36 22//22
f 39//39 27//27 36//36
f 39//39 34//34 27//27
f 39//39 38//38 9//9
f 39//39 9//9 34//34
f 40//40 37//37 32//32
f 40//40 39//39 16//16
f 40//40 17//17 31//31
f 40//40 16//16 17//17
f 40//40 32//32 33//33
f 40//40 33//33 39//39
f 40//40 31//31 2//2
f 40//40 2//2 7//7
f 40//40 7//7 12//12
f 40//40 12//12 4//4
f 40//40 4//4 18//18
f 40//40 18//18 25//25
f 40//40 25//25 14//14
f 40//40 14//14 19//19
f 40//40 19//19 26//26
f 40//40 26//26 10//10
f 40//40 10//10 35//35
f 40//40 35//35 21//21
f 40//40 21//21 28//28
f 40//40 28//28 8//8
f 40//40 8//8 37//37
# 76 faces, 0 coords texture

# End of File
