####
#
# OBJ File Generated by Meshlab
#
####
# Object finger1.obj
#
# Vertices: 84
# Faces: 164
#
####
vn 3.111739 -2.946319 0.304790
v 0.009800 -0.013450 0.004300
vn -0.094841 3.081178 3.138726
v -0.006800 0.013450 0.022000
vn 1.570796 1.570796 -1.570796
v 0.009800 0.013450 -0.000000
vn -1.570796 -1.570796 -1.570796
v -0.009800 -0.013450 -0.000000
vn 2.518878 3.083416 1.875236
v 0.006030 0.013450 0.016360
vn 1.570796 -1.570796 -1.570796
v 0.009800 -0.013450 0.000000
vn -1.570796 1.570796 -1.570796
v -0.009800 0.013450 0.000000
vn -0.750464 -3.020757 3.044737
v -0.007518 -0.013450 0.021913
vn 3.055617 3.083416 0.724194
v 0.008423 0.013450 0.011229
vn -3.112995 3.020760 0.377986
v -0.009778 0.013450 0.019362
vn 1.243796 -3.083412 2.883440
v 0.000345 -0.013450 0.020855
vn 2.806242 -3.083415 1.409347
v 0.007311 -0.013450 0.014283
vn 3.111739 2.946319 0.304790
v 0.009800 0.013450 0.004300
vn -2.079464 3.020765 2.347223
v -0.008789 0.013450 0.021246
vn -3.138727 3.081178 0.094841
v -0.009800 0.013450 0.019000
vn -3.112997 -3.020760 0.377986
v -0.009778 -0.013450 0.019362
vn 1.243797 3.083412 2.883443
v 0.000345 0.013450 0.020855
vn 0.364564 -3.083416 3.119032
v -0.003575 -0.013450 0.021905
vn 2.806242 3.083415 1.409347
v 0.007311 0.013450 0.014283
vn 3.055617 -3.083416 0.724195
v 0.008423 -0.013450 0.011229
vn 2.154979 -3.083416 2.284146
v 0.004407 -0.013450 0.018183
vn -1.111995 3.020767 2.932080
v -0.007864 0.013450 0.021805
vn -3.138726 -3.081178 0.094841
v -0.009800 -0.013450 0.019000
vn -2.776671 3.020765 1.457307
v -0.009456 0.013450 0.020394
vn -2.347224 -3.020764 2.079463
v -0.009046 -0.013450 0.020989
vn 0.045685 -3.112504 3.140930
v -0.005200 -0.013450 0.022000
vn 0.545301 3.083415 3.092556
v -0.002769 0.013450 0.021787
vn 2.623653 3.083414 1.725605
v 0.006497 0.013450 0.015693
vn 2.950884 3.083415 1.074034
v 0.007956 0.013450 0.012788
vn 3.079288 3.133245 0.622432
v 0.008587 0.013450 0.010431
vn 2.518878 -3.083416 1.875236
v 0.006030 -0.013450 0.016360
vn 1.725602 3.083415 2.623652
v 0.002493 0.013450 0.019697
vn -1.781373 -3.020758 2.580761
v -0.008504 -0.013450 0.021469
vn -0.750465 3.020757 3.044739
v -0.007518 0.013450 0.021913
vn -2.932084 3.020761 1.111993
v -0.009605 0.013450 0.020064
vn -2.580761 3.020758 1.781372
v -0.009269 0.013450 0.020704
vn -0.094841 -3.081178 3.138726
v -0.006800 -0.013450 0.022000
vn 0.724194 -3.083415 3.055615
v -0.001971 -0.013450 0.021623
vn 0.182591 3.083413 3.134954
v -0.004386 0.013450 0.021976
vn 2.719548 3.083416 1.570131
v 0.006924 0.013450 0.015000
vn 3.008337 3.083415 0.900637
v 0.008212 0.013450 0.012015
vn 2.883441 3.083415 1.243794
v 0.007655 0.013450 0.013545
vn 2.950881 -3.083415 1.074033
v 0.007956 -0.013450 0.012788
vn 3.079289 -3.133245 0.622433
v 0.008587 -0.013450 0.010431
vn 2.405581 3.083414 2.018520
v 0.005525 0.013450 0.016999
vn 2.623650 -3.083414 1.725603
v 0.006497 -0.013450 0.015693
vn 1.570130 3.083416 2.719549
v 0.001800 0.013450 0.020124
vn 1.725602 -3.083415 2.623653
v 0.002493 -0.013450 0.019697
vn -1.781376 3.020758 2.580764
v -0.008504 0.013450 0.021469
vn -1.457303 -3.020762 2.776670
v -0.008194 -0.013450 0.021656
vn -2.079465 -3.020765 2.347225
v -0.008789 -0.013450 0.021246
vn -3.044739 3.020764 0.750461
v -0.009713 0.013450 0.019718
vn -2.776667 -3.020765 1.457305
v -0.009456 -0.013450 0.020394
vn -2.347225 3.020764 2.079465
v -0.009046 0.013450 0.020989
vn -0.377982 3.020763 3.112998
v -0.007162 0.013450 0.021978
vn 0.545301 -3.083415 3.092556
v -0.002769 -0.013450 0.021787
vn 0.900637 3.083414 3.008335
v -0.001185 0.013450 0.021412
vn 0.182591 -3.083413 3.134951
v -0.004386 -0.013450 0.021976
vn 0.364563 3.083416 3.119028
v -0.003575 0.013450 0.021905
vn 0.045685 3.112504 3.140927
v -0.005200 0.013450 0.022000
vn 2.883444 -3.083415 1.243796
v 0.007655 -0.013450 0.013545
vn 3.008337 -3.083415 0.900637
v 0.008212 -0.013450 0.012015
vn 2.405584 -3.083414 2.018523
v 0.005525 -0.013450 0.016999
vn 2.154979 3.083416 2.284145
v 0.004407 0.013450 0.018183
vn 2.719548 -3.083416 1.570131
v 0.006924 -0.013450 0.015000
vn 1.409349 3.083417 2.806239
v 0.001083 0.013450 0.020511
vn 1.570130 -3.083416 2.719549
v 0.001800 -0.013450 0.020124
vn -1.111997 -3.020767 2.932086
v -0.007864 -0.013450 0.021805
vn -1.457304 3.020762 2.776672
v -0.008194 0.013450 0.021656
vn -3.044741 -3.020764 0.750462
v -0.009713 -0.013450 0.019718
vn -2.580765 -3.020758 1.781374
v -0.009269 -0.013450 0.020704
vn -0.377982 -3.020763 3.112995
v -0.007162 -0.013450 0.021978
vn 0.900638 -3.083414 3.008339
v -0.001185 -0.013450 0.021412
vn 0.724195 3.083415 3.055619
v -0.001971 0.013450 0.021623
vn 2.284145 3.083412 2.154980
v 0.004983 0.013450 0.017607
vn 1.875237 3.083416 2.518879
v 0.003160 0.013450 0.019230
vn 1.409351 -3.083417 2.806243
v 0.001083 -0.013450 0.020511
vn -2.932084 -3.020761 1.111993
v -0.009605 -0.013450 0.020064
vn 1.074032 3.083416 2.950883
v -0.000412 0.013450 0.021156
vn 2.284145 -3.083412 2.154979
v 0.004983 -0.013450 0.017607
vn 1.875235 -3.083416 2.518876
v 0.003160 -0.013450 0.019230
vn 1.074032 -3.083416 2.950883
v -0.000412 -0.013450 0.021156
vn 2.018523 3.083379 2.405582
v 0.003799 0.013450 0.018725
vn 2.018522 -3.083379 2.405582
v 0.003799 -0.013450 0.018725
# 84 vertices, 0 vertices normals

f 6//6 4//4 3//3
f 7//7 3//3 4//4
f 13//13 6//6 3//3
f 13//13 1//1 6//6
f 23//23 16//16 10//10
f 23//23 10//10 15//15
f 23//23 15//15 7//7
f 23//23 7//7 4//4
f 43//43 41//41 29//29
f 44//44 30//30 9//9
f 44//44 9//9 20//20
f 44//44 1//1 13//13
f 44//44 13//13 30//30
f 46//46 28//28 5//5
f 46//46 5//5 31//31
f 51//51 49//49 14//14
f 51//51 33//33 49//49
f 53//53 36//36 24//24
f 54//54 51//51 14//14
f 54//54 25//25 51//51
f 58//58 39//39 26//26
f 58//58 18//18 39//39
f 59//59 39//39 18//18
f 59//59 56//56 27//27
f 59//59 18//18 56//56
f 60//60 26//26 39//39
f 60//60 37//37 26//26
f 60//60 2//2 37//37
f 61//61 43//43 29//29
f 61//61 29//29 42//42
f 61//61 42//42 19//19
f 61//61 19//19 12//12
f 62//62 41//41 43//43
f 62//62 20//20 9//9
f 62//62 9//9 41//41
f 63//63 31//31 5//5
f 63//63 5//5 45//45
f 65//65 12//12 19//19
f 65//65 19//19 40//40
f 65//65 40//40 28//28
f 65//65 28//28 46//46
f 67//67 48//48 32//32
f 67//67 47//47 66//66
f 67//67 32//32 47//47
f 68//68 34//34 22//22
f 68//68 8//8 34//34
f 69//69 68//68 22//22
f 69//69 50//50 68//68
f 69//69 33//33 50//50
f 69//69 49//49 33//33
f 70//70 35//35 52//52
f 70//70 52//52 10//10
f 70//70 10//10 16//16
f 71//71 36//36 53//53
f 71//71 54//54 36//36
f 71//71 25//25 54//54
f 72//72 55//55 34//34
f 72//72 34//34 8//8
f 72//72 37//37 2//2
f 72//72 2//2 55//55
f 73//73 57//57 38//38
f 74//74 38//38 57//57
f 74//74 56//56 38//38
f 74//74 27//27 56//56
f 77//77 67//67 66//66
f 77//77 66//66 17//17
f 77//77 17//17 11//11
f 78//78 35//35 70//70
f 78//78 53//53 24//24
f 78//78 24//24 35//35
f 80//80 75//75 64//64
f 80//80 64//64 21//21
f 80//80 63//63 45//45
f 80//80 45//45 75//75
f 81//81 76//76 32//32
f 81//81 32//32 48//48
f 82//82 79//79 57//57
f 82//82 57//57 73//73
f 82//82 11//11 17//17
f 82//82 17//17 79//79
f 83//83 32//32 76//76
f 83//83 64//64 75//75
f 83//83 47//47 32//32
f 83//83 75//75 45//45
f 83//83 66//66 47//47
f 83//83 45//45 5//5
f 83//83 79//79 17//17
f 83//83 17//17 66//66
f 83//83 5//5 28//28
f 83//83 28//28 40//40
f 83//83 40//40 19//19
f 83//83 19//19 42//42
f 83//83 42//42 29//29
f 83//83 29//29 41//41
f 83//83 41//41 9//9
f 83//83 9//9 30//30
f 83//83 30//30 13//13
f 83//83 13//13 3//3
f 83//83 3//3 7//7
f 83//83 7//7 15//15
f 83//83 15//15 10//10
f 83//83 10//10 52//52
f 83//83 52//52 35//35
f 83//83 35//35 24//24
f 83//83 24//24 36//36
f 83//83 36//36 54//54
f 83//83 54//54 14//14
f 83//83 14//14 49//49
f 83//83 49//49 69//69
f 83//83 69//69 22//22
f 83//83 22//22 34//34
f 83//83 34//34 55//55
f 83//83 55//55 2//2
f 83//83 2//2 60//60
f 83//83 60//60 39//39
f 83//83 39//39 59//59
f 83//83 59//59 27//27
f 83//83 27//27 74//74
f 83//83 74//74 57//57
f 83//83 57//57 79//79
f 84//84 83//83 76//76
f 84//84 76//76 81//81
f 84//84 21//21 64//64
f 84//84 80//80 21//21
f 84//84 64//64 83//83
f 84//84 81//81 48//48
f 84//84 63//63 80//80
f 84//84 48//48 67//67
f 84//84 31//31 63//63
f 84//84 67//67 77//77
f 84//84 46//46 31//31
f 84//84 77//77 11//11
f 84//84 11//11 82//82
f 84//84 65//65 46//46
f 84//84 12//12 65//65
f 84//84 61//61 12//12
f 84//84 43//43 61//61
f 84//84 62//62 43//43
f 84//84 20//20 62//62
f 84//84 44//44 20//20
f 84//84 1//1 44//44
f 84//84 6//6 1//1
f 84//84 4//4 6//6
f 84//84 23//23 4//4
f 84//84 16//16 23//23
f 84//84 70//70 16//16
f 84//84 78//78 70//70
f 84//84 53//53 78//78
f 84//84 71//71 53//53
f 84//84 25//25 71//71
f 84//84 51//51 25//25
f 84//84 33//33 51//51
f 84//84 50//50 33//33
f 84//84 68//68 50//50
f 84//84 8//8 68//68
f 84//84 72//72 8//8
f 84//84 37//37 72//72
f 84//84 26//26 37//37
f 84//84 58//58 26//26
f 84//84 18//18 58//58
f 84//84 56//56 18//18
f 84//84 38//38 56//56
f 84//84 82//82 73//73
f 84//84 73//73 38//38
# 164 faces, 0 coords texture

# End of File
