####
#
# OBJ File Generated by Meshlab
#
####
# Object finger3.obj
#
# Vertices: 77
# Faces: 150
#
####
vn 0.153965 -3.043418 -3.134029
v -0.004200 -0.013550 -0.006300
vn -0.295062 -2.946177 3.608410
v -0.004800 -0.010850 0.047200
vn 3.134029 3.043418 -0.153965
v 0.009800 0.013450 0.007700
vn -3.111410 2.945243 -0.306447
v -0.009800 0.013450 -0.003300
vn 3.140277 -3.140258 0.025030
v 0.009800 -0.013550 0.025400
vn 1.736971 2.945243 -2.599561
v 0.003578 0.013450 -0.003941
vn -2.092099 2.787838 2.925167
v -0.007739 0.010950 0.046245
vn -3.111410 -2.945244 -0.306447
v -0.009800 -0.013550 -0.003300
vn 2.888477 -2.945243 -1.196447
v 0.008734 -0.013550 0.002342
vn -0.306447 2.945243 -3.111410
v -0.006800 0.013450 -0.006300
vn -0.424178 6.212526 0.503734
v -0.007739 0.013450 0.029445
vn 3.832829 2.673537 1.356701
v 0.009555 0.010950 0.043745
vn -5.347071 -2.035519 0.572863
v -0.009800 -0.010850 0.042200
vn 3.134029 -3.043418 -0.153965
v 0.009800 -0.013550 0.007700
vn 2.888477 2.945243 -1.196446
v 0.008734 0.013450 0.002342
vn 1.736971 -2.945243 -2.599560
v 0.003578 -0.013550 -0.003941
vn 0.609943 2.945243 -3.066391
v -0.001469 0.013450 -0.006031
vn -2.178756 -2.748893 -2.178756
v -0.008921 -0.013550 -0.005421
vn -5.262094 2.120289 0.561246
v -0.009800 0.010950 0.042200
vn 5.262094 2.120290 0.561246
v 0.009800 0.010950 0.042200
vn 0.278716 2.953332 3.561737
v 0.004800 0.010950 0.047200
vn 3.024932 -2.752442 2.266205
v 0.008845 -0.010850 0.045139
vn 0.851227 6.124205 0.490591
v 0.008845 0.013450 0.028339
vn -3.024932 -2.752442 2.266205
v -0.008845 -0.010850 0.045139
vn 3.066391 -2.945243 -0.609943
v 0.009531 -0.013550 0.004969
vn 2.599560 -2.945243 -1.736971
v 0.007441 -0.013550 -0.000078
vn 0.153965 3.043418 -3.134028
v -0.004200 0.013450 -0.006300
vn 1.196447 -2.945243 -2.888477
v 0.001158 -0.013550 -0.005234
vn -2.846684 -2.748893 -1.179135
v -0.009572 -0.013550 -0.004448
vn -2.178757 2.748893 -2.178757
v -0.008921 0.013450 -0.005421
vn -0.306447 -2.945243 -3.111410
v -0.006800 -0.013550 -0.006300
vn -3.140370 3.140442 0.023204
v -0.009800 0.013450 0.025400
vn -3.832830 2.673537 1.356701
v -0.009555 0.010950 0.043745
vn -0.278716 2.953332 3.561737
v -0.004800 0.010950 0.047200
vn 0.048201 -6.239844 0.516894
v 0.004800 -0.013550 0.030400
vn 0.295062 -2.946177 3.608410
v 0.004800 -0.010850 0.047200
vn 2.092099 2.787838 2.925167
v 0.007739 0.010950 0.046245
vn 3.895859 -2.650124 1.384767
v 0.009555 -0.010850 0.043745
vn 3.140370 3.140442 0.023204
v 0.009800 0.013450 0.025400
vn 0.040230 6.245088 0.485205
v 0.004800 0.013450 0.030400
vn -1.091348 -2.791903 3.399745
v -0.006345 -0.010850 0.046955
vn -2.212804 -5.330075 0.402210
v -0.009555 -0.013550 0.026945
vn 3.066391 2.945243 -0.609943
v 0.009531 0.013450 0.004969
vn 2.210744 -2.945243 -2.210744
v 0.005699 -0.013550 -0.002199
vn 1.196447 2.945243 -2.888477
v 0.001158 0.013450 -0.005234
vn 0.609943 -2.945243 -3.066391
v -0.001469 -0.013550 -0.006031
vn -2.846683 2.748893 -1.179134
v -0.009572 0.013450 -0.004448
vn -1.179135 -2.748893 -2.846684
v -0.007948 -0.013550 -0.006072
vn -2.988434 2.762789 2.234977
v -0.008845 0.010950 0.045139
vn -0.851227 6.124204 0.490591
v -0.008845 0.013450 0.028339
vn -3.895858 -2.650124 1.384766
v -0.009555 -0.010850 0.043745
vn -1.081733 2.796888 3.367250
v -0.006345 0.010950 0.046955
vn 0.456414 -6.201191 0.542211
v 0.007739 -0.013550 0.029445
vn 2.988435 2.762789 2.234977
v 0.008845 0.010950 0.045139
vn 1.091348 -2.791903 3.399745
v 0.006345 -0.010850 0.046955
vn 5.347071 -2.035519 0.572863
v 0.009800 -0.010850 0.042200
vn 2.128708 5.415425 0.385118
v 0.009555 0.013450 0.026945
vn -0.040230 6.245086 0.485205
v -0.004800 0.013450 0.030400
vn 0.424178 6.212526 0.503734
v 0.007739 0.013450 0.029445
vn -2.112952 -2.781409 2.957322
v -0.007739 -0.010850 0.046245
vn -3.140277 -3.140258 0.025030
v -0.009800 -0.013550 0.025400
vn -0.199612 -6.228042 0.546526
v -0.006345 -0.013550 0.030155
vn 2.210744 2.945243 -2.210744
v 0.005699 0.013450 -0.002199
vn -1.179134 2.748893 -2.846683
v -0.007948 0.013450 -0.006072
vn -2.128708 5.415425 0.385118
v -0.009555 0.013450 0.026945
vn -0.911835 -6.099956 0.525941
v -0.008845 -0.013550 0.028339
vn 0.911835 -6.099956 0.525941
v 0.008845 -0.013550 0.028339
vn 0.000000 -6.196726 1.032361
v -0.000000 -0.011450 0.043900
vn 2.112951 -2.781409 2.957321
v 0.007739 -0.010850 0.046245
vn 1.081733 2.796888 3.367250
v 0.006345 0.010950 0.046955
vn 0.199612 -6.228041 0.546526
v 0.006345 -0.013550 0.030155
vn -0.185290 6.235750 0.507190
v -0.006345 0.013450 0.030155
vn -0.456414 -6.201192 0.542211
v -0.007739 -0.013550 0.029445
vn 2.599560 2.945243 -1.736971
v 0.007441 0.013450 -0.000078
vn 2.212804 -5.330076 0.402210
v 0.009555 -0.013550 0.026945
vn -0.048201 -6.239835 0.516894
v -0.004800 -0.013550 0.030400
vn 0.185290 6.235739 0.507190
v 0.006345 0.013450 0.030155
# 77 vertices, 0 vertices normals

f 31//31 10//10 27//27
f 31//31 27//27 1//1
f 33//33 32//32 19//19
f 36//36 34//34 2//2
f 36//36 21//21 34//34
f 38//38 20//20 12//12
f 38//38 12//12 22//22
f 39//39 12//12 20//20
f 43//43 25//25 9//9
f 43//43 9//9 15//15
f 43//43 3//3 14//14
f 43//43 14//14 25//25
f 45//45 28//28 17//17
f 45//45 6//6 16//16
f 45//45 16//16 28//28
f 46//46 17//17 28//28
f 46//46 27//27 17//17
f 46//46 1//1 27//27
f 47//47 30//30 18//18
f 47//47 18//18 29//29
f 47//47 29//29 8//8
f 47//47 8//8 4//4
f 49//49 7//7 11//11
f 50//50 49//49 11//11
f 50//50 33//33 49//49
f 51//51 33//33 19//19
f 51//51 19//19 13//13
f 51//51 49//49 33//33
f 51//51 24//24 49//49
f 52//52 11//11 7//7
f 52//52 41//41 2//2
f 52//52 2//2 34//34
f 54//54 22//22 12//12
f 54//54 12//12 23//23
f 56//56 38//38 5//5
f 56//56 20//20 38//38
f 56//56 39//39 20//20
f 56//56 5//5 14//14
f 56//56 14//14 3//3
f 56//56 3//3 39//39
f 57//57 23//23 12//12
f 57//57 12//12 39//39
f 58//58 34//34 21//21
f 58//58 21//21 40//40
f 59//59 54//54 23//23
f 59//59 37//37 54//54
f 60//60 52//52 7//7
f 60//60 41//41 52//52
f 60//60 49//49 24//24
f 60//60 7//7 49//49
f 61//61 13//13 19//19
f 61//61 51//51 13//13
f 61//61 42//42 51//51
f 61//61 32//32 4//4
f 61//61 4//4 8//8
f 61//61 19//19 32//32
f 62//62 2//2 41//41
f 63//63 44//44 16//16
f 63//63 16//16 6//6
f 64//64 48//48 18//18
f 64//64 18//18 30//30
f 64//64 10//10 31//31
f 64//64 31//31 48//48
f 65//65 32//32 33//33
f 65//65 33//33 50//50
f 66//66 51//51 42//42
f 66//66 24//24 51//51
f 67//67 38//38 22//22
f 67//67 22//22 53//53
f 68//68 35//35 36//36
f 68//68 36//36 2//2
f 69//69 37//37 55//55
f 69//69 55//55 53//53
f 69//69 53//53 22//22
f 69//69 54//54 37//37
f 69//69 22//22 54//54
f 70//70 55//55 37//37
f 70//70 37//37 59//59
f 70//70 21//21 36//36
f 70//70 36//36 55//55
f 71//71 53//53 55//55
f 71//71 55//55 36//36
f 71//71 36//36 35//35
f 72//72 52//52 34//34
f 72//72 34//34 58//58
f 72//72 11//11 52//52
f 73//73 62//62 41//41
f 73//73 41//41 60//60
f 73//73 60//60 24//24
f 73//73 24//24 66//66
f 74//74 15//15 9//9
f 74//74 9//9 26//26
f 74//74 26//26 44//44
f 74//74 44//44 63//63
f 75//75 5//5 38//38
f 75//75 38//38 67//67
f 76//76 35//35 68//68
f 76//76 68//68 2//2
f 76//76 2//2 62//62
f 76//76 71//71 35//35
f 76//76 62//62 73//73
f 76//76 53//53 71//71
f 76//76 73//73 66//66
f 76//76 75//75 67//67
f 76//76 67//67 53//53
f 76//76 66//66 42//42
f 76//76 42//42 61//61
f 76//76 61//61 8//8
f 76//76 8//8 29//29
f 76//76 29//29 18//18
f 76//76 18//18 48//48
f 76//76 48//48 31//31
f 76//76 31//31 1//1
f 76//76 1//1 46//46
f 76//76 46//46 28//28
f 76//76 28//28 16//16
f 76//76 16//16 44//44
f 76//76 44//44 26//26
f 76//76 26//26 9//9
f 76//76 9//9 25//25
f 76//76 25//25 14//14
f 76//76 14//14 5//5
f 76//76 5//5 75//75
f 77//77 70//70 59//59
f 77//77 40//40 21//21
f 77//77 58//58 40//40
f 77//77 21//21 70//70
f 77//77 59//59 23//23
f 77//77 72//72 58//58
f 77//77 23//23 57//57
f 77//77 11//11 72//72
f 77//77 57//57 39//39
f 77//77 50//50 11//11
f 77//77 39//39 3//3
f 77//77 65//65 50//50
f 77//77 3//3 43//43
f 77//77 32//32 65//65
f 77//77 43//43 15//15
f 77//77 15//15 74//74
f 77//77 4//4 32//32
f 77//77 47//47 4//4
f 77//77 30//30 47//47
f 77//77 64//64 30//30
f 77//77 10//10 64//64
f 77//77 27//27 10//10
f 77//77 17//17 27//27
f 77//77 45//45 17//17
f 77//77 6//6 45//45
f 77//77 74//74 63//63
f 77//77 63//63 6//6
# 150 faces, 0 coords texture

# End of File
