####
#
# OBJ File Generated by Meshlab
#
####
# Object finger2.obj
#
# Vertices: 99
# Faces: 194
#
####
vn -0.295061 -2.946178 -3.608410
v -0.004800 -0.010850 -0.008800
vn -0.294543 -2.946169 3.608488
v -0.004800 -0.010850 0.062800
vn 3.140371 3.140442 -0.023204
v 0.009800 0.013450 0.013000
vn -3.140372 3.140441 -0.023204
v -0.009800 0.013450 0.013000
vn 3.140277 -3.140258 0.025030
v 0.009800 -0.013550 0.041000
vn -0.278715 2.953332 -3.561738
v -0.004800 0.010950 -0.008800
vn -0.278712 2.953335 3.561739
v -0.004800 0.010950 0.062800
vn -3.140276 -3.140253 -0.025030
v -0.009800 -0.013550 0.013000
vn 3.895858 -2.650124 -1.384766
v 0.009555 -0.010850 -0.005345
vn 0.040230 6.245088 -0.485205
v 0.004800 0.013450 0.008000
vn -0.040230 6.245089 0.485205
v -0.004800 0.013450 0.046000
vn 3.832829 2.673535 1.356701
v 0.009555 0.010950 0.059345
vn -3.895858 -2.650124 -1.384766
v -0.009555 -0.010850 -0.005345
vn -5.347073 -2.035518 0.572863
v -0.009800 -0.010850 0.057800
vn 5.347071 -2.035521 -0.572864
v 0.009800 -0.010850 -0.003800
vn 1.091344 -2.791904 -3.399745
v 0.006345 -0.010850 -0.008555
vn 0.911835 -6.099957 -0.525941
v 0.008845 -0.013550 0.010061
vn 2.988436 2.762789 -2.234977
v 0.008845 0.010950 -0.006739
vn -0.185290 6.235749 -0.507190
v -0.006345 0.013450 0.008245
vn -3.140374 3.140447 0.023204
v -0.009800 0.013450 0.041000
vn 5.262094 2.120288 0.561245
v 0.009800 0.010950 0.057800
vn 1.091340 -2.791903 3.399746
v 0.006345 -0.010850 0.062555
vn 1.081725 2.796887 3.367252
v 0.006345 0.010950 0.062555
vn 2.128707 5.415426 0.385118
v 0.009555 0.013450 0.042545
vn -2.112948 -2.781406 -2.957321
v -0.007739 -0.010850 -0.007845
vn -5.347070 -2.035521 -0.572864
v -0.009800 -0.010850 -0.003800
vn -3.832833 2.673541 -1.356702
v -0.009555 0.010950 -0.005345
vn -2.112950 -2.781404 2.957321
v -0.007739 -0.010850 0.061845
vn 0.295061 -2.946177 -3.608410
v 0.004800 -0.010850 -0.008800
vn 3.140275 -3.140256 -0.025030
v 0.009800 -0.013550 0.013000
vn 3.024933 -2.752444 -2.266204
v 0.008845 -0.010850 -0.006739
vn -0.048201 -6.239844 -0.516893
v -0.004800 -0.013550 0.008000
vn 0.424177 6.212523 -0.503734
v 0.007739 0.013450 0.008955
vn 0.278715 2.953332 -3.561738
v 0.004800 0.010950 -0.008800
vn 3.832829 2.673536 -1.356700
v 0.009555 0.010950 -0.005345
vn -0.040230 6.245087 -0.485205
v -0.004800 0.013450 0.008000
vn -2.092096 2.787831 2.925164
v -0.007739 0.010950 0.061845
vn 5.347072 -2.035518 0.572863
v 0.009800 -0.010850 0.057800
vn 0.047774 -6.239783 0.517289
v 0.004800 -0.013550 0.046000
vn 0.278712 2.953335 3.561739
v 0.004800 0.010950 0.062800
vn 2.112949 -2.781404 2.957320
v 0.007739 -0.010850 0.061845
vn 3.140375 3.140447 0.023204
v 0.009800 0.013450 0.041000
vn 2.092096 2.787833 2.925165
v 0.007739 0.010950 0.061845
vn 0.185290 6.235750 0.507190
v 0.006345 0.013450 0.045755
vn -1.091344 -2.791904 -3.399746
v -0.006345 -0.010850 -0.008555
vn -0.911834 -6.099957 -0.525941
v -0.008845 -0.013550 0.010061
vn -2.212806 -5.330077 -0.402211
v -0.009555 -0.013550 0.011455
vn -5.262089 2.120285 -0.561245
v -0.009800 0.010950 -0.003800
vn -2.092096 2.787836 -2.925167
v -0.007739 0.010950 -0.007845
vn -0.851227 6.124208 -0.490591
v -0.008845 0.013450 0.010061
vn 0.199612 -6.228041 -0.546526
v 0.006345 -0.013550 0.008245
vn 2.212806 -5.330077 -0.402211
v 0.009555 -0.013550 0.011455
vn 2.112949 -2.781405 -2.957323
v 0.007739 -0.010850 -0.007845
vn 0.000000 -6.196726 -1.032361
v 0.000000 -0.011450 -0.005500
vn 2.128709 5.415425 -0.385118
v 0.009555 0.013450 0.011455
vn 1.081729 2.796888 -3.367251
v 0.006345 0.010950 -0.008555
vn 5.262093 2.120290 -0.561246
v 0.009800 0.010950 -0.003800
vn -1.081725 2.796887 3.367252
v -0.006345 0.010950 0.062555
vn -0.424177 6.212524 0.503734
v -0.007739 0.013450 0.045045
vn -5.262094 2.120288 0.561245
v -0.009800 0.010950 0.057800
vn 3.895858 -2.650125 1.384766
v 0.009555 -0.010850 0.059345
vn 0.029623 -6.197028 1.032596
v 0.000689 -0.011450 0.059457
vn -0.199612 -6.228041 0.546526
v -0.006345 -0.013550 0.045755
vn 0.040230 6.245089 0.485205
v 0.004800 0.013450 0.046000
vn 0.294543 -2.946169 3.608488
v 0.004800 -0.010850 0.062800
vn 0.911836 -6.099956 0.525941
v 0.008845 -0.013550 0.043939
vn 0.456413 -6.201190 0.542211
v 0.007739 -0.013550 0.045045
vn 0.851229 6.124207 0.490591
v 0.008845 0.013450 0.043939
vn 0.424177 6.212524 0.503734
v 0.007739 0.013450 0.045045
vn -3.024935 -2.752444 -2.266205
v -0.008845 -0.010850 -0.006739
vn -0.199612 -6.228042 -0.546526
v -0.006345 -0.013550 0.008245
vn -2.128703 5.415416 -0.385117
v -0.009555 0.013450 0.011455
vn -1.081729 2.796889 -3.367250
v -0.006345 0.010950 -0.008555
vn -2.988435 2.762786 -2.234976
v -0.008845 0.010950 -0.006739
vn -0.424177 6.212523 -0.503734
v -0.007739 0.013450 0.008955
vn 0.048201 -6.239844 -0.516893
v 0.004800 -0.013550 0.008000
vn 0.456413 -6.201191 -0.542211
v 0.007739 -0.013550 0.008955
vn 0.851227 6.124205 -0.490591
v 0.008845 0.013450 0.010061
vn 2.092096 2.787835 -2.925166
v 0.007739 0.010950 -0.007845
vn 0.185290 6.235749 -0.507190
v 0.006345 0.013450 0.008245
vn -1.091340 -2.791903 3.399747
v -0.006345 -0.010850 0.062555
vn -0.851229 6.124207 0.490591
v -0.008845 0.013450 0.043939
vn -0.185290 6.235749 0.507190
v -0.006345 0.013450 0.045755
vn -3.895859 -2.650125 1.384767
v -0.009555 -0.010850 0.059345
vn 3.024936 -2.752443 2.266204
v 0.008845 -0.010850 0.060739
vn -0.047774 -6.239783 0.517289
v -0.004800 -0.013550 0.046000
vn -3.140276 -3.140258 0.025030
v -0.009800 -0.013550 0.041000
vn 2.212803 -5.330077 0.402210
v 0.009555 -0.013550 0.042545
vn 0.199612 -6.228041 0.546526
v 0.006345 -0.013550 0.045755
vn 2.988437 2.762792 2.234976
v 0.008845 0.010950 0.060739
vn -0.456414 -6.201191 -0.542211
v -0.007739 -0.013550 0.008955
vn -3.832829 2.673535 1.356701
v -0.009555 0.010950 0.059345
vn -0.029623 -6.197029 1.032596
v -0.000689 -0.011450 0.059457
vn -0.911836 -6.099956 0.525941
v -0.008845 -0.013550 0.043939
vn -2.988439 2.762792 2.234977
v -0.008845 0.010950 0.060739
vn -2.128707 5.415429 0.385118
v -0.009555 0.013450 0.042545
vn -0.456413 -6.201191 0.542211
v -0.007739 -0.013550 0.045045
vn -3.024935 -2.752443 2.266203
v -0.008845 -0.010850 0.060739
vn -2.212803 -5.330080 0.402210
v -0.009555 -0.013550 0.042545
# 99 vertices, 0 vertices normals

f 34//34 29//29 1//1
f 34//34 1//1 6//6
f 35//35 31//31 18//18
f 35//35 9//9 31//31
f 36//36 6//6 19//19
f 36//36 10//10 34//34
f 36//36 34//34 6//6
f 42//42 24//24 12//12
f 42//42 12//12 21//21
f 43//43 23//23 22//22
f 43//43 22//22 41//41
f 47//47 26//26 13//13
f 47//47 8//8 26//26
f 48//48 27//27 13//13
f 48//48 13//13 26//26
f 52//52 17//17 31//31
f 52//52 31//31 9//9
f 52//52 9//9 15//15
f 52//52 15//15 30//30
f 53//53 51//51 16//16
f 53//53 31//31 17//17
f 54//54 32//32 1//1
f 54//54 1//1 29//29
f 55//55 3//3 35//35
f 56//56 34//34 10//10
f 56//56 16//16 29//29
f 56//56 29//29 34//34
f 57//57 35//35 3//3
f 57//57 3//3 42//42
f 57//57 15//15 9//9
f 57//57 9//9 35//35
f 57//57 30//30 15//15
f 57//57 5//5 30//30
f 57//57 38//38 5//5
f 57//57 42//42 21//21
f 57//57 21//21 38//38
f 58//58 7//7 11//11
f 61//61 38//38 21//21
f 61//61 21//21 12//12
f 61//61 5//5 38//38
f 64//64 11//11 7//7
f 64//64 7//7 40//40
f 64//64 40//40 23//23
f 64//64 23//23 44//44
f 65//65 40//40 7//7
f 65//65 7//7 2//2
f 65//65 22//22 23//23
f 65//65 23//23 40//40
f 65//65 62//62 39//39
f 65//65 39//39 22//22
f 67//67 66//66 41//41
f 68//68 12//12 24//24
f 69//69 44//44 23//23
f 69//69 23//23 43//43
f 69//69 43//43 68//68
f 70//70 47//47 13//13
f 70//70 46//46 47//47
f 71//71 45//45 1//1
f 71//71 1//1 32//32
f 72//72 48//48 4//4
f 72//72 27//27 48//48
f 73//73 19//19 6//6
f 73//73 6//6 1//1
f 73//73 1//1 45//45
f 73//73 45//45 25//25
f 73//73 25//25 49//49
f 74//74 72//72 50//50
f 74//74 27//27 72//72
f 74//74 70//70 13//13
f 74//74 13//13 27//27
f 74//74 49//49 25//25
f 74//74 25//25 70//70
f 75//75 74//74 50//50
f 75//75 73//73 49//49
f 75//75 19//19 73//73
f 75//75 49//49 74//74
f 76//76 29//29 16//16
f 76//76 16//16 51//51
f 76//76 54//54 29//29
f 76//76 32//32 54//54
f 77//77 53//53 17//17
f 77//77 51//51 53//53
f 78//78 18//18 33//33
f 78//78 55//55 35//35
f 78//78 35//35 18//18
f 79//79 33//33 18//18
f 79//79 18//18 31//31
f 79//79 31//31 53//53
f 79//79 53//53 16//16
f 79//79 16//16 56//56
f 80//80 56//56 10//10
f 80//80 79//79 56//56
f 80//80 33//33 79//79
f 81//81 58//58 37//37
f 81//81 37//37 28//28
f 81//81 28//28 63//63
f 81//81 2//2 7//7
f 81//81 7//7 58//58
f 82//82 37//37 59//59
f 83//83 58//58 11//11
f 83//83 59//59 37//37
f 83//83 37//37 58//58
f 85//85 66//66 61//61
f 85//85 41//41 66//66
f 86//86 81//81 63//63
f 86//86 2//2 81//81
f 87//87 14//14 60//60
f 87//87 84//84 14//14
f 87//87 26//26 8//8
f 87//87 48//48 26//26
f 87//87 4//4 48//48
f 87//87 60//60 20//20
f 87//87 20//20 4//4
f 88//88 5//5 61//61
f 88//88 61//61 66//66
f 89//89 67//67 41//41
f 89//89 41//41 22//22
f 89//89 22//22 39//39
f 90//90 68//68 43//43
f 90//90 12//12 68//68
f 90//90 85//85 61//61
f 90//90 61//61 12//12
f 90//90 43//43 41//41
f 90//90 41//41 85//85
f 91//91 70//70 25//25
f 91//91 46//46 70//70
f 91//91 25//25 45//45
f 91//91 45//45 71//71
f 92//92 20//20 60//60
f 92//92 60//60 14//14
f 92//92 14//14 84//84
f 93//93 2//2 86//86
f 93//93 86//86 39//39
f 93//93 62//62 65//65
f 93//93 39//39 62//62
f 93//93 65//65 2//2
f 95//95 37//37 82//82
f 95//95 82//82 92//92
f 96//96 92//92 82//82
f 96//96 20//20 92//92
f 96//96 4//4 20//20
f 96//96 82//82 59//59
f 96//96 59//59 83//83
f 96//96 72//72 4//4
f 96//96 50//50 72//72
f 96//96 75//75 50//50
f 96//96 19//19 75//75
f 96//96 36//36 19//19
f 96//96 10//10 36//36
f 96//96 80//80 10//10
f 96//96 33//33 80//80
f 96//96 78//78 33//33
f 96//96 55//55 78//78
f 96//96 3//3 55//55
f 96//96 42//42 3//3
f 96//96 24//24 42//42
f 96//96 68//68 24//24
f 96//96 69//69 68//68
f 96//96 44//44 69//69
f 96//96 64//64 44//44
f 96//96 83//83 11//11
f 96//96 11//11 64//64
f 97//97 63//63 28//28
f 97//97 28//28 94//94
f 98//98 94//94 28//28
f 98//98 84//84 94//94
f 98//98 95//95 92//92
f 98//98 92//92 84//84
f 98//98 28//28 37//37
f 98//98 37//37 95//95
f 99//99 94//94 84//84
f 99//99 84//84 87//87
f 99//99 97//97 94//94
f 99//99 87//87 8//8
f 99//99 8//8 47//47
f 99//99 47//47 46//46
f 99//99 46//46 91//91
f 99//99 91//91 71//71
f 99//99 71//71 32//32
f 99//99 32//32 76//76
f 99//99 76//76 51//51
f 99//99 51//51 77//77
f 99//99 77//77 17//17
f 99//99 17//17 52//52
f 99//99 52//52 30//30
f 99//99 30//30 5//5
f 99//99 5//5 88//88
f 99//99 88//88 66//66
f 99//99 66//66 67//67
f 99//99 67//67 89//89
f 99//99 89//89 39//39
f 99//99 39//39 86//86
f 99//99 86//86 63//63
f 99//99 63//63 97//97
# 194 faces, 0 coords texture

# End of File
