####
#
# OBJ File Generated by Meshlab
#
####
# Object thumb4.obj
#
# Vertices: 54
# Faces: 104
#
####
vn 0.294856 -2.946136 -3.608671
v 0.004800 -0.010750 -0.008800
vn -3.832831 2.673539 -1.356701
v -0.009555 0.011050 -0.005345
vn 3.140372 3.140444 -0.023204
v 0.009800 0.013550 0.013000
vn -1.570796 -1.570796 1.570796
v -0.009800 -0.013450 0.031300
vn 1.570796 -1.570797 1.570796
v 0.009800 -0.013450 0.031300
vn -1.570796 1.570796 1.570796
v -0.009800 0.013550 0.031300
vn 2.092096 2.787836 -2.925167
v 0.007739 0.011050 -0.007845
vn -3.895858 -2.650124 -1.384766
v -0.009555 -0.010750 -0.005345
vn -0.047912 -6.239806 -0.517134
v -0.004800 -0.013450 0.008000
vn -0.424177 6.212523 -0.503734
v -0.007739 0.013550 0.008955
vn 1.570796 1.570796 1.570796
v 0.009800 0.013550 0.031300
vn -0.278715 2.953333 -3.561738
v -0.004800 0.011050 -0.008800
vn 5.347070 -2.035520 -0.572864
v 0.009800 -0.010750 -0.003800
vn -5.262093 2.120291 -0.561246
v -0.009800 0.011050 -0.003800
vn -1.091344 -2.791904 -3.399746
v -0.006345 -0.010750 -0.008555
vn -2.212806 -5.330077 -0.402211
v -0.009555 -0.013450 0.011455
vn 0.185290 6.235750 -0.507190
v 0.006345 0.013550 0.008245
vn 0.278715 2.953333 -3.561738
v 0.004800 0.011050 -0.008800
vn -2.092096 2.787836 -2.925167
v -0.007739 0.011050 -0.007845
vn 3.024935 -2.752444 -2.266205
v 0.008845 -0.010750 -0.006739
vn 5.262089 2.120285 -0.561245
v 0.009800 0.011050 -0.003800
vn -5.347071 -2.035521 -0.572864
v -0.009800 -0.010750 -0.003800
vn -2.128708 5.415421 -0.385117
v -0.009555 0.013550 0.011455
vn -0.029454 -6.196722 -1.034238
v -0.000575 -0.011350 -0.005470
vn -0.294857 -2.946136 -3.608671
v -0.004800 -0.010750 -0.008800
vn -0.456414 -6.201192 -0.542211
v -0.007739 -0.013450 0.008955
vn 0.851228 6.124208 -0.490591
v 0.008845 0.013550 0.010061
vn -0.040230 6.245088 -0.485205
v -0.004800 0.013550 0.008000
vn 1.091344 -2.791904 -3.399746
v 0.006345 -0.010750 -0.008555
vn 1.081729 2.796889 -3.367250
v 0.006345 0.011050 -0.008555
vn -1.081729 2.796889 -3.367250
v -0.006345 0.011050 -0.008555
vn -2.112949 -2.781406 -2.957322
v -0.007739 -0.010750 -0.007845
vn 2.212806 -5.330076 -0.402211
v 0.009555 -0.013450 0.011455
vn 3.832832 2.673541 -1.356702
v 0.009555 0.011050 -0.005345
vn -3.140275 -3.140256 -0.025030
v -0.009800 -0.013450 0.013000
vn -3.140370 3.140443 -0.023204
v -0.009800 0.013550 0.013000
vn -2.988435 2.762786 -2.234977
v -0.008845 0.011050 -0.006739
vn 0.047912 -6.239806 -0.517134
v 0.004800 -0.013450 0.008000
vn -0.199612 -6.228042 -0.546526
v -0.006345 -0.013450 0.008245
vn 0.424178 6.212523 -0.503734
v 0.007739 0.013550 0.008955
vn 0.040230 6.245088 -0.485205
v 0.004800 0.013550 0.008000
vn 2.112948 -2.781406 -2.957321
v 0.007739 -0.010750 -0.007845
vn -0.185290 6.235750 -0.507190
v -0.006345 0.013550 0.008245
vn -0.911835 -6.099957 -0.525941
v -0.008845 -0.013450 0.010061
vn 3.895859 -2.650126 -1.384766
v 0.009555 -0.010750 -0.005345
vn 3.140277 -3.140259 -0.025030
v 0.009800 -0.013450 0.013000
vn 2.988434 2.762786 -2.234976
v 0.008845 0.011050 -0.006739
vn 2.128703 5.415416 -0.385117
v 0.009555 0.013550 0.011455
vn -0.851228 6.124211 -0.490591
v -0.008845 0.013550 0.010061
vn -3.024933 -2.752444 -2.266204
v -0.008845 -0.010750 -0.006739
vn 0.029454 -6.196721 -1.034238
v 0.000575 -0.011350 -0.005470
vn 0.199612 -6.228043 -0.546526
v 0.006345 -0.013450 0.008245
vn 0.911835 -6.099957 -0.525941
v 0.008845 -0.013450 0.010061
vn 0.456414 -6.201190 -0.542211
v 0.007739 -0.013450 0.008955
# 54 vertices, 0 vertices normals

f 11//11 6//6 4//4
f 11//11 4//4 5//5
f 22//22 14//14 2//2
f 22//22 2//2 8//8
f 22//22 8//8 16//16
f 25//25 18//18 1//1
f 25//25 12//12 18//18
f 25//25 24//24 9//9
f 30//30 29//29 1//1
f 30//30 1//1 18//18
f 31//31 28//28 12//12
f 31//31 25//25 15//15
f 31//31 12//12 25//25
f 31//31 19//19 10//10
f 32//32 31//31 15//15
f 32//32 19//19 31//31
f 32//32 15//15 26//26
f 35//35 22//22 16//16
f 36//36 23//23 2//2
f 36//36 14//14 22//22
f 36//36 2//2 14//14
f 36//36 35//35 4//4
f 36//36 4//4 6//6
f 36//36 22//22 35//35
f 37//37 2//2 23//23
f 37//37 10//10 19//19
f 39//39 25//25 9//9
f 39//39 15//15 25//25
f 39//39 26//26 15//15
f 40//40 30//30 17//17
f 40//40 7//7 30//30
f 41//41 17//17 30//30
f 41//41 30//30 18//18
f 41//41 18//18 12//12
f 41//41 12//12 28//28
f 42//42 30//30 7//7
f 42//42 29//29 30//30
f 43//43 31//31 10//10
f 43//43 28//28 31//31
f 45//45 33//33 20//20
f 45//45 34//34 21//21
f 45//45 21//21 13//13
f 46//46 13//13 21//21
f 46//46 45//45 13//13
f 46//46 33//33 45//45
f 46//46 11//11 5//5
f 46//46 21//21 3//3
f 46//46 3//3 11//11
f 47//47 45//45 20//20
f 47//47 34//34 45//45
f 47//47 42//42 7//7
f 47//47 20//20 42//42
f 47//47 40//40 27//27
f 47//47 7//7 40//40
f 48//48 47//47 27//27
f 48//48 34//34 47//47
f 48//48 3//3 21//21
f 48//48 21//21 34//34
f 49//49 37//37 23//23
f 49//49 10//10 37//37
f 49//49 43//43 10//10
f 49//49 23//23 36//36
f 49//49 28//28 43//43
f 49//49 36//36 6//6
f 49//49 41//41 28//28
f 49//49 6//6 11//11
f 49//49 17//17 41//41
f 49//49 11//11 3//3
f 49//49 3//3 48//48
f 49//49 40//40 17//17
f 49//49 48//48 27//27
f 49//49 27//27 40//40
f 50//50 37//37 19//19
f 50//50 19//19 32//32
f 50//50 8//8 2//2
f 50//50 2//2 37//37
f 50//50 44//44 16//16
f 50//50 16//16 8//8
f 50//50 32//32 26//26
f 50//50 26//26 44//44
f 51//51 1//1 38//38
f 51//51 38//38 9//9
f 51//51 24//24 25//25
f 51//51 9//9 24//24
f 51//51 25//25 1//1
f 52//52 38//38 1//1
f 52//52 1//1 29//29
f 53//53 20//20 33//33
f 54//54 52//52 29//29
f 54//54 29//29 42//42
f 54//54 38//38 52//52
f 54//54 42//42 20//20
f 54//54 20//20 53//53
f 54//54 53//53 33//33
f 54//54 9//9 38//38
f 54//54 39//39 9//9
f 54//54 26//26 39//39
f 54//54 44//44 26//26
f 54//54 16//16 44//44
f 54//54 35//35 16//16
f 54//54 4//4 35//35
f 54//54 5//5 4//4
f 54//54 46//46 5//5
f 54//54 33//33 46//46
# 104 faces, 0 coords texture

# End of File
