####
#
# OBJ File Generated by Meshlab
#
####
# Object thumb2.obj
#
# Vertices: 38
# Faces: 72
#
####
vn 3.111372 2.945120 0.306637
v 0.009800 0.013450 0.004133
vn -0.245727 -2.984513 3.122254
v -0.006800 -0.013450 0.021833
vn 1.570796 -1.570796 -1.570796
v 0.009800 -0.013450 -0.000167
vn -1.570796 1.570796 -1.570796
v -0.009800 0.013450 -0.000167
vn 2.533767 -2.984512 1.840889
v 0.006126 -0.013450 0.016062
vn -0.958854 2.827433 2.951047
v -0.007727 0.013450 0.021686
vn -1.570796 -1.570796 -1.570796
v -0.009800 -0.013450 -0.000167
vn 1.570796 1.570796 -1.570796
v 0.009800 0.013450 -0.000167
vn 3.067971 -3.102446 0.673331
v 0.008628 -0.013450 0.010023
vn 2.214593 2.984514 2.214594
v 0.004699 0.013450 0.017732
vn -3.122254 -2.984513 0.245727
v -0.009800 -0.013450 0.018833
vn 3.111373 -2.945120 0.306637
v 0.009800 -0.013450 0.004133
vn 0.967813 2.984513 2.978622
v -0.000874 0.013450 0.021148
vn 2.978622 2.984513 0.967813
v 0.008115 0.013450 0.012159
vn -2.510310 -2.827431 1.823849
v -0.009227 -0.013450 0.020596
vn -3.122253 2.984513 0.245727
v -0.009800 0.013450 0.018833
vn 0.123244 3.063052 3.136750
v -0.005200 0.013450 0.021833
vn 1.421856 -2.984514 2.790551
v 0.001156 -0.013450 0.020307
vn 2.533767 2.984513 1.840889
v 0.006126 0.013450 0.016062
vn 2.978622 -2.984513 0.967812
v 0.008115 -0.013450 0.012159
vn 3.067972 3.102446 0.673331
v 0.008628 0.013450 0.010023
vn -0.958855 -2.827433 2.951047
v -0.007727 -0.013450 0.021686
vn -2.510309 2.827431 1.823848
v -0.009227 0.013450 0.020596
vn -0.245727 2.984513 3.122253
v -0.006800 0.013450 0.021833
vn 0.489939 -2.984513 3.093349
v -0.003010 -0.013450 0.021661
vn 1.840889 -2.984513 2.533767
v 0.003029 -0.013450 0.019159
vn 2.790551 -2.984513 1.421856
v 0.007274 -0.013450 0.014189
vn -1.823847 -2.827435 2.510312
v -0.008563 -0.013450 0.021260
vn -2.951047 -2.827434 0.958852
v -0.009653 -0.013450 0.019760
vn 0.123244 -3.063053 3.136749
v -0.005200 -0.013450 0.021833
vn 0.489939 2.984514 3.093349
v -0.003010 0.013450 0.021661
vn 0.967813 -2.984514 2.978622
v -0.000874 -0.013450 0.021148
vn 2.214593 -2.984517 2.214594
v 0.004699 -0.013450 0.017732
vn 1.840889 2.984513 2.533767
v 0.003029 0.013450 0.019159
vn 2.790551 2.984514 1.421856
v 0.007274 0.013450 0.014189
vn -1.823848 2.827435 2.510312
v -0.008563 0.013450 0.021260
vn -2.951048 2.827434 0.958853
v -0.009653 0.013450 0.019760
vn 1.421856 2.984524 2.790551
v 0.001156 0.013450 0.020307
# 38 vertices, 0 vertices normals

f 8//8 7//7 4//4
f 8//8 3//3 7//7
f 12//12 8//8 1//1
f 12//12 3//3 8//8
f 16//16 7//7 11//11
f 16//16 4//4 7//7
f 21//21 9//9 12//12
f 21//21 20//20 9//9
f 21//21 14//14 20//20
f 21//21 12//12 1//1
f 22//22 2//2 6//6
f 24//24 6//6 2//2
f 30//30 24//24 2//2
f 30//30 17//17 24//24
f 31//31 17//17 30//30
f 31//31 30//30 25//25
f 32//32 18//18 13//13
f 32//32 31//31 25//25
f 32//32 13//13 31//31
f 33//33 19//19 10//10
f 33//33 5//5 19//19
f 33//33 27//27 5//5
f 33//33 26//26 18//18
f 33//33 18//18 32//32
f 33//33 20//20 27//27
f 33//33 9//9 20//20
f 33//33 12//12 9//9
f 33//33 3//3 12//12
f 33//33 7//7 3//3
f 33//33 11//11 7//7
f 33//33 29//29 11//11
f 33//33 15//15 29//29
f 33//33 28//28 15//15
f 33//33 22//22 28//28
f 33//33 2//2 22//22
f 33//33 30//30 2//2
f 33//33 32//32 25//25
f 33//33 25//25 30//30
f 34//34 26//26 33//33
f 34//34 33//33 10//10
f 35//35 27//27 20//20
f 35//35 20//20 14//14
f 35//35 19//19 5//5
f 35//35 5//5 27//27
f 36//36 28//28 22//22
f 36//36 22//22 6//6
f 36//36 23//23 15//15
f 36//36 15//15 28//28
f 37//37 29//29 15//15
f 37//37 15//15 23//23
f 37//37 16//16 11//11
f 37//37 11//11 29//29
f 38//38 13//13 18//18
f 38//38 18//18 26//26
f 38//38 26//26 34//34
f 38//38 31//31 13//13
f 38//38 34//34 10//10
f 38//38 17//17 31//31
f 38//38 10//10 19//19
f 38//38 24//24 17//17
f 38//38 19//19 35//35
f 38//38 6//6 24//24
f 38//38 35//35 14//14
f 38//38 36//36 6//6
f 38//38 14//14 21//21
f 38//38 37//37 23//23
f 38//38 23//23 36//36
f 38//38 21//21 1//1
f 38//38 1//1 8//8
f 38//38 8//8 4//4
f 38//38 4//4 16//16
f 38//38 16//16 37//37
# 72 faces, 0 coords texture

# End of File
