####
#
# OBJ File Generated by Meshlab
#
####
# Object WSG-FMF.obj
#
# Vertices: 102
# Faces: 200
#
####
vn -0.051757 -0.009512 6.276224
v -0.005000 0.000000 0.130500
vn -1.560036 -1.687905 -1.754330
v -0.018000 -0.015000 0.057500
vn 2.913604 -2.679059 -0.918969
v 0.000000 -0.015000 0.072500
vn -3.002234 2.839384 0.225259
v -0.020000 0.015000 0.074500
vn 1.346947 -2.111217 -2.378964
v -0.009000 -0.015000 0.057500
vn -2.254444 -4.923580 1.352512
v -0.011000 -0.009659 0.123088
vn 2.913630 2.679063 -0.918972
v 0.000000 0.015000 0.072500
vn -1.560037 1.687905 -1.754331
v -0.018000 0.015000 0.057500
vn 3.048714 -2.932099 1.118086
v 0.003000 -0.009458 0.123747
vn -3.002232 -2.839383 0.225259
v -0.020000 -0.015000 0.074500
vn -2.849421 2.622983 1.979635
v -0.011000 0.009165 0.124500
vn 1.346947 2.111217 -2.378964
v -0.009000 0.015000 0.057500
vn -2.579247 -2.045020 3.868614
v -0.008891 -0.006191 0.128353
vn 3.050531 2.931207 1.120798
v 0.003000 0.009458 0.123747
vn -6.240149 0.000001 -0.734135
v -0.019307 0.011710 0.068614
vn 0.174635 -6.218734 0.812700
v 0.001061 -0.009945 0.121543
vn -2.858867 -2.627944 1.971125
v -0.011000 -0.009165 0.124500
vn 2.983585 -1.255573 2.868525
v 0.003000 -0.004017 0.129658
vn -2.571962 1.229455 4.377391
v -0.008099 0.003675 0.129800
vn 6.272840 -0.017051 -0.253669
v 0.003000 -0.000826 0.110534
vn 0.067847 6.237742 0.736101
v 0.001061 0.009942 0.121579
vn -6.240150 0.000003 -0.734136
v -0.018571 0.013581 0.062349
vn -6.240149 -0.000009 -0.734136
v -0.018812 -0.014469 0.064406
vn 0.484773 -6.114607 1.085720
v 0.002462 -0.009697 0.122944
vn -0.373067 -6.213769 0.774662
v -0.011000 -0.010000 0.120500
vn 2.645880 -4.645977 0.174183
v 0.000000 -0.015000 0.074500
vn -0.002791 -5.928054 2.070771
v -0.005000 -0.009458 0.123747
vn 2.984258 -2.471541 1.922651
v 0.003000 -0.007891 0.126642
vn -2.571122 -1.320377 4.336970
v -0.008162 -0.003955 0.129684
vn 2.984994 1.256372 2.868241
v 0.003000 0.004017 0.129658
vn -2.572074 -0.487615 4.590747
v -0.007774 -0.001451 0.130394
vn 6.265966 -0.267001 -0.190434
v 0.003000 -0.007891 0.114358
vn 6.265966 0.267001 -0.190434
v 0.003000 0.007891 0.114358
vn 2.645846 4.645741 0.174165
v 0.000000 0.015000 0.074500
vn -0.373067 6.213769 0.774662
v -0.011000 0.010000 0.120500
vn -2.254369 4.923584 1.352509
v -0.011000 0.009659 0.123088
vn -6.240150 -0.000000 -0.734135
v -0.019307 -0.009290 0.068614
vn -6.240149 -0.000000 -0.734136
v -0.018571 -0.007419 0.062349
vn 3.064083 -3.033032 0.778442
v 0.003000 -0.009545 0.123483
vn -0.018465 -6.195652 0.993069
v -0.005000 -0.009864 0.122146
vn 0.235218 -6.211431 0.867557
v 0.001659 -0.009839 0.122142
vn 2.983562 -2.753818 1.490372
v 0.003000 -0.008795 0.125259
vn -2.588728 -2.591945 3.256096
v -0.009911 -0.008008 0.126489
vn 2.986217 -1.713492 2.620988
v 0.003000 -0.005469 0.128872
vn 2.985624 0.260798 3.120487
v 0.003000 0.000826 0.130466
vn 2.985035 2.120389 2.304168
v 0.003000 0.006773 0.127857
vn -2.577641 1.968434 3.932469
v -0.008790 0.005950 0.128537
vn -2.831460 -1.588800 4.217607
v -0.008489 -0.004957 0.129088
vn 2.982661 -0.770296 3.034978
v 0.003000 -0.002455 0.130194
vn -2.570164 0.387275 4.604908
v -0.007752 0.001151 0.130434
vn 6.272412 -0.146096 -0.214395
v 0.003000 -0.005469 0.112128
vn 6.273368 0.101260 -0.226022
v 0.003000 0.004017 0.111342
vn 5.884612 1.529239 -0.018599
v 0.003000 0.009545 0.117517
vn 0.350812 6.166515 0.966636
v 0.001615 0.009866 0.122133
vn -0.017741 6.193644 1.002420
v -0.005000 0.009864 0.122146
vn -0.002754 5.928162 2.070430
v -0.005000 0.009458 0.123747
vn 0.000029 -6.057717 1.665765
v -0.005000 -0.009659 0.123088
vn 5.904526 -1.492945 -0.023980
v 0.003000 -0.009534 0.117483
vn -0.028853 -4.523435 4.351956
v -0.005000 -0.007071 0.127571
vn -0.012920 -5.361619 3.266212
v -0.005000 -0.008660 0.125500
vn -0.037767 -3.075821 5.471419
v -0.005000 -0.005000 0.129160
vn 2.982370 0.768541 3.035413
v 0.003000 0.002455 0.130194
vn 2.983562 2.753818 1.490372
v 0.003000 0.008795 0.125259
vn -2.580421 2.551953 3.310474
v -0.009780 0.007823 0.126729
vn -0.037923 3.062651 5.478851
v -0.005000 0.005000 0.129160
vn -2.793864 -2.706292 3.103492
v -0.010471 -0.008603 0.125467
vn -0.047277 -1.806538 6.011083
v -0.005000 -0.002588 0.130159
vn 2.987046 -0.259836 3.120643
v 0.003000 -0.000826 0.130466
vn -0.011540 0.433443 6.265369
v -0.005000 0.000826 0.130466
vn 6.270276 -0.198697 -0.202923
v 0.003000 -0.006773 0.113143
vn 6.273495 -0.059473 -0.238753
v 0.003000 -0.002455 0.110806
vn 6.273495 0.059473 -0.238753
v 0.003000 0.002455 0.110806
vn 6.272412 0.146096 -0.214395
v 0.003000 0.005469 0.112128
vn 6.256609 0.367829 -0.174804
v 0.003000 0.008795 0.115741
vn 3.032776 3.038596 0.752203
v 0.003000 0.009534 0.123517
vn 0.000725 6.085850 1.546472
v -0.005000 0.009659 0.123088
vn 6.256608 -0.367829 -0.174804
v 0.003000 -0.008795 0.115741
vn -0.004508 -4.850544 3.987317
v -0.005000 -0.007891 0.126642
vn 2.985411 -2.120552 2.304041
v 0.003000 -0.006773 0.127857
vn -0.013501 -5.561818 2.917222
v -0.005000 -0.008795 0.125259
vn -0.001977 -2.671808 5.683799
v -0.005000 -0.004017 0.129658
vn -0.029504 -3.464772 5.235683
v -0.005000 -0.005469 0.128872
vn -0.052198 1.381224 6.123584
v -0.005000 0.002455 0.130194
vn -0.030665 4.509818 4.366398
v -0.005000 0.007071 0.127571
vn -0.020035 5.350752 3.282398
v -0.005000 0.008660 0.125500
vn 2.984183 2.471555 1.922645
v 0.003000 0.007891 0.126642
vn -0.014852 2.634892 5.698906
v -0.005000 0.004017 0.129658
vn 2.985979 1.713651 2.620864
v 0.003000 0.005469 0.128872
vn -0.041268 -1.426788 6.115251
v -0.005000 -0.002455 0.130194
vn -0.029621 -0.471407 6.260474
v -0.005000 -0.000826 0.130466
vn 6.273367 -0.101260 -0.226022
v 0.003000 -0.004017 0.111342
vn 6.272840 0.017051 -0.253669
v 0.003000 0.000826 0.110534
vn 6.270276 0.198697 -0.202923
v 0.003000 0.006773 0.113143
vn 6.245396 0.459331 -0.157657
v 0.003000 0.009458 0.117253
vn 0.431638 6.153697 1.043110
v 0.001628 0.009863 0.122146
vn 6.245675 -0.457339 -0.157800
v 0.003000 -0.009458 0.117253
vn -0.020388 -4.221117 4.649812
v -0.005000 -0.006773 0.127857
vn -0.042186 1.765325 6.025064
v -0.005000 0.002588 0.130159
vn -0.034356 4.189065 4.675881
v -0.005000 0.006773 0.127857
vn -0.013501 5.561818 2.917222
v -0.005000 0.008795 0.125259
vn -0.002756 5.075593 3.696124
v -0.005000 0.007891 0.126642
vn -0.015130 3.432235 5.259509
v -0.005000 0.005469 0.128872
# 102 vertices, 0 vertices normals

f 7//7 3//3 5//5
f 12//12 7//7 5//5
f 12//12 5//5 2//2
f 12//12 2//2 8//8
f 17//17 10//10 6//6
f 17//17 11//11 4//4
f 17//17 4//4 10//10
f 22//22 15//15 4//4
f 22//22 4//4 8//8
f 23//23 2//2 10//10
f 25//25 6//6 10//10
f 26//26 16//16 10//10
f 26//26 5//5 3//3
f 26//26 10//10 2//2
f 26//26 2//2 5//5
f 27//27 17//17 6//6
f 27//27 9//9 17//17
f 34//34 4//4 21//21
f 34//34 7//7 12//12
f 34//34 12//12 8//8
f 34//34 8//8 4//4
f 36//36 35//35 4//4
f 36//36 4//4 11//11
f 37//37 23//23 10//10
f 37//37 10//10 4//4
f 37//37 15//15 22//22
f 37//37 4//4 15//15
f 37//37 22//22 23//23
f 38//38 23//23 22//22
f 38//38 2//2 23//23
f 38//38 22//22 8//8
f 38//38 8//8 2//2
f 39//39 24//24 26//26
f 39//39 27//27 6//6
f 39//39 9//9 27//27
f 39//39 26//26 3//3
f 40//40 24//24 6//6
f 40//40 6//6 25//25
f 40//40 25//25 10//10
f 40//40 10//10 16//16
f 41//41 26//26 24//24
f 41//41 16//16 26//26
f 41//41 40//40 16//16
f 41//41 24//24 40//40
f 42//42 17//17 9//9
f 47//47 31//31 19//19
f 47//47 11//11 17//17
f 47//47 17//17 31//31
f 48//48 29//29 31//31
f 48//48 43//43 13//13
f 48//48 31//31 17//17
f 50//50 31//31 1//1
f 50//50 19//19 31//31
f 53//53 7//7 34//34
f 54//54 34//34 21//21
f 55//55 21//21 4//4
f 55//55 35//35 36//36
f 55//55 4//4 35//35
f 55//55 54//54 21//21
f 56//56 36//36 11//11
f 56//56 11//11 14//14
f 57//57 39//39 6//6
f 57//57 6//6 24//24
f 57//57 24//24 39//39
f 58//58 39//39 3//3
f 59//59 13//13 43//43
f 60//60 42//42 28//28
f 60//60 28//28 43//43
f 61//61 44//44 18//18
f 61//61 29//29 48//48
f 61//61 48//48 13//13
f 62//62 30//30 19//19
f 62//62 50//50 45//45
f 63//63 14//14 11//11
f 64//64 11//11 47//47
f 65//65 47//47 19//19
f 66//66 48//48 17//17
f 66//66 43//43 48//48
f 66//66 60//60 43//43
f 66//66 17//17 60//60
f 67//67 31//31 29//29
f 67//67 29//29 18//18
f 67//67 18//18 49//49
f 68//68 45//45 1//1
f 68//68 31//31 49//49
f 69//69 50//50 1//1
f 69//69 1//1 45//45
f 69//69 45//45 50//50
f 70//70 32//32 3//3
f 70//70 3//3 51//51
f 71//71 3//3 20//20
f 72//72 7//7 52//52
f 73//73 52//52 7//7
f 74//74 33//33 7//7
f 75//75 53//53 34//34
f 75//75 56//56 14//14
f 75//75 36//36 56//56
f 76//76 55//55 36//36
f 76//76 54//54 55//55
f 76//76 36//36 75//75
f 77//77 3//3 32//32
f 78//78 59//59 43//43
f 78//78 43//43 28//28
f 78//78 28//28 59//59
f 79//79 44//44 13//13
f 79//79 59//59 28//28
f 80//80 60//60 17//17
f 80//80 17//17 42//42
f 80//80 42//42 60//60
f 81//81 61//61 18//18
f 81//81 18//18 29//29
f 81//81 29//29 61//61
f 82//82 61//61 13//13
f 82//82 13//13 44//44
f 82//82 44//44 61//61
f 83//83 19//19 50//50
f 83//83 50//50 62//62
f 85//85 11//11 64//64
f 86//86 84//84 46//46
f 86//86 64//64 84//84
f 86//86 63//63 85//85
f 87//87 65//65 19//19
f 87//87 19//19 30//30
f 87//87 30//30 65//65
f 88//88 65//65 30//30
f 88//88 46//46 47//47
f 89//89 67//67 49//49
f 89//89 49//49 31//31
f 89//89 31//31 67//67
f 90//90 68//68 1//1
f 90//90 1//1 31//31
f 90//90 31//31 68//68
f 91//91 51//51 3//3
f 91//91 3//3 71//71
f 92//92 7//7 72//72
f 92//92 20//20 3//3
f 92//92 3//3 7//7
f 93//93 73//73 7//7
f 93//93 7//7 33//33
f 94//94 74//74 7//7
f 94//94 7//7 53//53
f 95//95 75//75 34//34
f 95//95 34//34 54//54
f 95//95 76//76 75//75
f 95//95 54//54 76//76
f 96//96 39//39 58//58
f 96//96 58//58 3//3
f 96//96 3//3 77//77
f 96//96 77//77 32//32
f 96//96 9//9 39//39
f 96//96 32//32 70//70
f 96//96 42//42 9//9
f 96//96 70//70 51//51
f 96//96 28//28 42//42
f 96//96 51//51 91//91
f 96//96 79//79 28//28
f 96//96 91//91 71//71
f 96//96 44//44 79//79
f 96//96 71//71 20//20
f 96//96 18//18 44//44
f 96//96 20//20 92//92
f 96//96 49//49 18//18
f 96//96 92//92 72//72
f 96//96 68//68 49//49
f 96//96 72//72 52//52
f 96//96 45//45 68//68
f 96//96 52//52 73//73
f 96//96 62//62 45//45
f 96//96 73//73 93//93
f 96//96 30//30 62//62
f 96//96 93//93 33//33
f 96//96 88//88 30//30
f 96//96 33//33 74//74
f 96//96 74//74 94//94
f 96//96 46//46 88//88
f 96//96 86//86 46//46
f 96//96 63//63 86//86
f 96//96 14//14 63//63
f 96//96 75//75 14//14
f 96//96 94//94 53//53
f 96//96 53//53 75//75
f 97//97 79//79 13//13
f 97//97 13//13 59//59
f 97//97 59//59 79//79
f 98//98 83//83 62//62
f 98//98 62//62 19//19
f 98//98 19//19 83//83
f 99//99 84//84 64//64
f 99//99 64//64 47//47
f 99//99 47//47 46//46
f 99//99 46//46 84//84
f 100//100 85//85 63//63
f 100//100 63//63 11//11
f 100//100 11//11 85//85
f 101//101 86//86 85//85
f 101//101 85//85 64//64
f 101//101 64//64 86//86
f 102//102 88//88 47//47
f 102//102 47//47 65//65
f 102//102 65//65 88//88
# 200 faces, 0 coords texture

# End of File
