####
#
# OBJ File Generated by Meshlab
#
####
# Object collision2.obj
#
# Vertices: 90
# Faces: 176
#
####
vn -2.178398 -1.200115 -1.968560
v 0.055569 -0.007197 -0.012915
vn 0.169914 2.698133 2.286797
v 0.060094 0.004782 0.020609
vn -0.079192 -2.556953 3.032618
v 0.059950 -0.009040 0.020872
vn 6.143362 -0.243919 -0.841867
v 0.066470 -0.002018 -0.000400
vn -2.225143 1.380094 2.025993
v 0.056497 0.002998 0.020710
vn 3.372877 -5.239384 -0.774881
v 0.063918 -0.008781 -0.000446
vn 5.992487 -0.247676 1.818590
v 0.064466 -0.001974 0.016837
vn -0.767868 5.783756 -1.217441
v 0.059168 0.003607 -0.011019
vn -3.679214 -1.749354 2.152207
v 0.056822 -0.007330 0.019708
vn -0.967981 -4.625784 -2.168010
v 0.057586 -0.008371 -0.012150
vn 4.518932 3.984063 0.550591
v 0.065315 0.003417 0.008485
vn 3.393511 0.972978 4.121689
v 0.062919 0.001167 0.020236
vn 5.946132 -1.536178 0.620010
v 0.066031 -0.005944 0.007538
vn -2.290179 1.901811 -2.034138
v 0.056576 0.002639 -0.012082
vn -1.702077 -5.193514 0.962487
v 0.059291 -0.009419 0.019254
vn 5.032130 -2.419928 -2.339330
v 0.063054 -0.005749 -0.010566
vn 1.980324 5.619341 -0.670349
v 0.063529 0.003856 -0.002455
vn 2.790504 -0.991820 4.365017
v 0.062120 -0.005993 0.020740
vn 3.986291 3.583921 2.149937
v 0.062520 0.003858 0.018776
vn 5.732736 1.668677 1.551080
v 0.064595 0.001517 0.015704
vn 5.813691 -1.891094 -0.986599
v 0.065702 -0.005980 -0.001106
vn 4.776584 -3.556003 0.848776
v 0.064682 -0.008503 0.009518
vn 6.188399 0.791656 0.423196
v 0.066355 0.000636 0.006886
vn 1.681297 -5.684861 -0.367676
v 0.064104 -0.009162 0.003212
vn 3.031510 -4.952162 -1.610458
v 0.061207 -0.008227 -0.009864
vn 2.730826 -0.370846 -4.286591
v 0.062278 -0.004018 -0.012927
vn 0.951778 6.038946 -0.685842
v 0.060502 0.003702 -0.009562
vn 1.126832 6.145468 -0.077267
v 0.063547 0.004164 0.007840
vn 2.327421 -1.448300 4.737374
v 0.060971 -0.007995 0.020821
vn 5.386355 -0.966628 2.758537
v 0.063292 -0.004272 0.019658
vn 3.395771 4.453658 0.751062
v 0.063799 0.004077 0.013825
vn 5.800961 0.572676 2.181245
v 0.064086 0.000302 0.018043
vn 5.604041 1.702157 2.006409
v 0.064046 0.001408 0.017629
vn 6.099061 -1.258237 -0.183877
v 0.066295 -0.005150 0.003179
vn 5.797887 -0.739634 -1.886068
v 0.064821 -0.003317 -0.007622
vn 5.084661 -3.007228 -1.619387
v 0.064167 -0.006780 -0.005980
vn 1.929242 -5.393096 0.730074
v 0.061379 -0.009435 0.017521
vn 5.380671 2.606268 -0.350547
v 0.066153 0.002385 0.002377
vn 5.983916 1.232007 0.835020
v 0.066060 0.001486 0.009264
vn 0.253115 -6.203769 -0.518811
v 0.059634 -0.008612 -0.009248
vn 4.644743 -3.630752 -0.660668
v 0.065118 -0.008253 0.001400
vn 1.987767 -1.915916 -3.982183
v 0.060977 -0.006817 -0.013020
vn -0.359136 0.490245 -6.243622
v 0.058116 -0.002931 -0.012785
vn 1.072897 2.901182 -3.155685
v 0.060588 0.003179 -0.012312
vn 0.524699 6.247552 -0.215762
v 0.063391 0.003960 -0.000023
vn 2.697222 5.236985 -0.431318
v 0.064713 0.003835 0.001728
vn 4.864650 -0.028932 3.645496
v 0.063294 -0.001682 0.019924
vn 6.009246 -0.684394 1.484706
v 0.065269 -0.003854 0.013714
vn 5.303642 -2.481916 2.016645
v 0.063123 -0.007243 0.017663
vn 2.227716 5.685810 0.573457
v 0.062381 0.004374 0.016768
vn 6.086094 0.324314 1.473365
v 0.065116 -0.000253 0.014336
vn 6.188916 0.136230 -0.023152
v 0.066752 -0.001127 0.003095
vn 5.957219 -1.281475 -1.337015
v 0.065558 -0.004523 -0.003568
vn 3.612924 -4.682143 -1.631374
v 0.061995 -0.008272 -0.008113
vn 3.578953 -3.920230 2.322319
v 0.061237 -0.008837 0.019816
vn 2.732387 -5.011852 0.126698
v 0.064340 -0.009165 0.006669
vn 5.658548 2.101778 -1.318611
v 0.065531 0.001881 -0.002366
vn 5.566533 2.601868 0.308953
v 0.065870 0.002805 0.006560
vn 6.112060 1.429643 0.251295
v 0.066112 0.002160 0.004703
vn 5.556442 2.513621 1.142341
v 0.065459 0.002505 0.010711
vn 1.233078 -4.245878 -2.892980
v 0.059831 -0.008169 -0.012316
vn 2.174589 -5.390622 -0.789607
v 0.063296 -0.008881 -0.002458
vn 5.432184 -2.839140 -0.004278
v 0.065546 -0.007732 0.004292
vn 5.191012 0.563061 -3.018662
v 0.063389 -0.001435 -0.011278
vn 3.638308 4.667066 -0.016740
v 0.065363 0.003602 0.004970
vn 4.316304 -0.897120 3.963618
v 0.062659 -0.004976 0.020418
vn 5.789845 0.085663 2.352114
v 0.063968 -0.000737 0.018442
vn 5.892093 -0.474074 2.109288
v 0.063859 -0.002796 0.018439
vn 5.958026 -1.291318 1.166516
v 0.065562 -0.005116 0.011442
vn 5.806083 -1.560465 1.733934
v 0.064513 -0.005192 0.015340
vn 6.164932 0.037872 1.120533
v 0.065908 -0.001086 0.010833
vn 6.002522 1.133735 1.344685
v 0.065492 0.001455 0.011893
vn 6.069769 1.132581 -0.722664
v 0.066404 0.000809 0.000852
vn 4.630242 -3.837878 1.459898
v 0.062965 -0.008582 0.015661
vn 3.038266 -5.167362 0.744474
v 0.063088 -0.009195 0.012994
vn 3.393862 -5.033114 -0.120189
v 0.064394 -0.009094 0.004540
vn 5.895045 0.879172 -1.747545
v 0.065146 -0.000838 -0.006186
vn 4.386292 3.535565 -1.643618
v 0.063762 0.002564 -0.007236
vn 4.905022 3.552413 -0.967424
v 0.065543 0.002628 -0.000480
vn 2.389982 -5.417634 -1.075740
v 0.062497 -0.008644 -0.005558
vn 4.186847 -4.436893 -1.390825
v 0.063319 -0.008471 -0.003867
vn 3.039940 1.727789 -4.144983
v 0.061812 0.001613 -0.012318
vn 5.427776 -2.710645 1.400658
v 0.064258 -0.007805 0.012844
vn 5.737832 -1.577091 2.006492
v 0.063449 -0.004727 0.018860
vn 6.216791 -0.242600 0.623699
v 0.066452 -0.002177 0.007107
vn 6.084891 0.481436 -1.331721
v 0.065918 -0.001018 -0.002998
vn 4.455356 3.571564 -1.503003
v 0.064313 0.002656 -0.005469
vn 5.060883 2.553787 -2.306492
v 0.063235 0.001753 -0.009575
vn 5.681291 2.025504 -1.703598
v 0.064962 0.002072 -0.004079
vn 5.293500 1.833241 -2.843403
v 0.062555 0.001349 -0.011116
# 90 vertices, 0 vertices normals

f 5//5 3//3 2//2
f 9//9 5//5 1//1
f 9//9 3//3 5//5
f 14//14 5//5 2//2
f 14//14 2//2 8//8
f 14//14 1//1 5//5
f 15//15 3//3 9//9
f 15//15 9//9 1//1
f 15//15 1//1 10//10
f 18//18 12//12 2//2
f 19//19 2//2 12//12
f 27//27 8//8 2//2
f 29//29 18//18 2//2
f 29//29 2//2 3//3
f 31//31 19//19 20//20
f 33//33 20//20 19//19
f 33//33 19//19 12//12
f 33//33 32//32 20//20
f 33//33 12//12 32//32
f 34//34 21//21 4//4
f 35//35 16//16 26//26
f 36//36 16//16 35//35
f 37//37 3//3 15//15
f 37//37 15//15 24//24
f 40//40 24//24 15//15
f 40//40 15//15 10//10
f 41//41 24//24 6//6
f 41//41 36//36 21//21
f 42//42 1//1 26//26
f 42//42 26//26 16//16
f 43//43 26//26 1//1
f 43//43 1//1 14//14
f 44//44 14//14 8//8
f 44//44 43//43 14//14
f 44//44 26//26 43//43
f 44//44 8//8 27//27
f 44//44 27//27 17//17
f 45//45 27//27 2//2
f 45//45 17//17 27//27
f 45//45 2//2 28//28
f 46//46 28//28 31//31
f 46//46 45//45 28//28
f 46//46 17//17 45//45
f 49//49 30//30 18//18
f 50//50 2//2 19//19
f 50//50 19//19 31//31
f 50//50 31//31 28//28
f 50//50 28//28 2//2
f 51//51 32//32 7//7
f 51//51 20//20 32//32
f 51//51 7//7 48//48
f 52//52 13//13 34//34
f 52//52 34//34 4//4
f 52//52 38//38 23//23
f 53//53 35//35 4//4
f 53//53 4//4 21//21
f 53//53 36//36 35//35
f 53//53 21//21 36//36
f 54//54 16//16 36//36
f 54//54 42//42 16//16
f 54//54 25//25 42//42
f 55//55 29//29 3//3
f 55//55 3//3 37//37
f 55//55 49//49 18//18
f 55//55 18//18 29//29
f 56//56 37//37 24//24
f 59//59 39//39 23//23
f 59//59 23//23 38//38
f 59//59 58//58 39//39
f 59//59 38//38 58//58
f 60//60 31//31 20//20
f 60//60 11//11 31//31
f 60//60 58//58 11//11
f 60//60 39//39 58//58
f 61//61 40//40 10//10
f 61//61 42//42 25//25
f 61//61 10//10 1//1
f 61//61 1//1 42//42
f 62//62 6//6 24//24
f 62//62 41//41 6//6
f 62//62 24//24 40//40
f 63//63 34//34 13//13
f 63//63 41//41 21//21
f 63//63 21//21 34//34
f 63//63 13//13 22//22
f 63//63 56//56 41//41
f 63//63 22//22 56//56
f 64//64 35//35 26//26
f 65//65 46//46 31//31
f 65//65 31//31 11//11
f 65//65 11//11 58//58
f 65//65 58//58 38//38
f 65//65 38//38 46//46
f 66//66 47//47 12//12
f 66//66 12//12 18//18
f 66//66 18//18 30//30
f 66//66 30//30 47//47
f 67//67 32//32 12//12
f 67//67 12//12 47//47
f 67//67 7//7 32//32
f 67//67 47//47 30//30
f 68//68 48//48 7//7
f 68//68 30//30 48//48
f 68//68 67//67 30//30
f 68//68 7//7 67//67
f 69//69 22//22 13//13
f 70//70 48//48 30//30
f 70//70 69//69 48//48
f 71//71 51//51 48//48
f 71//71 39//39 51//51
f 72//72 51//51 39//39
f 72//72 20//20 51//51
f 72//72 60//60 20//20
f 72//72 39//39 60//60
f 73//73 52//52 4//4
f 73//73 38//38 52//52
f 73//73 57//57 38//38
f 74//74 55//55 37//37
f 74//74 49//49 55//55
f 75//75 56//56 22//22
f 75//75 37//37 56//56
f 75//75 74//74 37//37
f 75//75 22//22 74//74
f 76//76 56//56 24//24
f 76//76 24//24 41//41
f 76//76 41//41 56//56
f 77//77 35//35 64//64
f 78//78 44//44 17//17
f 79//79 46//46 38//38
f 79//79 38//38 57//57
f 80//80 61//61 25//25
f 80//80 62//62 40//40
f 80//80 40//40 61//61
f 80//80 25//25 54//54
f 81//81 36//36 41//41
f 81//81 41//41 62//62
f 81//81 62//62 80//80
f 81//81 80//80 54//54
f 81//81 54//54 36//36
f 82//82 64//64 26//26
f 82//82 26//26 44//44
f 83//83 22//22 69//69
f 83//83 70//70 49//49
f 83//83 69//69 70//70
f 83//83 74//74 22//22
f 83//83 49//49 74//74
f 84//84 70//70 30//30
f 84//84 30//30 49//49
f 84//84 49//49 70//70
f 85//85 71//71 48//48
f 85//85 48//48 69//69
f 85//85 69//69 13//13
f 85//85 13//13 52//52
f 85//85 52//52 23//23
f 85//85 23//23 39//39
f 85//85 39//39 71//71
f 86//86 4//4 35//35
f 86//86 35//35 77//77
f 86//86 73//73 4//4
f 86//86 77//77 57//57
f 86//86 57//57 73//73
f 87//87 78//78 17//17
f 87//87 17//17 46//46
f 87//87 46//46 79//79
f 87//87 79//79 57//57
f 88//88 77//77 64//64
f 88//88 82//82 44//44
f 88//88 44//44 78//78
f 89//89 87//87 57//57
f 89//89 57//57 77//77
f 89//89 78//78 87//87
f 89//89 88//88 78//78
f 89//89 77//77 88//88
f 90//90 88//88 64//64
f 90//90 64//64 82//82
f 90//90 82//82 88//88
# 176 faces, 0 coords texture

# End of File
