####
#
# OBJ File Generated by Meshlab
#
####
# Object collision3.obj
#
# Vertices: 86
# Faces: 168
#
####
vn -2.460230 -0.324542 -3.072503
v 0.038466 -0.003054 -0.026062
vn 1.984988 -1.067736 1.317807
v 0.063054 -0.005749 -0.010566
vn 0.300148 2.935014 2.770513
v 0.059168 0.003607 -0.011019
vn 2.939202 0.301117 -5.364666
v 0.053481 -0.001824 -0.022189
vn -3.263956 -2.250437 2.252926
v 0.039032 -0.007205 -0.021844
vn 5.118888 1.279308 -3.210889
v 0.061924 -0.000580 -0.013659
vn -1.781159 2.513284 -1.786099
v 0.039077 0.004495 -0.024354
vn -1.226102 -1.883761 4.607528
v 0.056825 -0.006825 -0.010650
vn 1.759642 -5.067662 -3.008928
v 0.053539 -0.007681 -0.019145
vn 2.844835 3.813982 -3.348396
v 0.055876 0.002623 -0.018620
vn 2.615463 1.504907 1.559226
v 0.062555 0.001349 -0.011116
vn 4.362112 -2.242635 -3.629312
v 0.059983 -0.005122 -0.015884
vn -4.428718 0.665892 2.978709
v 0.038660 0.001776 -0.021741
vn 1.648378 1.564605 -5.816144
v 0.046429 0.000751 -0.024420
vn 0.418310 -5.064473 -2.405398
v 0.043418 -0.007992 -0.023105
vn 1.855877 -4.364108 0.801961
v 0.059831 -0.008169 -0.012316
vn 4.466275 1.537650 -4.083727
v 0.059414 -0.000518 -0.016853
vn 1.683769 5.461453 -1.228442
v 0.058321 0.003770 -0.013899
vn 4.128727 0.485749 0.902500
v 0.063389 -0.001435 -0.011278
vn 3.000122 -3.198055 -4.153550
v 0.054852 -0.006297 -0.019984
vn -6.002353 0.471157 -0.364578
v 0.038309 0.000694 -0.023868
vn -2.551417 2.877983 1.195624
v 0.039039 0.004607 -0.022535
vn -1.953684 1.122594 5.538460
v 0.057178 0.001575 -0.011071
vn 1.511117 -0.403614 -6.036698
v 0.046027 -0.002490 -0.024852
vn -1.393360 1.446227 -5.280690
v 0.039504 0.001847 -0.025510
vn 2.502977 2.313138 -5.161734
v 0.051129 0.001253 -0.022563
vn -2.148770 -2.117702 -1.277307
v 0.038554 -0.007405 -0.024314
vn -0.222812 -4.977855 2.254548
v 0.057586 -0.008371 -0.012150
vn 4.240102 -3.514074 -2.615006
v 0.060977 -0.006817 -0.013020
vn 1.668205 -5.211806 -1.706393
v 0.057231 -0.008306 -0.015235
vn 3.979487 1.283645 -4.607889
v 0.056533 -0.001143 -0.019797
vn 4.445482 2.479267 -3.525708
v 0.059828 0.001043 -0.015648
vn 4.919268 -0.082027 -3.659293
v 0.060787 -0.002387 -0.015690
vn 1.329958 5.056296 -2.899552
v 0.044797 0.003985 -0.022965
vn 3.181584 4.397708 -0.678697
v 0.060588 0.003179 -0.012312
vn 1.838082 -3.944215 -4.416314
v 0.049582 -0.006683 -0.022358
vn 0.137033 6.042812 0.040181
v 0.041810 0.004703 -0.021844
vn -2.972958 1.978408 5.156009
v 0.040431 0.003558 -0.021285
vn 2.023638 0.359201 -5.778326
v 0.049216 -0.001263 -0.024024
vn 0.881360 2.417565 -5.651350
v 0.040840 0.002857 -0.025014
vn 1.123073 0.519050 -6.099221
v 0.043668 -0.000602 -0.025332
vn -1.224549 -5.743608 1.040686
v 0.040737 -0.007897 -0.022061
vn 1.122196 -1.640465 -5.778064
v 0.043829 -0.004607 -0.025116
vn 3.618591 -3.422432 -3.704347
v 0.057302 -0.006336 -0.017647
vn 2.521172 -4.721782 -3.122083
v 0.055066 -0.007584 -0.018248
vn 0.638311 -5.671549 -1.659183
v 0.048036 -0.008145 -0.021085
vn 3.374897 -4.374270 -2.889915
v 0.059019 -0.007791 -0.014062
vn 4.115727 1.921914 -4.330998
v 0.058402 0.000158 -0.017548
vn 3.428726 1.835974 -4.884513
v 0.054137 0.000022 -0.021264
vn 3.806654 -1.325733 -4.756042
v 0.055664 -0.003449 -0.020520
vn 4.760526 2.864179 -2.702487
v 0.061812 0.001613 -0.012318
vn 4.364454 -0.078235 -4.335513
v 0.059016 -0.002369 -0.017729
vn 5.297461 -1.169160 -3.014729
v 0.062278 -0.004018 -0.012927
vn 1.694449 5.051443 -3.039521
v 0.050893 0.003198 -0.021050
vn 3.807832 3.150952 -3.597023
v 0.058069 0.002012 -0.016970
vn 2.564447 -2.167626 -5.210466
v 0.051744 -0.005075 -0.022423
vn 2.866498 1.791477 -5.239489
v 0.052418 0.000429 -0.022183
vn 2.180891 1.844332 -5.561778
v 0.049820 0.000917 -0.023225
vn 1.303750 3.787740 -4.660207
v 0.041469 0.003827 -0.024340
vn 0.268928 0.608611 -6.197481
v 0.039679 -0.000658 -0.025845
vn 1.304372 1.945817 -5.752766
v 0.043683 0.001669 -0.024874
vn -0.522643 -5.950922 -1.404892
v 0.039858 -0.007666 -0.023765
vn 0.743584 -3.635124 -4.966156
v 0.041433 -0.007180 -0.024177
vn -0.137059 -2.382186 -5.632337
v 0.039490 -0.005743 -0.025230
vn 0.916529 -0.590283 -6.177982
v 0.041577 -0.003830 -0.025532
vn 1.196924 -5.828099 -2.004031
v 0.055777 -0.008224 -0.016344
vn 1.701045 -4.933242 -3.446091
v 0.050219 -0.007620 -0.020916
vn 3.954129 2.015942 -4.445591
v 0.057571 0.000077 -0.018334
vn 3.705312 1.230378 -4.908757
v 0.055304 -0.001518 -0.020858
vn 4.098437 -1.564530 -4.422740
v 0.057923 -0.003956 -0.018416
vn 4.610385 0.853098 -4.126611
v 0.059598 -0.001800 -0.017023
vn 1.220575 5.918189 -1.665159
v 0.051300 0.003787 -0.019038
vn 2.528825 3.838156 -3.588233
v 0.053785 0.002601 -0.020284
vn 1.957464 3.360633 -4.760768
v 0.049034 0.002225 -0.022956
vn 2.136091 -2.936599 -5.022866
v 0.050614 -0.005773 -0.022588
vn 2.469454 -1.044080 -5.621778
v 0.051647 -0.003729 -0.022837
vn 3.171166 -1.780162 -5.071494
v 0.054025 -0.004537 -0.021316
vn 1.649652 3.269789 -5.014182
v 0.046020 0.002556 -0.023797
vn 1.229677 -3.541090 -4.982100
v 0.044737 -0.007026 -0.023602
vn 1.397219 -4.596287 -3.953704
v 0.047239 -0.007430 -0.022500
vn 3.499263 -0.125075 -5.008345
v 0.054993 -0.002339 -0.021269
vn 1.819133 2.405735 -5.493892
v 0.047481 0.001857 -0.023673
vn 1.809351 -1.864908 -5.623939
v 0.048691 -0.004970 -0.023625
vn 1.473222 -2.879447 -5.359324
v 0.046451 -0.005911 -0.023832
vn 1.614581 -3.748127 -4.702848
v 0.048259 -0.006867 -0.022688
vn 1.615356 2.381963 -5.579949
v 0.045021 0.001837 -0.024418
# 86 vertices, 0 vertices normals

f 8//8 2//2 3//3
f 11//11 3//3 2//2
f 13//13 5//5 8//8
f 19//19 11//11 2//2
f 19//19 6//6 11//11
f 21//21 7//7 1//1
f 22//22 21//21 13//13
f 22//22 7//7 21//21
f 23//23 13//13 8//8
f 23//23 8//8 3//3
f 23//23 3//3 22//22
f 25//25 1//1 7//7
f 27//27 21//21 1//1
f 27//27 5//5 13//13
f 27//27 13//13 21//21
f 28//28 16//16 2//2
f 28//28 2//2 8//8
f 28//28 8//8 5//5
f 29//29 12//12 2//2
f 29//29 2//2 16//16
f 30//30 16//16 28//28
f 32//32 6//6 17//17
f 33//33 17//17 6//6
f 33//33 6//6 19//19
f 35//35 18//18 3//3
f 35//35 3//3 11//11
f 35//35 10//10 18//18
f 36//36 20//20 9//9
f 37//37 7//7 22//22
f 37//37 22//22 3//3
f 37//37 3//3 18//18
f 37//37 34//34 7//7
f 37//37 18//18 34//34
f 38//38 23//23 22//22
f 38//38 22//22 13//13
f 38//38 13//13 23//23
f 40//40 25//25 7//7
f 41//41 39//39 24//24
f 41//41 14//14 39//39
f 42//42 5//5 27//27
f 42//42 28//28 5//5
f 44//44 20//20 12//12
f 44//44 12//12 29//29
f 45//45 30//30 9//9
f 45//45 9//9 20//20
f 45//45 44//44 30//30
f 45//45 20//20 44//44
f 46//46 30//30 28//28
f 46//46 42//42 15//15
f 46//46 28//28 42//42
f 47//47 29//29 16//16
f 47//47 16//16 30//30
f 47//47 44//44 29//29
f 47//47 30//30 44//44
f 48//48 17//17 31//31
f 49//49 10//10 31//31
f 51//51 11//11 6//6
f 51//51 6//6 32//32
f 51//51 35//35 11//11
f 51//51 32//32 35//35
f 52//52 33//33 12//12
f 53//53 33//33 19//19
f 53//53 19//19 2//2
f 53//53 2//2 12//12
f 53//53 12//12 33//33
f 54//54 18//18 10//10
f 55//55 35//35 32//32
f 55//55 10//10 35//35
f 55//55 32//32 17//17
f 55//55 17//17 48//48
f 57//57 39//39 26//26
f 57//57 4//4 39//39
f 57//57 49//49 4//4
f 58//58 39//39 14//14
f 58//58 26//26 39//39
f 59//59 40//40 7//7
f 59//59 7//7 34//34
f 60//60 41//41 1//1
f 60//60 1//1 25//25
f 60//60 25//25 41//41
f 61//61 14//14 41//41
f 61//61 41//41 25//25
f 61//61 25//25 40//40
f 62//62 42//42 27//27
f 62//62 27//27 15//15
f 62//62 15//15 42//42
f 63//63 15//15 27//27
f 64//64 27//27 1//1
f 64//64 1//1 43//43
f 64//64 63//63 27//27
f 64//64 43//43 63//63
f 65//65 41//41 24//24
f 65//65 24//24 43//43
f 65//65 43//43 1//1
f 65//65 1//1 41//41
f 66//66 46//46 9//9
f 66//66 9//9 30//30
f 66//66 30//30 46//46
f 67//67 36//36 9//9
f 67//67 9//9 46//46
f 68//68 48//48 31//31
f 68//68 31//31 10//10
f 68//68 55//55 48//48
f 68//68 10//10 55//55
f 69//69 49//49 31//31
f 69//69 4//4 49//49
f 70//70 12//12 20//20
f 70//70 20//20 50//50
f 70//70 52//52 12//12
f 70//70 50//50 52//52
f 71//71 52//52 31//31
f 71//71 31//31 17//17
f 71//71 17//17 33//33
f 71//71 33//33 52//52
f 72//72 54//54 34//34
f 72//72 34//34 18//18
f 72//72 18//18 54//54
f 73//73 54//54 10//10
f 73//73 57//57 26//26
f 73//73 10//10 49//49
f 73//73 49//49 57//57
f 74//74 34//34 54//54
f 74//74 73//73 26//26
f 74//74 54//54 73//73
f 74//74 26//26 58//58
f 75//75 56//56 20//20
f 75//75 20//20 36//36
f 76//76 39//39 4//4
f 77//77 50//50 20//20
f 77//77 20//20 56//56
f 77//77 56//56 76//76
f 78//78 61//61 40//40
f 78//78 40//40 59//59
f 78//78 59//59 34//34
f 78//78 34//34 74//74
f 79//79 63//63 43//43
f 79//79 15//15 63//63
f 80//80 67//67 46//46
f 80//80 46//46 15//15
f 80//80 36//36 67//67
f 80//80 15//15 79//79
f 81//81 4//4 69//69
f 81//81 52//52 50//50
f 81//81 50//50 77//77
f 81//81 69//69 31//31
f 81//81 31//31 52//52
f 81//81 77//77 76//76
f 81//81 76//76 4//4
f 82//82 74//74 58//58
f 82//82 58//58 14//14
f 82//82 78//78 74//74
f 83//83 56//56 75//75
f 83//83 76//76 56//56
f 83//83 43//43 24//24
f 83//83 24//24 39//39
f 83//83 39//39 76//76
f 84//84 83//83 75//75
f 84//84 79//79 43//43
f 84//84 43//43 83//83
f 85//85 80//80 79//79
f 85//85 36//36 80//80
f 85//85 79//79 84//84
f 85//85 84//84 75//75
f 85//85 75//75 36//36
f 86//86 82//82 14//14
f 86//86 14//14 61//61
f 86//86 61//61 78//78
f 86//86 78//78 82//82
# 168 faces, 0 coords texture

# End of File
