####
#
# OBJ File Generated by Meshlab
#
####
# Object inner_knuckle.obj
#
# Vertices: 139
# Faces: 274
#
####
vn 3.010679 -0.164058 -3.130572
v 0.019500 -0.000314 -0.005992
vn -2.776203 0.227502 4.318062
v -0.012000 0.037430 0.049449
vn -3.010680 -2.583524 -1.775608
v -0.019500 -0.004945 -0.003398
vn 3.076132 -2.453066 1.959983
v 0.019500 -0.004562 0.003897
vn -0.798697 4.864144 -3.778708
v -0.012000 0.041678 0.039561
vn 3.010696 -2.955052 -1.046448
v 0.019500 -0.005656 -0.002003
vn -3.076132 -2.453064 1.959982
v -0.019500 -0.004562 0.003897
vn 2.776364 3.853191 1.961812
v 0.012000 0.042462 0.046181
vn -3.010708 2.097638 -2.329666
v -0.019500 0.004015 -0.004459
vn 3.010673 -2.035927 -2.383774
v 0.019500 -0.003897 -0.004562
vn 3.117833 2.593023 -1.719996
v 0.016947 0.027637 0.023120
vn -2.776364 3.853190 1.961811
v -0.012000 0.042462 0.046181
vn -3.010679 -0.164058 -3.130572
v -0.019500 -0.000314 -0.005992
vn 3.010680 -2.583528 -1.775611
v 0.019500 -0.004945 -0.003398
vn -3.117340 -2.104498 2.292047
v -0.016947 0.018512 0.030913
vn 2.776218 -0.898143 4.230066
v 0.012000 0.035868 0.049326
vn 3.010698 -3.082372 0.571288
v 0.019500 -0.005900 0.001093
vn -3.010680 -3.130572 0.164058
v -0.019500 -0.005992 0.000314
vn 3.135385 2.412134 -1.874534
v 0.019500 0.009256 0.001599
vn 1.937497 4.677249 -2.887091
v 0.012000 0.042148 0.040189
vn -3.117819 2.593041 -1.720010
v -0.016947 0.027637 0.023120
vn -3.010696 1.046449 -2.955055
v -0.019500 0.002003 -0.005656
vn -3.010687 -1.349606 -2.829481
v -0.019500 -0.002583 -0.005416
vn 0.000000 -2.886467 -1.240128
v -0.012000 -0.005346 -0.002724
vn 0.000000 -2.192191 -2.250312
v -0.012000 -0.004459 -0.004015
vn 3.117340 -2.104498 2.292047
v 0.016947 0.018512 0.030913
vn -1.937507 -3.583207 4.168038
v -0.012000 0.033101 0.047916
vn -5.961387 0.876742 1.510590
v -0.013500 0.038355 0.045629
vn 3.010713 -3.125207 -0.245957
v 0.019500 -0.005981 -0.000471
vn 3.010708 2.097635 -2.329662
v 0.019500 0.004015 -0.004459
vn 0.000059 4.777780 -4.080593
v 0.012532 0.030919 0.026963
vn 5.917438 1.986814 0.142136
v 0.013500 0.039613 0.043575
vn -2.776331 4.318436 -0.227140
v -0.012000 0.043108 0.043143
vn -2.776536 2.356229 3.624832
v -0.012000 0.040384 0.048489
vn 2.776457 1.860050 3.903169
v 0.012000 0.039699 0.048873
vn -3.076137 2.319603 -2.116253
v -0.019500 0.004562 -0.003897
vn 3.010700 -2.793193 -1.423194
v 0.019500 -0.005346 -0.002724
vn -3.010678 -3.066362 -0.651766
v -0.019500 -0.005869 -0.001247
vn 3.010708 -2.329664 -2.097637
v 0.019500 -0.004459 -0.004015
vn -3.010673 -2.035930 -2.383778
v -0.019500 -0.003897 -0.004562
vn 0.798751 -4.492923 4.213026
v 0.012000 0.032554 0.047354
vn 3.135373 -2.228796 2.089195
v 0.019500 0.000132 0.009393
vn -0.798751 -4.492923 4.213025
v -0.012000 0.032554 0.047354
vn -2.768074 -1.428041 4.102483
v -0.012000 0.035113 0.049113
vn -5.962770 1.204432 1.250984
v -0.013500 0.038856 0.045252
vn 3.010687 -2.829481 1.349606
v 0.019500 -0.005416 0.002583
vn -3.010691 -2.981435 0.968727
v -0.019500 -0.005706 0.001854
vn 3.010680 -3.130572 0.164058
v 0.019500 -0.005992 0.000314
vn 2.128289 4.416720 -3.148508
v 0.016788 0.028100 0.023662
vn 0.798690 4.864146 -3.778709
v 0.012000 0.041678 0.039561
vn 2.776331 4.318435 -0.227140
v 0.012000 0.043108 0.043143
vn 5.962770 1.204432 1.250985
v 0.013500 0.038856 0.045252
vn -2.466568 4.458697 -2.029208
v -0.012000 0.042532 0.040874
vn -2.776427 1.337507 4.111707
v -0.012000 0.038970 0.049164
vn 2.776203 0.227502 4.318061
v 0.012000 0.037430 0.049449
vn 3.076137 2.319605 -2.116255
v 0.019500 0.004562 -0.003897
vn -0.000060 4.777779 -4.080593
v -0.012532 0.030919 0.026963
vn -3.135373 -2.228796 2.089195
v -0.019500 0.000132 0.009393
vn -3.010677 0.651766 -3.066362
v -0.019500 0.001247 -0.005869
vn 3.010696 1.046449 -2.955055
v 0.019500 0.002003 -0.005656
vn -3.010691 -0.968728 -2.981440
v -0.019500 -0.001854 -0.005706
vn 3.010691 -0.968727 -2.981435
v 0.019500 -0.001854 -0.005706
vn -3.010696 -2.955058 -1.046451
v -0.019500 -0.005656 -0.002003
vn -3.010713 -3.125207 -0.245957
v -0.019500 -0.005981 -0.000471
vn 3.010678 -3.066367 -0.651767
v 0.019500 -0.005869 -0.001247
vn -3.010708 -2.329664 -2.097637
v -0.019500 -0.004459 -0.004015
vn 2.466967 -2.701726 4.086590
v 0.012000 0.033717 0.048402
vn 0.000303 -4.777761 4.080613
v 0.019322 0.000990 0.010397
vn -2.132342 -3.803191 3.873295
v -0.016788 0.018975 0.031455
vn -2.466966 -2.701727 4.086591
v -0.012000 0.033717 0.048402
vn -2.776218 -0.898143 4.230064
v -0.012000 0.035868 0.049326
vn -5.917438 1.986814 0.142136
v -0.013500 0.039613 0.043575
vn -2.776438 3.214019 2.891835
v -0.012000 0.041575 0.047472
vn -2.776703 2.806468 3.288704
v -0.012000 0.041013 0.048020
vn -3.010698 -3.082377 0.571289
v -0.019500 -0.005900 0.001093
vn -3.010687 -2.829481 1.349605
v -0.019500 -0.005416 0.002583
vn 3.010691 -2.981440 0.968728
v 0.019500 -0.005706 0.001854
vn -3.010680 1.775608 -2.583524
v -0.019500 0.003398 -0.004945
vn 0.000499 4.777809 -4.080576
v 0.019322 0.010114 0.002604
vn 2.466568 4.458698 -2.029209
v 0.012000 0.042532 0.040874
vn 2.776394 4.229875 0.898210
v 0.012000 0.042985 0.044705
vn 5.852917 2.247561 -0.264056
v 0.013500 0.039564 0.042950
vn 5.958109 1.500099 0.939770
v 0.013500 0.039248 0.044764
vn 5.890414 -0.415326 2.068388
v 0.013500 0.036532 0.045888
vn 2.776438 3.214018 2.891834
v 0.012000 0.041575 0.047472
vn -1.937495 4.677254 -2.887091
v -0.012000 0.042148 0.040189
vn -2.767981 4.276031 -0.767352
v -0.012000 0.043015 0.042364
vn -2.776457 1.860051 3.903172
v -0.012000 0.039699 0.048873
vn -5.953295 0.497458 1.732638
v -0.013500 0.037776 0.045869
vn 0.000000 -0.000000 -0.000000
v -0.007500 0.038209 0.049357
vn -0.000503 4.777800 -4.080568
v -0.019322 0.010114 0.002604
vn -2.128359 4.416690 -3.148516
v -0.016788 0.028100 0.023662
vn -0.000303 -4.777760 4.080613
v -0.019322 0.000990 0.010397
vn 3.010713 0.245957 -3.125205
v 0.019500 0.000471 -0.005981
vn -3.010713 0.245957 -3.125210
v -0.019500 0.000471 -0.005981
vn 3.010680 1.775611 -2.583528
v 0.019500 0.003398 -0.004945
vn -3.010698 -0.571288 -3.082372
v -0.019500 -0.001093 -0.005900
vn -3.010700 -2.793193 -1.423194
v -0.019500 -0.005346 -0.002724
vn -3.010711 -1.707364 -2.629126
v -0.019500 -0.003268 -0.005032
vn 3.010687 -1.349605 -2.829481
v 0.019500 -0.002583 -0.005416
vn 1.937510 -3.583204 4.168036
v 0.012000 0.033101 0.047916
vn 2.768074 -1.428042 4.102483
v 0.012000 0.035113 0.049113
vn -2.696166 -1.988704 4.040636
v -0.012000 0.034392 0.048803
vn -5.958109 1.500099 0.939770
v -0.013500 0.039248 0.044764
vn -2.776394 4.229876 0.898211
v -0.012000 0.042985 0.044705
vn 3.010711 -2.629126 1.707364
v 0.019500 -0.005032 0.003268
vn -3.010711 -2.629130 1.707367
v -0.019500 -0.005032 0.003268
vn 2.767981 4.276031 -0.767352
v 0.012000 0.043015 0.042364
vn 2.776062 4.310730 0.340261
v 0.012000 0.043097 0.043928
vn 5.946064 1.756519 0.570742
v 0.013500 0.039505 0.044192
vn 5.953295 0.497459 1.732637
v 0.013500 0.037776 0.045869
vn 2.776285 -0.340200 4.310855
v 0.012000 0.036645 0.049439
vn 2.776536 2.356229 3.624832
v 0.012000 0.040384 0.048489
vn 2.776535 3.562319 2.450229
v 0.012000 0.042061 0.046856
vn -2.696142 4.301782 -1.331873
v -0.012000 0.042822 0.041603
vn -5.852917 2.247561 -0.264056
v -0.013500 0.039564 0.042950
vn -2.776384 0.786976 4.251819
v -0.012000 0.038209 0.049357
vn -5.934978 0.067234 1.906317
v -0.013500 0.037155 0.045957
vn 2.776427 1.337508 4.111709
v 0.012000 0.038970 0.049164
vn -3.135385 2.412139 -1.874539
v -0.019500 0.009256 0.001599
vn 3.010677 0.651767 -3.066367
v 0.019500 0.001247 -0.005869
vn 3.010698 -0.571289 -3.082377
v 0.019500 -0.001093 -0.005900
vn 3.010711 -1.707367 -2.629130
v 0.019500 -0.003268 -0.005032
vn 2.132416 -3.803130 3.873257
v 0.016788 0.018975 0.031455
vn 2.696166 -1.988704 4.040636
v 0.012000 0.034392 0.048803
vn -2.776285 -0.340200 4.310857
v -0.012000 0.036645 0.049439
vn -5.946064 1.756519 0.570742
v -0.013500 0.039505 0.044192
vn -2.776535 3.562320 2.450229
v -0.012000 0.042061 0.046856
vn -2.776062 4.310730 0.340261
v -0.012000 0.043097 0.043928
vn 2.696142 4.301781 -1.331873
v 0.012000 0.042822 0.041603
vn 2.776340 4.075513 1.444510
v 0.012000 0.042772 0.045460
vn 5.934978 0.067235 1.906317
v 0.013500 0.037155 0.045957
vn 5.961387 0.876742 1.510590
v 0.013500 0.038355 0.045629
vn 2.776703 2.806471 3.288707
v 0.012000 0.041013 0.048020
vn -5.890414 -0.415326 2.068388
v -0.013500 0.036532 0.045888
vn 2.776384 0.786976 4.251819
v 0.012000 0.038209 0.049357
vn 3.010702 1.423193 -2.793190
v 0.019500 0.002724 -0.005346
vn -3.010702 1.423195 -2.793195
v -0.019500 0.002724 -0.005346
vn -2.776340 4.075513 1.444510
v -0.012000 0.042772 0.045460
# 139 vertices, 0 vertices normals

f 26//26 15//15 7//7
f 26//26 7//7 4//4
f 40//40 39//39 25//25
f 40//40 10//10 39//39
f 42//42 19//19 11//11
f 42//42 11//11 26//26
f 43//43 41//41 27//27
f 43//43 15//15 26//26
f 43//43 26//26 41//41
f 45//45 21//21 15//15
f 45//45 15//15 28//28
f 48//48 18//18 29//29
f 50//50 49//49 31//31
f 50//50 20//20 49//49
f 52//52 26//26 11//11
f 56//56 30//30 9//9
f 56//56 9//9 36//36
f 57//57 50//50 31//31
f 57//57 5//5 50//50
f 57//57 56//56 36//36
f 57//57 31//31 56//56
f 58//58 15//15 21//21
f 63//63 24//24 37//37
f 63//63 37//37 6//6
f 64//64 29//29 18//18
f 65//65 63//63 6//6
f 65//65 38//38 63//63
f 65//65 64//64 38//38
f 65//65 29//29 64//64
f 66//66 25//25 39//39
f 66//66 40//40 25//25
f 66//66 39//39 14//14
f 66//66 14//14 3//3
f 68//68 42//42 26//26
f 68//68 26//26 4//4
f 68//68 4//4 42//42
f 69//69 43//43 27//27
f 69//69 15//15 43//43
f 70//70 69//69 27//27
f 70//70 15//15 69//69
f 74//74 45//45 28//28
f 74//74 28//28 34//34
f 74//74 73//73 45//45
f 75//75 18//18 48//48
f 75//75 48//48 17//17
f 77//77 47//47 75//75
f 77//77 76//76 47//47
f 77//77 46//46 76//76
f 77//77 75//75 17//17
f 79//79 31//31 49//49
f 79//79 49//49 11//11
f 79//79 11//11 19//19
f 79//79 56//56 31//31
f 79//79 19//19 56//56
f 80//80 49//49 20//20
f 80//80 11//11 49//49
f 82//82 51//51 32//32
f 82//82 32//32 11//11
f 83//83 52//52 11//11
f 85//85 52//52 83//83
f 86//86 80//80 20//20
f 86//86 53//53 80//80
f 86//86 50//50 5//5
f 86//86 20//20 50//50
f 88//88 34//34 28//28
f 89//89 88//88 28//28
f 89//89 54//54 88//88
f 89//89 28//28 15//15
f 91//91 57//57 36//36
f 92//92 5//5 57//57
f 92//92 57//57 91//91
f 92//92 86//86 5//5
f 92//92 21//21 53//53
f 92//92 53//53 86//86
f 93//93 58//58 7//7
f 93//93 7//7 15//15
f 93//93 15//15 58//58
f 95//95 94//94 1//1
f 95//95 1//1 13//13
f 96//96 78//78 9//9
f 96//96 9//9 30//30
f 98//98 24//24 63//63
f 98//98 37//37 24//24
f 98//98 3//3 14//14
f 98//98 14//14 37//37
f 100//100 23//23 61//61
f 100//100 61//61 62//62
f 101//101 27//27 41//41
f 101//101 70//70 27//27
f 101//101 67//67 70//70
f 102//102 84//84 16//16
f 102//102 26//26 84//84
f 102//102 71//71 44//44
f 102//102 16//16 71//71
f 103//103 44//44 15//15
f 103//103 15//15 70//70
f 104//104 21//21 45//45
f 104//104 45//45 73//73
f 107//107 76//76 46//46
f 107//107 46//46 106//106
f 107//107 106//106 4//4
f 107//107 4//4 7//7
f 108//108 82//82 11//11
f 108//108 51//51 82//82
f 108//108 87//87 33//33
f 108//108 33//33 51//51
f 109//109 81//81 32//32
f 109//109 32//32 51//51
f 110//110 83//83 11//11
f 110//110 11//11 32//32
f 110//110 32//32 81//81
f 110//110 8//8 83//83
f 112//112 16//16 84//84
f 113//113 88//88 35//35
f 113//113 34//34 88//88
f 114//114 85//85 83//83
f 114//114 83//83 8//8
f 115//115 53//53 21//21
f 115//115 21//21 87//87
f 116//116 72//72 33//33
f 116//116 33//33 87//87
f 116//116 87//87 21//21
f 116//116 21//21 72//72
f 117//117 54//54 89//89
f 118//118 117//117 89//89
f 118//118 2//2 117//117
f 118//118 89//89 15//15
f 119//119 111//111 35//35
f 119//119 54//54 90//90
f 119//119 88//88 54//54
f 119//119 35//35 88//88
f 120//120 58//58 21//21
f 120//120 91//91 36//36
f 120//120 92//92 91//91
f 120//120 21//21 92//92
f 121//121 94//94 95//95
f 121//121 95//95 59//59
f 121//121 59//59 22//22
f 121//121 22//22 60//60
f 122//122 97//97 13//13
f 122//122 13//13 1//1
f 122//122 62//62 61//61
f 122//122 61//61 97//97
f 123//123 10//10 40//40
f 123//123 40//40 99//99
f 123//123 99//99 23//23
f 123//123 23//23 100//100
f 124//124 101//101 41//41
f 124//124 41//41 26//26
f 124//124 26//26 67//67
f 124//124 67//67 101//101
f 125//125 67//67 26//26
f 125//125 26//26 102//102
f 125//125 103//103 70//70
f 125//125 70//70 67//67
f 125//125 102//102 44//44
f 125//125 44//44 103//103
f 126//126 2//2 118//118
f 126//126 112//112 55//55
f 126//126 55//55 2//2
f 126//126 71//71 16//16
f 126//126 16//16 112//112
f 127//127 72//72 21//21
f 127//127 21//21 104//104
f 127//127 105//105 72//72
f 127//127 104//104 12//12
f 128//128 104//104 73//73
f 128//128 12//12 104//104
f 128//128 114//114 8//8
f 128//128 8//8 12//12
f 128//128 73//73 85//85
f 128//128 85//85 114//114
f 129//129 33//33 72//72
f 129//129 72//72 105//105
f 129//129 109//109 51//51
f 129//129 51//51 33//33
f 129//129 105//105 81//81
f 129//129 81//81 109//109
f 130//130 108//108 11//11
f 130//130 11//11 80//80
f 130//130 115//115 87//87
f 130//130 87//87 108//108
f 130//130 80//80 53//53
f 130//130 53//53 115//115
f 131//131 110//110 81//81
f 131//131 8//8 110//110
f 132//132 84//84 26//26
f 132//132 26//26 111//111
f 132//132 112//112 84//84
f 132//132 55//55 112//112
f 133//133 111//111 26//26
f 133//133 26//26 52//52
f 133//133 113//113 35//35
f 133//133 35//35 111//111
f 134//134 52//52 85//85
f 134//134 133//133 52//52
f 134//134 113//113 133//133
f 134//134 85//85 73//73
f 134//134 73//73 74//74
f 134//134 74//74 34//34
f 134//134 34//34 113//113
f 135//135 44//44 71//71
f 135//135 118//118 15//15
f 135//135 15//15 44//44
f 135//135 126//126 118//118
f 135//135 71//71 126//126
f 136//136 90//90 54//54
f 136//136 119//119 90//90
f 136//136 111//111 119//119
f 136//136 117//117 2//2
f 136//136 2//2 55//55
f 136//136 54//54 117//117
f 136//136 132//132 111//111
f 136//136 55//55 132//132
f 137//137 121//121 60//60
f 137//137 96//96 30//30
f 137//137 94//94 121//121
f 137//137 30//30 56//56
f 137//137 1//1 94//94
f 137//137 56//56 19//19
f 137//137 122//122 1//1
f 137//137 19//19 42//42
f 137//137 62//62 122//122
f 137//137 42//42 4//4
f 137//137 123//123 100//100
f 137//137 100//100 62//62
f 137//137 4//4 106//106
f 137//137 106//106 46//46
f 137//137 46//46 77//77
f 137//137 77//77 17//17
f 137//137 17//17 48//48
f 137//137 48//48 29//29
f 137//137 29//29 65//65
f 137//137 65//65 6//6
f 137//137 6//6 37//37
f 137//137 37//37 14//14
f 137//137 14//14 39//39
f 137//137 39//39 10//10
f 137//137 10//10 123//123
f 138//138 137//137 60//60
f 138//138 60//60 22//22
f 138//138 78//78 96//96
f 138//138 9//9 78//78
f 138//138 22//22 59//59
f 138//138 96//96 137//137
f 138//138 120//120 36//36
f 138//138 36//36 9//9
f 138//138 59//59 95//95
f 138//138 95//95 13//13
f 138//138 13//13 97//97
f 138//138 97//97 61//61
f 138//138 61//61 23//23
f 138//138 23//23 99//99
f 138//138 99//99 40//40
f 138//138 40//40 66//66
f 138//138 66//66 3//3
f 138//138 3//3 98//98
f 138//138 98//98 63//63
f 138//138 63//63 38//38
f 138//138 38//38 64//64
f 138//138 64//64 18//18
f 138//138 18//18 75//75
f 138//138 75//75 47//47
f 138//138 47//47 76//76
f 138//138 76//76 107//107
f 138//138 107//107 7//7
f 138//138 7//7 58//58
f 138//138 58//58 120//120
f 139//139 127//127 12//12
f 139//139 105//105 127//127
f 139//139 131//131 81//81
f 139//139 81//81 105//105
f 139//139 12//12 8//8
f 139//139 8//8 131//131
# 274 faces, 0 coords texture

# End of File
