####
#
# OBJ File Generated by Meshlab
#
####
# Object outer_knuckle.obj
#
# Vertices: 212
# Faces: 420
#
####
vn 2.983392 -3.777426 0.021908
v 0.005500 -0.007500 0.000051
vn -2.579448 4.754320 -0.083717
v -0.004500 0.038772 0.005730
vn 2.722551 1.153044 -4.349616
v 0.004500 0.033025 -0.009885
vn 5.245833 0.437990 2.281489
v 0.012000 0.025221 0.008824
vn -2.897733 -1.171056 -3.930482
v -0.005500 -0.002102 -0.007199
vn -1.377187 -1.006659 5.839989
v -0.004500 0.023690 0.012750
vn 2.570701 4.748415 0.447115
v 0.004500 0.038746 0.006403
vn 2.864584 -0.826436 -4.116374
v 0.005500 -0.001429 -0.007363
vn -2.721945 1.613586 -4.202073
v -0.004500 0.033638 -0.009686
vn 2.164718 -1.498168 5.106775
v 0.005500 -0.002003 0.007228
vn -5.247224 0.991829 2.099571
v -0.012000 0.025697 0.008668
vn 2.687852 4.294414 -1.561768
v 0.004500 0.037134 -0.006109
vn 1.690790 1.429400 5.525171
v 0.004500 0.034206 0.011658
vn 6.187407 -0.541824 -0.542011
v 0.012000 0.023377 0.005497
vn -2.733920 -0.163361 -4.548019
v -0.004500 0.031107 -0.010074
vn 2.980194 -3.045455 -2.260242
v 0.005500 -0.006016 -0.004479
vn 2.922117 -3.204389 2.430840
v 0.005500 -0.005954 0.004561
vn 1.383920 -0.505508 5.878179
v 0.004500 0.024327 0.012839
vn -2.687852 4.294415 -1.561768
v -0.004500 0.037134 -0.006109
vn -2.639528 -2.105384 4.189013
v -0.005500 -0.003297 0.006737
vn 5.757209 1.723906 -0.178109
v 0.012000 0.026823 0.006603
vn 2.720778 2.864036 -3.475492
v 0.004500 0.035302 -0.008716
vn 2.623240 4.756068 -0.482854
v 0.004500 0.038723 0.005059
vn 2.355574 3.674086 3.506409
v 0.004500 0.037086 0.010002
vn -2.052810 2.476643 4.810769
v -0.004500 0.035467 0.011193
vn 5.933084 -0.027239 -1.437357
v 0.012000 0.024707 0.004865
vn -2.845734 -0.505281 -4.295042
v -0.005500 -0.000743 -0.007463
vn 2.733920 -0.163361 -4.548020
v 0.004500 0.031107 -0.010074
vn -2.723130 0.679728 -4.446945
v -0.004500 0.032394 -0.010017
vn -2.987130 -3.622636 -1.003920
v -0.005500 -0.007228 -0.002003
vn 2.952460 -2.092935 -3.304289
v 0.005500 -0.003992 -0.006349
vn 2.987130 -3.622635 -1.003920
v 0.005500 -0.007228 -0.002003
vn 5.754637 -0.790045 1.550127
v 0.012000 0.023773 0.008553
vn 1.377187 -1.006659 5.839988
v 0.004500 0.023690 0.012750
vn -1.397012 0.606866 5.895277
v -0.004500 0.025611 0.012811
vn 3.533283 0.017226 4.985738
v 0.011500 0.024851 0.009361
vn -5.757210 1.723906 -0.178109
v -0.012000 0.026823 0.006603
vn -1.676628 -1.259332 5.651512
v -0.005500 -0.001327 0.007382
vn 2.818288 -2.605707 3.445090
v 0.005500 -0.004479 0.006016
vn 2.721371 2.055756 -4.005498
v 0.004500 0.034226 -0.009423
vn 5.647789 2.255765 -1.566278
v 0.005000 0.035608 -0.006916
vn -2.720605 3.539792 -2.784249
v -0.004500 0.036202 -0.007795
vn 2.579448 4.754320 -0.083718
v 0.004500 0.038772 0.005730
vn -2.646260 4.686061 -0.752782
v -0.004500 0.037436 -0.004858
vn 2.646260 4.686062 -0.752782
v 0.004500 0.037436 -0.004858
vn 2.052810 2.476643 4.810769
v 0.004500 0.035467 0.011193
vn 2.504944 4.432907 2.023607
v 0.004500 0.038222 0.008343
vn 5.522089 1.610827 1.253499
v 0.012000 0.026461 0.008031
vn -2.466937 4.228817 2.531556
v -0.004500 0.037906 0.008938
vn 5.964830 0.880445 -1.051527
v 0.012000 0.026109 0.005315
vn -2.864584 -0.826436 -4.116374
v -0.005500 -0.001429 -0.007363
vn 4.961565 -0.185083 -3.658363
v 0.005500 -0.000051 -0.007500
vn 5.650069 0.434056 -2.705754
v 0.005000 0.032256 -0.009026
vn -2.722551 1.153044 -4.349616
v -0.004500 0.033025 -0.009885
vn -2.722135 0.202297 -4.496548
v -0.004500 0.031752 -0.010080
vn 2.723130 0.679728 -4.446945
v 0.004500 0.032394 -0.010017
vn -2.975854 -2.839922 -2.543882
v -0.005500 -0.005577 -0.005015
vn -6.143420 -0.780972 0.491936
v -0.012000 0.023090 0.007830
vn -2.970164 -3.686598 1.067157
v -0.005500 -0.007199 0.002102
vn 2.921776 -1.496686 -3.734607
v 0.005500 -0.002757 -0.006975
vn 2.970079 -2.611799 -2.812829
v 0.005500 -0.005091 -0.005508
vn 2.985475 -3.384966 -1.653608
v 0.005500 -0.006737 -0.003297
vn 6.206140 -0.667397 -0.167861
v 0.012000 0.022900 0.006370
vn -2.985521 -3.753053 -0.324519
v -0.005500 -0.007473 -0.000641
vn 1.397012 0.606866 5.895277
v 0.004500 0.025611 0.012811
vn -1.383920 -0.505508 5.878177
v -0.004500 0.024327 0.012839
vn -1.497079 0.955073 5.792251
v -0.004500 0.033545 0.011781
vn 3.714037 1.114917 4.777442
v 0.011500 0.025500 0.009272
vn 3.654966 -0.946673 4.874190
v 0.011500 0.024200 0.009278
vn -5.933084 -0.027239 -1.437357
v -0.012000 0.024707 0.004865
vn -2.164719 -1.498169 5.106775
v -0.005500 -0.002003 0.007228
vn 1.676623 -1.259331 5.651516
v 0.005500 -0.001327 0.007382
vn -3.654966 -0.946673 4.874190
v -0.011500 0.024200 0.009278
vn -2.865249 -2.825999 3.102617
v -0.005500 -0.005015 0.005577
vn 2.639527 -2.105384 4.189012
v 0.005500 -0.003297 0.006737
vn 2.865249 -2.825999 3.102616
v 0.005500 -0.005015 0.005577
vn 2.721945 1.613586 -4.202074
v 0.004500 0.033638 -0.009686
vn -2.721096 2.474234 -3.762435
v -0.004500 0.034783 -0.009098
vn 2.720605 3.539791 -2.784249
v 0.004500 0.036202 -0.007795
vn 5.848102 1.496911 -0.530694
v 0.012000 0.026696 0.006118
vn -5.848102 1.496911 -0.530694
v -0.012000 0.026696 0.006118
vn -2.623240 4.756069 -0.482854
v -0.004500 0.038723 0.005059
vn 5.711587 1.781999 0.241781
v 0.012000 0.026824 0.007105
vn -2.648954 4.507339 -1.114235
v -0.004500 0.037319 -0.005492
vn 2.648954 4.507340 -1.114235
v 0.004500 0.037319 -0.005492
vn -1.893747 1.979236 5.187374
v -0.004500 0.034850 0.011460
vn -2.277337 3.322975 3.966241
v -0.004500 0.036592 0.010459
vn 5.331347 1.368315 1.778266
v 0.012000 0.026119 0.008397
vn 2.466937 4.228818 2.531556
v 0.004500 0.037906 0.008938
vn -5.646382 1.739614 0.732342
v -0.012000 0.026701 0.007591
vn -2.534475 4.587476 1.503082
v -0.004500 0.038469 0.007717
vn 5.679484 1.551447 -2.178394
v 0.005000 0.034391 -0.008155
vn 2.897733 -1.171056 -3.930482
v 0.005500 -0.002102 -0.007199
vn 2.845734 -0.505282 -4.295042
v 0.005500 -0.000743 -0.007463
vn 5.631016 0.151855 -2.779337
v 0.005000 0.031677 -0.009082
vn 5.935523 0.229844 -1.411278
v 0.012000 0.025208 0.004895
vn 2.722135 0.202297 -4.496546
v 0.004500 0.031752 -0.010080
vn -2.952461 -2.092935 -3.304288
v -0.005500 -0.003992 -0.006349
vn 2.970164 -3.686598 1.067157
v 0.005500 -0.007199 0.002102
vn 6.070656 -0.276336 -1.097822
v 0.012000 0.024215 0.004961
vn 2.962489 -2.362424 -3.066106
v 0.005500 -0.004561 -0.005954
vn 2.975854 -2.839923 -2.543882
v 0.005500 -0.005577 -0.005015
vn 6.202360 -0.612991 -0.347708
v 0.012000 0.023084 0.005903
vn -2.986761 -3.516870 -1.333363
v -0.005500 -0.007012 -0.002661
vn -2.983357 -3.227514 -1.963199
v -0.005500 -0.006404 -0.003904
vn 2.985521 -3.753053 -0.324519
v 0.005500 -0.007473 -0.000641
vn 2.986762 -3.516870 -1.333363
v 0.005500 -0.007012 -0.002661
vn -2.980276 -3.774153 0.370382
v -0.005500 -0.007463 0.000743
vn -6.206140 -0.667397 -0.167861
v -0.012000 0.022900 0.006370
vn 1.497078 0.955073 5.792251
v 0.004500 0.033545 0.011781
vn 1.382051 0.128669 5.899520
v 0.004500 0.024970 0.012859
vn 1.893747 1.979235 5.187372
v 0.004500 0.034850 0.011460
vn 5.305459 -0.595898 2.192760
v 0.012000 0.024228 0.008765
vn -4.961565 -0.185083 -3.658363
v -0.005500 -0.000051 -0.007500
vn -5.650069 0.434055 -2.705753
v -0.005000 0.032256 -0.009026
vn -6.070656 -0.276336 -1.097822
v -0.012000 0.024215 0.004961
vn -3.533283 0.017226 4.985738
v -0.011500 0.024851 0.009361
vn -5.305459 -0.595898 2.192760
v -0.012000 0.024228 0.008765
vn -2.818288 -2.605707 3.445090
v -0.005500 -0.004479 0.006016
vn -2.939552 -3.361144 2.094728
v -0.005500 -0.006349 0.003992
vn 2.747843 -2.366371 3.803986
v 0.005500 -0.003904 0.006404
vn -2.464241 -1.818986 4.617359
v -0.005500 -0.002661 0.007012
vn 6.046515 -0.803490 0.881066
v 0.012000 0.023386 0.008235
vn -2.898298 -3.025825 2.765993
v -0.005500 -0.005508 0.005091
vn 5.665400 0.732364 -2.605220
v 0.005000 0.032824 -0.008903
vn -2.721371 2.055756 -4.005499
v -0.004500 0.034226 -0.009423
vn 2.721096 2.474235 -3.762436
v 0.004500 0.034783 -0.009098
vn -2.720778 2.864036 -3.475492
v -0.004500 0.035302 -0.008716
vn 5.664136 2.033728 -1.790903
v 0.005000 0.035251 -0.007375
vn 2.713016 4.060797 -1.983382
v 0.004500 0.036885 -0.006704
vn 5.928462 1.186571 -0.822034
v 0.012000 0.026453 0.005680
vn -5.627786 2.431116 -1.373420
v -0.005000 0.035908 -0.006419
vn -5.966930 0.569093 -1.243100
v -0.012000 0.025685 0.005048
vn 2.534475 4.587475 1.503083
v 0.004500 0.038469 0.007717
vn -1.690790 1.429400 5.525170
v -0.004500 0.034206 0.011658
vn -4.253267 2.106065 4.072091
v -0.011500 0.026104 0.009017
vn 2.277338 3.322974 3.966239
v 0.004500 0.036592 0.010459
vn -2.355574 3.674085 3.506409
v -0.004500 0.037086 0.010002
vn 4.253267 2.106065 4.072091
v 0.011500 0.026104 0.009017
vn 5.646382 1.739614 0.732343
v 0.012000 0.026701 0.007591
vn 2.417376 3.976313 3.028236
v 0.004500 0.037526 0.009493
vn -5.711587 1.781999 0.241781
v -0.012000 0.026824 0.007105
vn -2.504944 4.432907 2.023607
v -0.004500 0.038222 0.008343
vn -2.570701 4.748413 0.447115
v -0.004500 0.038746 0.006403
vn -2.921776 -1.496686 -3.734607
v -0.005500 -0.002757 -0.006975
vn 6.183316 -0.749105 0.225768
v 0.012000 0.022904 0.007365
vn 6.152763 -0.440100 -0.776117
v 0.012000 0.023762 0.005176
vn -2.962489 -2.362424 -3.066106
v -0.005500 -0.004561 -0.005954
vn 2.983357 -3.227515 -1.963199
v 0.005500 -0.006404 -0.003904
vn -2.980194 -3.045455 -2.260241
v -0.005500 -0.006016 -0.004479
vn -2.985475 -3.384966 -1.653609
v -0.005500 -0.006737 -0.003297
vn 6.200670 -0.711732 0.016540
v 0.012000 0.022839 0.006868
vn 2.986764 -3.701469 -0.666905
v 0.005500 -0.007382 -0.001327
vn -2.983392 -3.777426 0.021908
v -0.005500 -0.007500 0.000051
vn -2.975965 -3.743688 0.719125
v -0.005500 -0.007363 0.001429
vn -2.986764 -3.701468 -0.666905
v -0.005500 -0.007382 -0.001327
vn -6.200669 -0.711732 0.016541
v -0.012000 0.022839 0.006868
vn -1.382051 0.128668 5.899520
v -0.004500 0.024970 0.012859
vn 2.464241 -1.818987 4.617360
v 0.005500 -0.002661 0.007012
vn 5.243984 -0.143790 2.320166
v 0.012000 0.024720 0.008857
vn -5.631016 0.151855 -2.779337
v -0.005000 0.031677 -0.009082
vn -5.665400 0.732362 -2.605220
v -0.005000 0.032824 -0.008903
vn -6.187407 -0.541824 -0.542011
v -0.012000 0.023377 0.005497
vn -5.243985 -0.143790 2.320166
v -0.012000 0.024720 0.008857
vn -6.046515 -0.803490 0.881067
v -0.012000 0.023386 0.008235
vn -5.754636 -0.790045 1.550127
v -0.012000 0.023773 0.008553
vn -2.952670 -3.494318 1.755270
v -0.005500 -0.006691 0.003389
vn -2.747843 -2.366371 3.803987
v -0.005500 -0.003904 0.006404
vn 2.898298 -3.025825 2.765993
v 0.005500 -0.005508 0.005091
vn -2.922117 -3.204389 2.430840
v -0.005500 -0.005954 0.004561
vn 5.675011 1.017779 -2.483958
v 0.005000 0.033374 -0.008715
vn 5.679703 1.291500 -2.341089
v 0.005000 0.033899 -0.008465
vn -2.720828 3.220602 -3.148358
v -0.004500 0.035777 -0.008280
vn 2.720828 3.220602 -3.148358
v 0.004500 0.035777 -0.008280
vn 5.674312 1.799706 -1.994637
v 0.005000 0.034844 -0.007790
vn 2.721051 3.818087 -2.388069
v 0.004500 0.036573 -0.007268
vn -2.713016 4.060797 -1.983382
v -0.004500 0.036885 -0.006704
vn -5.928462 1.186571 -0.822035
v -0.012000 0.026453 0.005680
vn -5.679484 1.551448 -2.178394
v -0.005000 0.034391 -0.008155
vn -5.935523 0.229844 -1.411278
v -0.012000 0.025208 0.004895
vn 2.556144 4.692820 0.977829
v 0.004500 0.038644 0.007068
vn -3.714037 1.114917 4.777442
v -0.011500 0.025500 0.009272
vn -5.331347 1.368315 1.778266
v -0.012000 0.026119 0.008397
vn -2.179556 2.924283 4.400590
v -0.004500 0.036050 0.010857
vn 2.179556 2.924284 4.400591
v 0.004500 0.036050 0.010857
vn 5.247224 0.991829 2.099571
v 0.012000 0.025697 0.008668
vn -2.417376 3.976314 3.028236
v -0.004500 0.037526 0.009493
vn -2.556144 4.692820 0.977829
v -0.004500 0.038644 0.007068
vn -2.939272 -1.804013 -3.526759
v -0.005500 -0.003389 -0.006691
vn 2.975965 -3.743687 0.719126
v 0.005500 -0.007363 0.001429
vn 2.952670 -3.494318 1.755270
v 0.005500 -0.006691 0.003389
vn 2.939271 -1.804013 -3.526763
v 0.005500 -0.003389 -0.006691
vn -2.970079 -2.611800 -2.812830
v -0.005500 -0.005091 -0.005508
vn -6.202359 -0.612991 -0.347708
v -0.012000 0.023084 0.005903
vn -6.183316 -0.749105 0.225768
v -0.012000 0.022904 0.007365
vn -5.675011 1.017778 -2.483958
v -0.005000 0.033374 -0.008715
vn -6.152763 -0.440099 -0.776117
v -0.012000 0.023762 0.005176
vn 5.966930 0.569093 -1.243100
v 0.012000 0.025685 0.005048
vn 5.627786 2.431116 -1.373420
v 0.005000 0.035908 -0.006419
vn -2.721051 3.818087 -2.388068
v -0.004500 0.036573 -0.007268
vn -5.647789 2.255765 -1.566278
v -0.005000 0.035608 -0.006916
vn -5.964830 0.880446 -1.051528
v -0.012000 0.026109 0.005315
vn -5.679703 1.291501 -2.341090
v -0.005000 0.033899 -0.008465
vn -5.674313 1.799706 -1.994637
v -0.005000 0.034844 -0.007790
vn -5.245833 0.437990 2.281489
v -0.012000 0.025221 0.008824
vn -5.522091 1.610827 1.253499
v -0.012000 0.026461 0.008031
vn 2.980276 -3.774153 0.370383
v 0.005500 -0.007463 0.000743
vn 6.143419 -0.780972 0.491934
v 0.012000 0.023090 0.007830
vn 2.962644 -3.603105 1.412733
v 0.005500 -0.006975 0.002757
vn 2.939552 -3.361145 2.094728
v 0.005500 -0.006349 0.003992
vn -2.962644 -3.603106 1.412733
v -0.005500 -0.006975 0.002757
vn -5.664136 2.033728 -1.790903
v -0.005000 0.035251 -0.007375
# 212 vertices, 0 vertices normals

f 34//34 18//18 6//6
f 43//43 21//21 23//23
f 45//45 23//23 21//21
f 52//52 28//28 26//26
f 54//54 9//9 3//3
f 56//56 54//54 3//3
f 56//56 29//29 54//54
f 56//56 3//3 53//53
f 56//56 55//55 29//29
f 66//66 6//6 18//18
f 68//68 36//36 4//4
f 69//69 36//36 18//18
f 69//69 18//18 34//34
f 70//70 55//55 15//15
f 70//70 27//27 51//51
f 72//72 71//71 10//10
f 72//72 38//38 71//71
f 72//72 69//69 34//34
f 72//72 10//10 69//69
f 72//72 34//34 6//6
f 72//72 6//6 38//38
f 73//73 38//38 6//6
f 73//73 6//6 66//66
f 73//73 71//71 38//38
f 76//76 33//33 39//39
f 77//77 3//3 9//9
f 77//77 9//9 40//40
f 82//82 43//43 23//23
f 82//82 2//2 43//43
f 82//82 44//44 37//37
f 82//82 37//37 2//2
f 82//82 45//45 44//44
f 82//82 23//23 45//45
f 83//83 43//43 7//7
f 83//83 21//21 43//43
f 84//84 37//37 44//44
f 84//84 81//81 37//37
f 84//84 19//19 81//81
f 85//85 45//45 21//21
f 85//85 80//80 12//12
f 85//85 21//21 80//80
f 85//85 84//84 44//44
f 85//85 44//44 45//45
f 85//85 12//12 19//19
f 85//85 19//19 84//84
f 88//88 48//48 24//24
f 89//89 47//47 49//49
f 93//93 51//51 8//8
f 93//93 5//5 51//51
f 94//94 28//28 52//52
f 94//94 52//52 26//26
f 94//94 26//26 8//8
f 94//94 51//51 27//27
f 94//94 8//8 51//51
f 94//94 27//27 15//15
f 94//94 15//15 28//28
f 96//96 95//95 53//53
f 96//96 26//26 95//95
f 97//97 55//55 56//56
f 97//97 28//28 15//15
f 97//97 15//15 55//55
f 97//97 95//95 26//26
f 97//97 26//26 28//28
f 97//97 56//56 53//53
f 97//97 53//53 95//95
f 100//100 60//60 93//93
f 100//100 93//93 8//8
f 100//100 8//8 26//26
f 101//101 14//14 61//61
f 102//102 61//61 14//14
f 102//102 14//14 16//16
f 103//103 16//16 14//14
f 107//107 63//63 32//32
f 107//107 103//103 63//63
f 107//107 62//62 103//103
f 107//107 32//32 30//30
f 107//107 30//30 104//104
f 109//109 104//104 30//30
f 110//110 65//65 36//36
f 110//110 68//68 13//13
f 110//110 36//36 68//68
f 110//110 67//67 35//35
f 110//110 35//35 65//65
f 111//111 18//18 36//36
f 111//111 36//36 65//65
f 112//112 13//13 68//68
f 112//112 46//46 25//25
f 112//112 25//25 86//86
f 113//113 69//69 10//10
f 113//113 75//75 33//33
f 114//114 70//70 15//15
f 114//114 15//15 27//27
f 114//114 27//27 70//70
f 115//115 29//29 55//55
f 115//115 54//54 29//29
f 116//116 70//70 51//51
f 116//116 51//51 5//5
f 117//117 73//73 66//66
f 117//117 35//35 67//67
f 118//118 71//71 73//73
f 119//119 76//76 39//39
f 119//119 74//74 76//76
f 121//121 39//39 33//33
f 121//121 33//33 75//75
f 122//122 118//118 20//20
f 122//122 71//71 118//118
f 123//123 33//33 76//76
f 125//125 53//53 3//3
f 125//125 3//3 77//77
f 125//125 96//96 53//53
f 126//126 40//40 9//9
f 127//127 78//78 22//22
f 127//127 22//22 92//92
f 127//127 126//126 78//78
f 127//127 40//40 126//126
f 128//128 22//22 78//78
f 129//129 79//79 41//41
f 130//130 12//12 80//80
f 131//131 129//129 41//41
f 131//131 50//50 129//129
f 135//135 110//110 13//13
f 135//135 67//67 110//110
f 135//135 112//112 86//86
f 135//135 13//13 112//112
f 136//136 86//86 25//25
f 137//137 88//88 24//24
f 138//138 137//137 24//24
f 138//138 87//87 137//137
f 139//139 112//112 68//68
f 139//139 46//46 112//112
f 140//140 89//89 48//48
f 140//140 47//47 89//89
f 140//140 134//134 47//47
f 141//141 24//24 48//48
f 141//141 48//48 89//89
f 142//142 2//2 37//37
f 143//143 49//49 47//47
f 143//143 91//91 90//90
f 143//143 90//90 49//49
f 143//143 134//134 91//91
f 143//143 47//47 134//134
f 144//144 43//43 2//2
f 144//144 7//7 43//43
f 144//144 2//2 142//142
f 145//145 93//93 60//60
f 145//145 5//5 93//93
f 145//145 116//116 5//5
f 147//147 101//101 31//31
f 147//147 14//14 101//101
f 148//148 98//98 31//31
f 148//148 31//31 101//101
f 149//149 103//103 62//62
f 149//149 16//16 103//103
f 150//150 102//102 16//16
f 150//150 57//57 102//102
f 150//150 149//149 105//105
f 150//150 16//16 149//149
f 151//151 149//149 62//62
f 151//151 105//105 149//149
f 151//151 107//107 104//104
f 151//151 62//62 107//107
f 152//152 106//106 63//63
f 152//152 1//1 106//106
f 153//153 32//32 63//63
f 153//153 63//63 106//106
f 154//154 106//106 1//1
f 154//154 64//64 106//106
f 156//156 109//109 30//30
f 156//156 64//64 109//109
f 156//156 153//153 106//106
f 156//156 106//106 64//64
f 156//156 30//30 32//32
f 156//156 32//32 153//153
f 157//157 154//154 108//108
f 157//157 109//109 64//64
f 157//157 64//64 154//154
f 158//158 111//111 65//65
f 158//158 65//65 35//35
f 158//158 117//117 66//66
f 158//158 35//35 117//117
f 158//158 66//66 18//18
f 158//158 18//18 111//111
f 159//159 113//113 10//10
f 159//159 75//75 113//113
f 159//159 122//122 20//20
f 159//159 20//20 75//75
f 159//159 10//10 71//71
f 159//159 71//71 122//122
f 160//160 4//4 36//36
f 160//160 36//36 69//69
f 160//160 69//69 113//113
f 161//161 115//115 55//55
f 161//161 55//55 70//70
f 162//162 9//9 54//54
f 162//162 54//54 115//115
f 163//163 57//57 150//150
f 164//164 118//118 73//73
f 164//164 73//73 117//117
f 165//165 124//124 74//74
f 166//166 20//20 118//118
f 166//166 165//165 74//74
f 166//166 74//74 119//119
f 167//167 120//120 58//58
f 168//168 121//121 75//75
f 168//168 75//75 20//20
f 168//168 166//166 119//119
f 168//168 20//20 166//166
f 168//168 119//119 39//39
f 168//168 39//39 121//121
f 169//169 123//123 76//76
f 169//169 17//17 123//123
f 169//169 124//124 17//17
f 169//169 76//76 74//74
f 169//169 74//74 124//124
f 170//170 120//120 17//17
f 170//170 17//17 124//124
f 170//170 124//124 165//165
f 170//170 165//165 58//58
f 170//170 58//58 120//120
f 171//171 125//125 77//77
f 171//171 77//77 40//40
f 172//172 127//127 92//92
f 172//172 40//40 127//127
f 172//172 171//171 40//40
f 174//174 79//79 129//129
f 174//174 173//173 42//42
f 174//174 42//42 79//79
f 174//174 22//22 128//128
f 174//174 128//128 173//173
f 175//175 92//92 22//22
f 175//175 129//129 50//50
f 175//175 50//50 92//92
f 175//175 174//174 129//129
f 175//175 22//22 174//174
f 176//176 41//41 79//79
f 177//177 132//132 81//81
f 177//177 19//19 12//12
f 177//177 12//12 130//130
f 177//177 81//81 19//19
f 178//178 81//81 132//132
f 179//179 128//128 78//78
f 180//180 162//162 115//115
f 180//180 133//133 162//162
f 180//180 161//161 70//70
f 180//180 115//115 161//161
f 181//181 83//83 7//7
f 181//181 140//140 83//83
f 181//181 134//134 140//140
f 182//182 117//117 67//67
f 182//182 67//67 135//135
f 182//182 136//136 11//11
f 182//182 135//135 86//86
f 182//182 86//86 136//136
f 183//183 11//11 136//136
f 183//183 87//87 138//138
f 184//184 136//136 25//25
f 184//184 183//183 136//136
f 184//184 87//87 183//183
f 185//185 46//46 139//139
f 185//185 139//139 88//88
f 185//185 88//88 137//137
f 185//185 184//184 25//25
f 185//185 25//25 46//46
f 185//185 137//137 87//87
f 185//185 87//87 184//184
f 186//186 139//139 68//68
f 186//186 68//68 4//4
f 186//186 88//88 139//139
f 187//187 141//141 89//89
f 187//187 89//89 49//49
f 187//187 138//138 24//24
f 187//187 24//24 141//141
f 188//188 142//142 90//90
f 188//188 90//90 91//91
f 188//188 144//144 142//142
f 188//188 181//181 7//7
f 188//188 7//7 144//144
f 188//188 91//91 134//134
f 188//188 134//134 181//181
f 189//189 116//116 145//145
f 190//190 146//146 99//99
f 190//190 99//99 59//59
f 190//190 59//59 155//155
f 192//192 147//147 31//31
f 192//192 60//60 100//100
f 192//192 100//100 147//147
f 192//192 189//189 145//145
f 192//192 145//145 60//60
f 192//192 31//31 98//98
f 192//192 98//98 189//189
f 193//193 148//148 101//101
f 193//193 101//101 61//61
f 193//193 102//102 57//57
f 193//193 61//61 102//102
f 193//193 163//163 148//148
f 193//193 57//57 163//163
f 194//194 151//151 104//104
f 194//194 104//104 109//109
f 194//194 105//105 151//151
f 194//194 163//163 150//150
f 194//194 150//150 105//105
f 195//195 157//157 108//108
f 195//195 108//108 155//155
f 195//195 155//155 59//59
f 196//196 126//126 9//9
f 196//196 9//9 162//162
f 196//196 162//162 133//133
f 197//197 189//189 98//98
f 197//197 116//116 189//189
f 197//197 98//98 148//148
f 197//197 148//148 163//163
f 198//198 171//171 172//172
f 198//198 96//96 125//125
f 198//198 125//125 171//171
f 198//198 172//172 92//92
f 198//198 92//92 50//50
f 199//199 131//131 41//41
f 199//199 41//41 176//176
f 199//199 80//80 131//131
f 199//199 176//176 130//130
f 199//199 130//130 80//80
f 200//200 177//177 130//130
f 200//200 130//130 176//176
f 200//200 176//176 79//79
f 200//200 79//79 42//42
f 200//200 132//132 177//177
f 201//201 178//178 132//132
f 201//201 200//200 42//42
f 201//201 132//132 200//200
f 202//202 179//179 133//133
f 203//203 179//179 78//78
f 203//203 78//78 126//126
f 203//203 126//126 196//196
f 203//203 196//196 133//133
f 203//203 133//133 179//179
f 204//204 173//173 128//128
f 204//204 128//128 179//179
f 204//204 179//179 202//202
f 205//205 164//164 117//117
f 205//205 117//117 182//182
f 205//205 182//182 11//11
f 206//206 183//183 138//138
f 206//206 138//138 187//187
f 206//206 187//187 49//49
f 206//206 49//49 90//90
f 206//206 205//205 11//11
f 206//206 11//11 183//183
f 206//206 90//90 142//142
f 206//206 142//142 37//37
f 206//206 37//37 81//81
f 206//206 81//81 178//178
f 206//206 178//178 202//202
f 206//206 202//202 133//133
f 206//206 133//133 180//180
f 206//206 180//180 70//70
f 206//206 70//70 116//116
f 206//206 116//116 197//197
f 206//206 197//197 163//163
f 206//206 163//163 194//194
f 206//206 194//194 109//109
f 206//206 109//109 157//157
f 206//206 157//157 195//195
f 206//206 195//195 58//58
f 206//206 58//58 165//165
f 206//206 165//165 166//166
f 206//206 166//166 118//118
f 206//206 118//118 164//164
f 206//206 164//164 205//205
f 207//207 152//152 146//146
f 207//207 146//146 190//190
f 207//207 1//1 152//152
f 207//207 190//190 155//155
f 207//207 155//155 108//108
f 207//207 154//154 1//1
f 207//207 108//108 154//154
f 208//208 123//123 17//17
f 208//208 33//33 123//123
f 208//208 146//146 152//152
f 208//208 113//113 33//33
f 208//208 152//152 63//63
f 208//208 160//160 113//113
f 208//208 63//63 103//103
f 208//208 4//4 160//160
f 208//208 103//103 14//14
f 208//208 186//186 4//4
f 208//208 14//14 147//147
f 208//208 88//88 186//186
f 208//208 147//147 100//100
f 208//208 48//48 88//88
f 208//208 100//100 26//26
f 208//208 140//140 48//48
f 208//208 26//26 96//96
f 208//208 96//96 198//198
f 208//208 83//83 140//140
f 208//208 21//21 83//83
f 208//208 80//80 21//21
f 208//208 131//131 80//80
f 208//208 198//198 50//50
f 208//208 50//50 131//131
f 209//209 99//99 146//146
f 209//209 208//208 191//191
f 209//209 146//146 208//208
f 210//210 17//17 120//120
f 210//210 208//208 17//17
f 210//210 191//191 208//208
f 210//210 120//120 167//167
f 210//210 167//167 191//191
f 211//211 167//167 58//58
f 211//211 58//58 195//195
f 211//211 195//195 59//59
f 211//211 209//209 191//191
f 211//211 191//191 167//167
f 211//211 59//59 99//99
f 211//211 99//99 209//209
f 212//212 201//201 42//42
f 212//212 178//178 201//201
f 212//212 42//42 173//173
f 212//212 173//173 204//204
f 212//212 204//204 202//202
f 212//212 202//202 178//178
# 420 faces, 0 coords texture

# End of File
