####
#
# OBJ File Generated by Meshlab
#
####
# Object outer_finger.obj
#
# Vertices: 174
# Faces: 344
#
####
vn 5.991838 0.509560 1.212297
v 0.013500 0.007082 0.049430
vn 2.841226 -4.332226 0.440985
v 0.012000 -0.005950 0.000772
vn -2.839753 4.335716 -0.440410
v -0.012000 0.012065 0.046353
vn -2.792599 -4.312333 -0.413487
v -0.012000 -0.005973 -0.000571
vn 2.792261 -4.207189 1.035962
v 0.012000 0.000289 0.048558
vn 2.792506 4.206831 -1.035326
v 0.012000 0.005826 -0.001433
vn 2.792059 3.433038 2.643927
v 0.012000 0.010868 0.050786
vn 2.792149 -3.114912 -3.012287
v 0.012000 -0.004313 -0.004171
vn -2.792533 -4.064704 1.498934
v -0.012000 0.000486 0.049202
vn 5.998844 -1.267425 0.297789
v 0.013500 0.003669 0.047643
vn -2.792657 3.870215 -1.946133
v -0.012000 0.005361 -0.002694
vn -2.792629 3.113739 3.012033
v -0.012000 0.010428 0.051296
vn 2.792471 -0.893577 4.239016
v 0.012000 0.004878 0.052996
vn 2.839753 4.335714 -0.440410
v 0.012000 0.012065 0.046353
vn 2.792162 0.893459 -4.240015
v 0.012000 0.001236 -0.005871
vn -2.792147 -2.367122 -3.629535
v -0.012000 -0.003277 -0.005026
vn 2.792848 -4.111355 -1.363324
v 0.012000 -0.005696 -0.001886
vn -2.841226 -4.332226 0.440985
v -0.012000 -0.005950 0.000772
vn 2.840197 -4.303719 0.679964
v 0.012000 0.000165 0.047897
vn -2.839876 4.304248 -0.681253
v -0.012000 0.005950 -0.000772
vn -2.792729 4.112989 1.360856
v -0.012000 0.011811 0.049011
vn 2.792757 1.946522 3.869416
v 0.012000 0.008809 0.052486
vn -2.792471 -0.893576 4.239017
v -0.012000 0.004878 0.052996
vn 5.991980 -0.459740 1.231730
v 0.013500 0.005242 0.049468
vn 2.792576 -3.010313 3.115163
v 0.012000 0.001944 0.051438
vn 5.991906 1.296454 0.219392
v 0.013500 0.008580 0.047543
vn 2.792342 -1.500625 -4.064506
v 0.012000 -0.002077 -0.005629
vn 2.792771 3.012106 -3.112991
v 0.012000 0.004171 -0.004313
vn -2.792132 1.813940 -3.935316
v -0.012000 0.002512 -0.005449
vn -2.792376 -3.706244 -2.243945
v -0.012000 -0.005133 -0.003106
vn 2.792599 -4.312333 -0.413487
v 0.012000 -0.005973 -0.000571
vn 5.991851 -1.152723 -0.632823
v 0.013500 -0.002191 -0.001204
vn 0.000004 -6.230949 0.808508
v 0.007075 -0.002076 0.030629
vn -2.840197 -4.303717 0.679964
v -0.012000 0.000165 0.047897
vn -2.792188 4.065439 -1.499179
v -0.012000 0.005629 -0.002077
vn 2.839876 4.304247 -0.681253
v 0.012000 0.005950 -0.000772
vn -2.792629 3.706608 2.243052
v -0.012000 0.011248 0.050231
vn -2.792826 4.312047 0.410613
v -0.012000 0.012087 0.047696
vn 2.792284 4.239417 0.893961
v 0.012000 0.011986 0.048361
vn -2.792411 1.498370 4.065175
v -0.012000 0.008192 0.052754
vn 2.792337 2.758749 3.340747
v 0.012000 0.009934 0.051752
vn 2.792066 0.557156 4.297145
v 0.012000 0.006887 0.053075
vn -2.792145 -0.412236 4.313589
v -0.012000 0.005543 0.053098
vn 2.792109 -3.871836 1.945760
v 0.012000 0.000754 0.049819
vn -2.792576 -3.010312 3.115162
v -0.012000 0.001944 0.051438
vn 2.792693 -2.241140 3.706876
v 0.012000 0.003009 0.052258
vn 5.992296 -0.995027 0.858302
v 0.013500 0.004221 0.048757
vn 5.992384 1.028950 0.817026
v 0.013500 0.008073 0.048679
vn 2.792795 -0.559136 -4.295372
v 0.012000 -0.000772 -0.005950
vn 2.792147 -2.367124 -3.629538
v 0.012000 -0.003277 -0.005026
vn 2.792657 3.870216 -1.946134
v 0.012000 0.005361 -0.002694
vn -2.792616 0.411411 -4.312489
v -0.012000 0.000571 -0.005973
vn 2.792532 2.243411 -3.706136
v 0.012000 0.003106 -0.005133
vn -2.792771 3.012105 -3.112990
v -0.012000 0.004171 -0.004313
vn -2.792149 -3.114912 -3.012286
v -0.012000 -0.004313 -0.004171
vn -2.792848 -4.111355 -1.363324
v -0.012000 -0.005696 -0.001886
vn 2.792376 -3.706245 -2.243946
v 0.012000 -0.005133 -0.003106
vn 5.991824 -1.273563 -0.327755
v 0.013500 -0.002421 -0.000622
vn 6.011358 1.254264 -0.239258
v 0.013500 0.002480 -0.000313
vn -0.000004 -6.230949 0.808508
v -0.007075 -0.002076 0.030629
vn -2.792506 4.206832 -1.035326
v -0.012000 0.005826 -0.001433
vn -0.000022 6.230949 -0.808505
v -0.007500 0.010029 0.030659
vn -2.792059 3.433040 2.643929
v -0.012000 0.010868 0.050786
vn 2.791935 3.934954 1.814330
v 0.012000 0.011564 0.049637
vn 2.792826 4.312047 0.410613
v 0.012000 0.012087 0.047696
vn -2.792284 4.239420 0.893962
v -0.012000 0.011986 0.048361
vn -2.792974 2.364478 3.629247
v -0.012000 0.009392 0.052151
vn 2.792629 3.113739 3.012032
v 0.012000 0.010428 0.051296
vn 2.792974 2.364480 3.629249
v 0.012000 0.009392 0.052151
vn 2.792145 -0.412236 4.313591
v 0.012000 0.005543 0.053098
vn -2.792066 0.557156 4.297145
v -0.012000 0.006887 0.053075
vn 2.792411 1.498370 4.065176
v 0.012000 0.008192 0.052754
vn 5.992345 0.191465 1.299932
v 0.013500 0.006478 0.049598
vn 2.792533 -4.064702 1.498933
v 0.012000 0.000486 0.049202
vn 2.792823 -1.814985 3.933061
v 0.012000 0.003603 0.052574
vn 5.992459 -1.177148 0.583251
v 0.013500 0.003875 0.048235
vn 2.792490 -3.628820 2.366667
v 0.012000 0.001089 0.050402
vn 5.991853 -0.750794 1.079602
v 0.013500 0.004687 0.049177
vn 5.991869 0.793705 1.048414
v 0.013500 0.007625 0.049117
vn 2.792616 0.411410 -4.312490
v 0.012000 0.000571 -0.005973
vn 5.991918 -0.405615 -1.250736
v 0.013500 -0.000773 -0.002378
vn 2.792572 -1.944368 -3.871340
v 0.012000 -0.002694 -0.005361
vn 2.792188 4.065439 -1.499179
v 0.012000 0.005629 -0.002077
vn -2.792162 0.893459 -4.240015
v -0.012000 0.001236 -0.005871
vn -2.792795 -0.559136 -4.295372
v -0.012000 -0.000772 -0.005950
vn 2.792490 1.361692 -4.112819
v 0.012000 0.001886 -0.005696
vn -2.792533 2.243411 -3.706136
v -0.012000 0.003106 -0.005133
vn 2.792863 -3.934379 -1.811740
v 0.012000 -0.005449 -0.002512
vn 2.792584 -3.432568 -2.642915
v 0.012000 -0.004753 -0.003661
vn -2.792161 -4.332543 0.073402
v -0.012000 -0.005999 0.000101
vn 2.792161 -4.332544 0.073402
v 0.012000 -0.005999 0.000101
vn 2.792405 -4.239785 -0.891695
v 0.012000 -0.005871 -0.001236
vn 5.992371 -1.313906 -0.000311
v 0.013500 -0.002500 -0.000000
vn 5.991860 1.063649 -0.773202
v 0.013500 0.002023 -0.001469
vn 6.003384 1.291965 -0.056893
v 0.013500 0.008606 0.046917
vn -2.792262 -4.207189 1.035961
v -0.012000 0.000289 0.048558
vn 0.000022 6.230950 -0.808505
v 0.007500 0.010029 0.030659
vn 2.792629 3.706610 2.243054
v 0.012000 0.011248 0.050231
vn -2.791935 3.934956 1.814330
v -0.012000 0.011564 0.049637
vn 2.792729 4.112992 1.360857
v 0.012000 0.011811 0.049011
vn 5.992412 1.199977 0.534954
v 0.013500 0.008398 0.048143
vn -2.792851 4.331057 -0.071119
v -0.012000 0.012114 0.047024
vn 2.792851 4.331059 -0.071119
v 0.012000 0.012114 0.047024
vn -2.792757 1.946523 3.869419
v -0.012000 0.008809 0.052486
vn -2.792337 2.758748 3.340746
v -0.012000 0.009934 0.051752
vn 2.792538 0.072984 4.331799
v 0.012000 0.006216 0.053124
vn 5.992439 -0.138374 1.306456
v 0.013500 0.005852 0.049611
vn -2.792538 0.072984 4.331800
v -0.012000 0.006216 0.053124
vn 2.792679 1.036001 4.206450
v 0.012000 0.007548 0.052951
vn -2.792490 -3.628819 2.366666
v -0.012000 0.001089 0.050402
vn 2.792360 -1.361202 4.113404
v 0.012000 0.004229 0.052821
vn 2.792557 -2.644860 3.431437
v 0.012000 0.002453 0.051878
vn -2.792693 -2.241139 3.706875
v -0.012000 0.003009 0.052258
vn 2.792211 -3.342178 2.757862
v 0.012000 0.001487 0.050944
vn 2.792447 -0.071712 -4.331878
v 0.012000 -0.000101 -0.005999
vn 2.792834 -1.033116 -4.206547
v 0.012000 -0.001433 -0.005826
vn 5.992341 0.245867 -1.290761
v 0.013500 0.000468 -0.002456
vn 5.992415 -0.703781 -1.109411
v 0.013500 -0.001340 -0.002111
vn -2.792571 -1.944369 -3.871341
v -0.012000 -0.002694 -0.005361
vn 2.792701 3.339767 -2.758742
v 0.012000 0.004627 -0.003819
vn -2.792701 3.339767 -2.758741
v -0.012000 0.004627 -0.003819
vn 5.992272 1.221669 -0.484170
v 0.013500 0.002324 -0.000920
vn -2.792447 -0.071712 -4.331879
v -0.012000 -0.000101 -0.005999
vn 2.792132 1.813940 -3.935316
v 0.012000 0.002512 -0.005449
vn -2.792490 1.361692 -4.112819
v -0.012000 0.001886 -0.005696
vn 2.792475 -2.757855 -3.341219
v 0.012000 -0.003819 -0.004627
vn -2.792475 -2.757857 -3.341221
v -0.012000 -0.003819 -0.004627
vn -2.792863 -3.934379 -1.811740
v -0.012000 -0.005449 -0.002512
vn -2.792405 -4.239786 -0.891695
v -0.012000 -0.005871 -0.001236
vn -2.792584 -3.432568 -2.642915
v -0.012000 -0.004753 -0.003661
vn 5.992395 -0.957943 -0.899197
v 0.013500 -0.001822 -0.001711
vn 6.031127 -1.222983 0.156548
v 0.013500 -0.002421 0.000622
vn 5.992037 0.838472 -1.012505
v 0.013500 0.001594 -0.001926
vn -2.792679 1.036001 4.206450
v -0.012000 0.007548 0.052951
vn -2.792109 -3.871835 1.945760
v -0.012000 0.000754 0.049819
vn -2.792823 -1.814985 3.933061
v -0.012000 0.003603 0.052574
vn -2.792557 -2.644861 3.431437
v -0.012000 0.002453 0.051878
vn -2.792211 -3.342180 2.757864
v -0.012000 0.001487 0.050944
vn 5.991838 -0.083177 -1.312400
v 0.013500 -0.000157 -0.002495
vn -2.792834 -1.033116 -4.206547
v -0.012000 -0.001433 -0.005826
vn 2.792522 3.629689 -2.365220
v 0.012000 0.005026 -0.003277
vn 5.992470 0.559500 -1.188647
v 0.013500 0.001064 -0.002262
vn -2.792307 2.643319 -3.433094
v -0.012000 0.003661 -0.004753
vn 2.792307 2.643320 -3.433095
v 0.012000 0.003661 -0.004753
vn -2.792360 -1.361202 4.113406
v -0.012000 0.004229 0.052821
vn -2.792522 3.629692 -2.365222
v -0.012000 0.005026 -0.003277
vn -2.792342 -1.500626 -4.064507
v -0.012000 -0.002077 -0.005629
vn -5.992395 -0.957944 -0.899197
v -0.013500 -0.001822 -0.001711
vn -5.991837 -0.083177 -1.312400
v -0.013500 -0.000157 -0.002495
vn -5.991838 0.509560 1.212297
v -0.013500 0.007082 0.049430
vn -5.998844 -1.267425 0.297789
v -0.013500 0.003669 0.047643
vn -5.992371 -1.313906 -0.000311
v -0.013500 -0.002500 -0.000000
vn -5.991851 -1.152723 -0.632823
v -0.013500 -0.002191 -0.001204
vn -5.992415 -0.703781 -1.109411
v -0.013500 -0.001340 -0.002111
vn -5.991918 -0.405615 -1.250736
v -0.013500 -0.000773 -0.002378
vn -5.992342 0.245867 -1.290761
v -0.013500 0.000468 -0.002456
vn -5.992345 0.191465 1.299932
v -0.013500 0.006478 0.049598
vn -5.991870 0.793705 1.048414
v -0.013500 0.007625 0.049117
vn -5.992458 -1.177148 0.583251
v -0.013500 0.003875 0.048235
vn -6.031127 -1.222983 0.156548
v -0.013500 -0.002421 0.000622
vn -5.991824 -1.273563 -0.327755
v -0.013500 -0.002421 -0.000622
vn -5.992447 0.559500 -1.188647
v -0.013500 0.001064 -0.002262
vn -5.992439 -0.138374 1.306456
v -0.013500 0.005852 0.049611
vn -5.992384 1.028950 0.817026
v -0.013500 0.008073 0.048679
vn -5.992296 -0.995027 0.858302
v -0.013500 0.004221 0.048757
vn -5.992037 0.838472 -1.012505
v -0.013500 0.001594 -0.001926
vn -5.991980 -0.459740 1.231730
v -0.013500 0.005242 0.049468
vn -5.992412 1.199977 0.534954
v -0.013500 0.008398 0.048143
vn -5.991853 -0.750794 1.079602
v -0.013500 0.004687 0.049177
vn -5.991860 1.063649 -0.773202
v -0.013500 0.002023 -0.001469
vn -5.991906 1.296454 0.219392
v -0.013500 0.008580 0.047543
vn -5.992272 1.221669 -0.484170
v -0.013500 0.002324 -0.000920
vn -6.003381 1.291965 -0.056893
v -0.013500 0.008606 0.046917
vn -6.011418 1.254264 -0.239258
v -0.013500 0.002480 -0.000313
# 174 vertices, 0 vertices normals

f 19//19 10//10 5//5
f 19//19 2//2 10//10
f 33//33 2//2 19//19
f 36//36 6//6 20//20
f 59//59 6//6 36//36
f 59//59 36//36 14//14
f 60//60 34//34 18//18
f 60//60 18//18 2//2
f 60//60 2//2 33//33
f 60//60 33//33 19//19
f 60//60 19//19 34//34
f 61//61 20//20 6//6
f 62//62 20//20 3//3
f 65//65 39//39 26//26
f 66//66 65//65 38//38
f 66//66 39//39 65//65
f 68//68 12//12 41//41
f 68//68 48//48 7//7
f 68//68 63//63 12//12
f 68//68 7//7 63//63
f 69//69 22//22 1//1
f 70//70 43//43 23//23
f 70//70 23//23 13//13
f 72//72 1//1 22//22
f 74//74 9//9 5//5
f 74//74 5//5 10//10
f 76//76 74//74 10//10
f 76//76 44//44 74//74
f 77//77 76//76 47//47
f 77//77 44//44 76//76
f 78//78 25//25 47//47
f 78//78 75//75 46//46
f 78//78 24//24 75//75
f 79//79 68//68 41//41
f 79//79 48//48 68//68
f 79//79 69//69 1//1
f 79//79 41//41 69//69
f 80//80 52//52 15//15
f 82//82 27//27 81//81
f 83//83 51//51 11//11
f 83//83 11//11 35//35
f 83//83 61//61 6//6
f 83//83 35//35 61//61
f 84//84 15//15 52//52
f 88//88 57//57 32//32
f 88//88 58//58 17//17
f 88//88 32//32 58//58
f 89//89 32//32 57//57
f 91//91 90//90 4//4
f 91//91 4//4 31//31
f 91//91 2//2 18//18
f 91//91 18//18 90//90
f 92//92 58//58 31//31
f 92//92 17//17 58//58
f 93//93 2//2 91//91
f 93//93 91//91 31//31
f 93//93 31//31 58//58
f 95//95 59//59 14//14
f 95//95 65//65 26//26
f 96//96 5//5 9//9
f 96//96 34//34 19//19
f 96//96 19//19 5//5
f 97//97 14//14 36//36
f 97//97 20//20 62//62
f 97//97 62//62 3//3
f 97//97 3//3 14//14
f 97//97 36//36 20//20
f 98//98 63//63 7//7
f 98//98 37//37 63//63
f 98//98 7//7 48//48
f 99//99 64//64 21//21
f 99//99 98//98 64//64
f 99//99 37//37 98//98
f 100//100 21//21 64//64
f 100//100 26//26 39//39
f 100//100 66//66 21//21
f 100//100 39//39 66//66
f 101//101 98//98 48//48
f 101//101 64//64 98//98
f 101//101 100//100 64//64
f 101//101 26//26 100//100
f 103//103 95//95 14//14
f 103//103 65//65 95//95
f 103//103 14//14 3//3
f 103//103 3//3 102//102
f 103//103 102//102 38//38
f 103//103 38//38 65//65
f 104//104 72//72 22//22
f 104//104 40//40 72//72
f 104//104 69//69 67//67
f 104//104 22//22 69//69
f 105//105 41//41 12//12
f 105//105 69//69 41//41
f 105//105 67//67 69//69
f 106//106 73//73 42//42
f 107//107 70//70 13//13
f 107//107 13//13 24//24
f 107//107 106//106 70//70
f 107//107 73//73 106//106
f 108//108 43//43 70//70
f 108//108 70//70 106//106
f 108//108 106//106 42//42
f 108//108 42//42 71//71
f 109//109 42//42 73//73
f 109//109 73//73 1//1
f 109//109 1//1 72//72
f 111//111 75//75 24//24
f 111//111 24//24 13//13
f 112//112 78//78 46//46
f 112//112 25//25 78//78
f 114//114 77//77 47//47
f 114//114 47//47 25//25
f 116//116 81//81 27//27
f 117//117 80//80 15//15
f 117//117 15//15 86//86
f 118//118 82//82 81//81
f 118//118 50//50 82//82
f 119//119 82//82 50//50
f 119//119 50//50 16//16
f 120//120 94//94 28//28
f 121//121 120//120 28//28
f 121//121 28//28 54//54
f 122//122 83//83 6//6
f 122//122 6//6 59//59
f 122//122 94//94 51//51
f 122//122 51//51 83//83
f 123//123 52//52 80//80
f 123//123 80//80 115//115
f 123//123 115//115 49//49
f 123//123 49//49 85//85
f 124//124 87//87 53//53
f 124//124 29//29 87//87
f 125//125 86//86 15//15
f 125//125 15//15 84//84
f 125//125 124//124 86//86
f 125//125 29//29 124//124
f 126//126 50//50 118//118
f 127//127 126//126 8//8
f 127//127 8//8 55//55
f 127//127 16//16 50//50
f 127//127 50//50 126//126
f 128//128 88//88 17//17
f 128//128 17//17 56//56
f 128//128 30//30 57//57
f 128//128 57//57 88//88
f 129//129 56//56 17//17
f 129//129 92//92 31//31
f 129//129 31//31 4//4
f 129//129 17//17 92//92
f 130//130 89//89 57//57
f 130//130 57//57 30//30
f 130//130 55//55 8//8
f 130//130 8//8 89//89
f 131//131 89//89 8//8
f 131//131 32//32 89//89
f 131//131 126//126 118//118
f 131//131 8//8 126//126
f 132//132 10//10 2//2
f 132//132 2//2 93//93
f 133//133 28//28 94//94
f 134//134 109//109 72//72
f 134//134 72//72 40//40
f 134//134 71//71 42//42
f 134//134 42//42 109//109
f 135//135 74//74 44//44
f 135//135 9//9 74//74
f 135//135 44//44 77//77
f 135//135 77//77 110//110
f 136//136 113//113 46//46
f 136//136 46//46 75//75
f 137//137 46//46 113//113
f 137//137 45//45 25//25
f 137//137 25//25 112//112
f 137//137 112//112 46//46
f 138//138 114//114 25//25
f 138//138 25//25 45//45
f 138//138 110//110 77//77
f 138//138 77//77 114//114
f 139//139 49//49 115//115
f 139//139 116//116 49//49
f 139//139 81//81 116//116
f 139//139 115//115 80//80
f 139//139 80//80 117//117
f 140//140 85//85 49//49
f 140//140 49//49 116//116
f 141//141 51//51 94//94
f 141//141 94//94 120//120
f 142//142 117//117 86//86
f 142//142 86//86 124//124
f 142//142 139//139 117//117
f 142//142 124//124 53//53
f 142//142 53//53 133//133
f 142//142 133//133 94//94
f 142//142 94//94 122//122
f 142//142 122//122 59//59
f 142//142 59//59 95//95
f 142//142 95//95 26//26
f 142//142 26//26 101//101
f 142//142 101//101 48//48
f 142//142 48//48 79//79
f 142//142 79//79 1//1
f 142//142 1//1 73//73
f 142//142 73//73 107//107
f 142//142 107//107 24//24
f 142//142 24//24 78//78
f 142//142 78//78 47//47
f 142//142 47//47 76//76
f 142//142 76//76 10//10
f 142//142 10//10 132//132
f 142//142 132//132 93//93
f 142//142 93//93 58//58
f 142//142 58//58 32//32
f 142//142 32//32 131//131
f 142//142 131//131 118//118
f 142//142 118//118 81//81
f 142//142 81//81 139//139
f 144//144 133//133 53//53
f 144//144 28//28 133//133
f 144//144 143//143 54//54
f 144//144 54//54 28//28
f 144//144 53//53 87//87
f 144//144 87//87 143//143
f 145//145 136//136 75//75
f 145//145 75//75 111//111
f 145//145 111//111 13//13
f 145//145 13//13 23//23
f 146//146 141//141 120//120
f 146//146 120//120 121//121
f 146//146 11//11 51//51
f 146//146 51//51 141//141
f 147//147 82//82 119//119
f 147//147 140//140 116//116
f 147//147 27//27 82//82
f 147//147 116//116 27//27
f 148//148 55//55 130//130
f 148//148 127//127 55//55
f 149//149 85//85 140//140
f 149//149 123//123 85//85
f 149//149 52//52 123//123
f 150//150 40//40 104//104
f 150//150 134//134 40//40
f 150//150 104//104 67//67
f 151//151 18//18 34//34
f 151//151 34//34 96//96
f 151//151 96//96 9//9
f 152//152 90//90 18//18
f 152//152 4//4 90//90
f 153//153 30//30 128//128
f 153//153 148//148 130//130
f 153//153 130//130 30//30
f 154//154 16//16 127//127
f 154//154 127//127 148//148
f 154//154 119//119 16//16
f 155//155 149//149 140//140
f 155//155 140//140 147//147
f 155//155 147//147 119//119
f 155//155 119//119 154//154
f 156//156 84//84 52//52
f 156//156 52//52 149//149
f 156//156 125//125 84//84
f 157//157 71//71 134//134
f 157//157 134//134 150//150
f 157//157 108//108 71//71
f 158//158 150//150 67//67
f 158//158 67//67 105//105
f 158//158 105//105 12//12
f 159//159 151//151 9//9
f 159//159 9//9 135//135
f 159//159 135//135 110//110
f 160//160 152//152 18//18
f 160//160 18//18 151//151
f 161//161 129//129 4//4
f 161//161 4//4 152//152
f 161//161 56//56 129//129
f 161//161 153//153 128//128
f 161//161 128//128 56//56
f 162//162 29//29 125//125
f 162//162 125//125 156//156
f 162//162 87//87 29//29
f 163//163 43//43 108//108
f 163//163 108//108 157//157
f 163//163 23//23 43//43
f 164//164 158//158 12//12
f 164//164 12//12 63//63
f 164//164 63//63 37//37
f 165//165 159//159 110//110
f 165//165 110//110 138//138
f 165//165 138//138 45//45
f 166//166 143//143 87//87
f 166//166 87//87 162//162
f 166//166 54//54 143//143
f 167//167 145//145 23//23
f 167//167 23//23 163//163
f 167//167 136//136 145//145
f 168//168 164//164 37//37
f 168//168 37//37 99//99
f 168//168 99//99 21//21
f 169//169 165//165 45//45
f 169//169 45//45 137//137
f 169//169 137//137 113//113
f 169//169 113//113 136//136
f 169//169 136//136 167//167
f 170//170 121//121 54//54
f 170//170 54//54 166//166
f 170//170 146//146 121//121
f 170//170 11//11 146//146
f 171//171 168//168 21//21
f 171//171 21//21 66//66
f 171//171 66//66 38//38
f 172//172 35//35 11//11
f 172//172 11//11 170//170
f 172//172 61//61 35//35
f 173//173 171//171 38//38
f 173//173 38//38 102//102
f 173//173 102//102 3//3
f 174//174 20//20 61//61
f 174//174 61//61 172//172
f 174//174 173//173 3//3
f 174//174 3//3 20//20
f 174//174 172//172 170//170
f 174//174 170//170 166//166
f 174//174 166//166 162//162
f 174//174 162//162 156//156
f 174//174 156//156 149//149
f 174//174 149//149 155//155
f 174//174 155//155 154//154
f 174//174 154//154 148//148
f 174//174 148//148 153//153
f 174//174 153//153 161//161
f 174//174 161//161 152//152
f 174//174 152//152 160//160
f 174//174 160//160 151//151
f 174//174 151//151 159//159
f 174//174 159//159 165//165
f 174//174 165//165 169//169
f 174//174 169//169 167//167
f 174//174 167//167 163//163
f 174//174 163//163 157//157
f 174//174 157//157 150//150
f 174//174 150//150 158//158
f 174//174 158//158 164//164
f 174//174 164//164 168//168
f 174//174 168//168 171//171
f 174//174 171//171 173//173
# 344 faces, 0 coords texture

# End of File
