####
#
# OBJ File Generated by Meshlab
#
####
# Object thumb_distal.obj
#
# Vertices: 59
# Faces: 114
#
####
vn -2.144687 -0.584029 -2.180756
v -0.010878 -0.000115 0.000184
vn 1.533893 0.023792 4.783695
v 0.003083 -0.000593 0.034949
vn 2.150798 -0.604253 -2.231550
v 0.010891 -0.000011 0.000095
vn 0.580633 -5.399356 -1.640124
v 0.003855 -0.009718 0.011093
vn 0.474020 3.213740 -2.704399
v 0.003389 0.008977 0.000566
vn -3.403803 -4.120266 1.208641
v -0.007158 -0.007826 0.022756
vn 5.733027 -1.657999 0.963380
v 0.009737 -0.002880 0.022009
vn 2.691969 -3.894608 -1.760701
v 0.009032 -0.006778 0.007731
vn -3.471964 3.525534 1.996137
v -0.007559 0.005446 0.028797
vn -0.632849 3.144543 -2.658203
v -0.004685 0.008864 0.000560
vn 0.777636 -5.511251 2.346868
v 0.001950 -0.007255 0.029022
vn -1.994094 -5.038434 -1.396431
v -0.006326 -0.009013 0.010458
vn 3.876685 3.408503 2.205325
v 0.007788 0.004916 0.027681
vn -0.624914 -5.381768 -1.636066
v -0.003939 -0.009709 0.011084
vn 3.356824 -2.877826 -1.772624
v 0.010521 -0.004020 0.004703
vn -4.107755 -1.660780 3.709415
v -0.006146 -0.002167 0.032465
vn -5.895811 -0.841743 1.055821
v -0.009813 -0.001241 0.022921
vn 1.985005 2.215549 -2.296183
v 0.007992 0.007400 0.000483
vn -1.233737 5.598195 1.484060
v -0.003606 0.007569 0.027432
vn -2.139857 2.315644 -2.333341
v -0.007554 0.007709 0.000603
vn 3.610819 -3.852789 2.047501
v 0.006530 -0.005632 0.028956
vn -3.365575 -2.645000 -1.754689
v -0.010534 -0.003970 0.004658
vn 5.939673 1.627042 0.306415
v 0.010143 0.003250 0.015183
vn -0.733930 -6.135983 0.497517
v -0.002835 -0.009643 0.015660
vn 3.341063 -2.464113 -1.900761
v 0.010739 -0.002785 0.003286
vn 5.443562 -2.637254 0.547824
v 0.009725 -0.005020 0.015976
vn 0.217920 3.247797 3.793794
v 0.000000 0.005245 0.033402
vn -1.888250 -3.469303 3.868228
v -0.004149 -0.004405 0.032732
vn -5.833364 1.940960 0.294076
v -0.009997 0.003209 0.015181
vn -5.363165 0.599931 1.845101
v -0.008762 0.002295 0.029294
vn -4.192229 -3.365095 2.264614
v -0.006634 -0.005045 0.028844
vn 1.540635 5.288068 1.697564
v 0.003611 0.007568 0.027433
vn -0.577973 6.219031 0.311833
v -0.002854 0.008406 0.015034
vn -3.676230 4.427070 0.313710
v -0.007932 0.007032 0.015289
vn 1.179901 -3.784019 4.124378
v 0.003336 -0.004682 0.032813
vn 4.186146 -0.032670 3.181891
v 0.007625 -0.000967 0.031626
vn 1.232545 -5.869912 1.178722
v 0.003869 -0.008649 0.022605
vn -2.732329 -3.855174 -1.770210
v -0.009145 -0.006632 0.007599
vn -6.204138 -0.603347 0.391365
v -0.010304 -0.002120 0.015797
vn 5.348896 0.998784 1.797243
v 0.009230 0.001906 0.027657
vn 3.654687 4.191329 0.324829
v 0.008478 0.007008 0.015353
vn -0.813910 -6.040210 1.130386
v -0.003870 -0.008652 0.022591
vn 6.202362 -0.644568 0.336586
v 0.010449 -0.002274 0.013407
vn 3.342988 -4.937896 0.573436
v 0.006966 -0.008363 0.016034
vn -1.376111 -0.278557 5.128823
v -0.002897 -0.000633 0.034852
vn -6.228123 0.487009 0.350799
v -0.010340 0.000894 0.015080
vn 0.739574 6.184413 0.298527
v 0.002853 0.008406 0.015034
vn -0.885059 -5.405370 2.442095
v -0.001950 -0.007256 0.029022
vn 3.454017 -2.652203 3.923697
v 0.005895 -0.003366 0.032304
vn 0.787817 -6.118818 0.515719
v 0.002835 -0.009643 0.015660
vn -3.440455 -5.111716 0.296734
v -0.006967 -0.008364 0.016020
vn -5.588875 -2.422630 0.505566
v -0.009725 -0.005021 0.015963
vn 6.223702 0.522839 0.171035
v 0.010585 0.001112 0.010907
vn 6.237097 0.235806 0.520157
v 0.010095 0.000674 0.019252
vn 3.596512 -4.664506 1.154591
v 0.006540 -0.007534 0.022607
vn 1.886981 -5.100525 -1.385512
v 0.006116 -0.009110 0.010545
vn -3.907816 0.799830 3.518145
v -0.007651 0.001701 0.031555
vn -0.370545 6.246293 0.387449
v -0.002614 0.008192 0.019123
vn 0.370859 6.246247 0.387520
v 0.002614 0.008192 0.019123
# 59 vertices, 0 vertices normals

f 8//8 1//1 3//3
f 10//10 3//3 1//1
f 14//14 8//8 4//4
f 14//14 1//1 8//8
f 14//14 6//6 12//12
f 18//18 10//10 5//5
f 18//18 3//3 10//10
f 20//20 10//10 1//1
f 23//23 3//3 18//18
f 24//24 14//14 4//4
f 24//24 6//6 14//14
f 25//25 15//15 8//8
f 25//25 8//8 3//3
f 26//26 8//8 15//15
f 26//26 7//7 21//21
f 27//27 19//19 9//9
f 27//27 2//2 13//13
f 29//29 20//20 1//1
f 30//30 9//9 29//29
f 31//31 17//17 6//6
f 31//31 28//28 16//16
f 31//31 6//6 28//28
f 31//31 30//30 17//17
f 31//31 16//16 30//30
f 32//32 27//27 13//13
f 32//32 19//19 27//27
f 33//33 5//5 10//10
f 33//33 10//10 19//19
f 34//34 19//19 10//10
f 34//34 10//10 20//20
f 34//34 9//9 19//19
f 34//34 29//29 9//9
f 34//34 20//20 29//29
f 35//35 11//11 21//21
f 36//36 13//13 2//2
f 36//36 21//21 7//7
f 37//37 21//21 11//11
f 38//38 14//14 12//12
f 38//38 22//22 1//1
f 38//38 1//1 14//14
f 39//39 1//1 22//22
f 40//40 36//36 7//7
f 40//40 13//13 36//36
f 41//41 23//23 18//18
f 41//41 32//32 13//13
f 41//41 40//40 23//23
f 41//41 13//13 40//40
f 41//41 18//18 5//5
f 42//42 6//6 24//24
f 43//43 15//15 25//25
f 43//43 26//26 15//15
f 43//43 7//7 26//26
f 43//43 25//25 3//3
f 44//44 8//8 26//26
f 45//45 2//2 27//27
f 45//45 16//16 28//28
f 45//45 35//35 2//2
f 45//45 28//28 35//35
f 46//46 30//30 29//29
f 46//46 17//17 30//30
f 46//46 39//39 17//17
f 46//46 29//29 1//1
f 46//46 1//1 39//39
f 47//47 5//5 33//33
f 47//47 41//41 5//5
f 47//47 32//32 41//41
f 48//48 35//35 28//28
f 48//48 11//11 35//35
f 48//48 42//42 37//37
f 48//48 37//37 11//11
f 48//48 28//28 6//6
f 48//48 6//6 42//42
f 49//49 35//35 21//21
f 49//49 21//21 36//36
f 49//49 36//36 2//2
f 49//49 2//2 35//35
f 50//50 24//24 4//4
f 50//50 42//42 24//24
f 50//50 37//37 42//42
f 50//50 44//44 37//37
f 51//51 38//38 12//12
f 51//51 12//12 6//6
f 51//51 6//6 38//38
f 52//52 39//39 22//22
f 52//52 22//22 38//38
f 52//52 38//38 6//6
f 52//52 6//6 17//17
f 52//52 17//17 39//39
f 53//53 43//43 3//3
f 53//53 3//3 23//23
f 54//54 40//40 7//7
f 54//54 7//7 43//43
f 54//54 43//43 53//53
f 54//54 53//53 23//23
f 54//54 23//23 40//40
f 55//55 44//44 26//26
f 55//55 26//26 21//21
f 55//55 21//21 37//37
f 55//55 37//37 44//44
f 56//56 4//4 8//8
f 56//56 8//8 44//44
f 56//56 50//50 4//4
f 56//56 44//44 50//50
f 57//57 30//30 16//16
f 57//57 16//16 45//45
f 57//57 9//9 30//30
f 57//57 45//45 27//27
f 57//57 27//27 9//9
f 58//58 33//33 19//19
f 59//59 33//33 58//58
f 59//59 58//58 19//19
f 59//59 19//19 32//32
f 59//59 32//32 47//47
f 59//59 47//47 33//33
# 114 faces, 0 coords texture

# End of File
