####
#
# OBJ File Generated by Meshlab
#
####
# Object link_finger_tip.obj
#
# Vertices: 121
# Faces: 238
#
####
vn 0.641497 0.089480 -6.135368
v 0.004451 -0.010996 -0.004155
vn -0.229604 1.679890 4.434976
v -0.007500 -0.010538 0.043960
vn -4.658768 2.692074 -0.621938
v -0.016449 0.001821 0.004666
vn 2.538730 4.383549 -0.689525
v 0.015983 0.002300 0.004392
vn -3.392015 -2.562808 -1.193239
v -0.019436 -0.015885 0.004000
vn 4.714048 -2.647402 1.025226
v 0.017412 -0.015914 0.022071
vn -2.824225 3.368530 1.519916
v -0.014914 -0.002681 0.029825
vn -1.773798 3.078444 -4.020832
v -0.010284 0.001857 -0.001987
vn 3.152243 1.776834 3.284867
v 0.012749 -0.009843 0.041594
vn 2.958967 -2.724747 -2.274742
v 0.018964 -0.015833 0.003097
vn -1.021184 -5.705588 1.314921
v -0.009804 -0.017219 0.038497
vn -1.733352 5.579535 1.125319
v -0.014540 0.001029 0.014528
vn -6.151487 0.661232 0.194499
v -0.019520 -0.011864 0.005687
vn 2.026880 1.587189 -4.915760
v 0.010310 0.000845 -0.002464
vn -0.452160 6.103498 -0.334438
v -0.010073 0.002993 0.000456
vn -4.810884 0.732549 -3.843137
v -0.018567 -0.011744 0.002707
vn 3.012469 3.276278 1.782243
v 0.014896 -0.002909 0.030203
vn -0.815999 -2.848684 -3.072080
v -0.006250 -0.016868 -0.003651
vn -4.791430 1.141396 2.582247
v -0.013664 -0.009578 0.040187
vn 1.266089 -3.919755 4.358173
v 0.009406 -0.015304 0.041813
vn 0.559871 -6.243732 0.081133
v 0.011298 -0.017227 0.027914
vn -2.354691 4.866971 -0.532596
v -0.015884 0.002324 0.004377
vn -2.089832 1.200544 -5.081830
v -0.010307 0.000374 -0.002573
vn 0.800562 -2.881254 -3.052602
v 0.006118 -0.016940 -0.003622
vn 4.940102 0.749176 -3.570596
v 0.019082 -0.011647 0.003325
vn 1.150216 5.901532 1.207800
v 0.014361 0.000772 0.015828
vn 1.131315 5.154092 -2.379548
v 0.010086 0.002757 -0.000871
vn -5.597666 0.695251 -1.820637
v -0.019411 -0.011668 0.003996
vn 4.549030 1.638857 2.477804
v 0.013674 -0.009293 0.039944
vn 0.016597 5.790543 2.264454
v 0.006201 -0.002437 0.029498
vn 1.126783 2.862478 4.453165
v 0.010256 -0.010370 0.043303
vn -0.478889 -6.256238 -0.174497
v -0.011881 -0.017137 0.010591
vn -3.485179 -0.674439 -5.033675
v -0.017902 -0.014203 0.001900
vn -2.897620 -3.023812 4.067889
v -0.011181 -0.014772 0.041453
vn -2.784238 1.662555 3.581820
v -0.012251 -0.010039 0.042141
vn -4.657063 -2.653027 1.000278
v -0.017411 -0.015914 0.022040
vn 4.787384 -2.140723 2.917917
v 0.012936 -0.014024 0.039957
vn 3.387558 -3.482135 0.355721
v 0.018646 -0.016463 0.012131
vn 1.051434 -5.697849 1.317560
v 0.009890 -0.017191 0.038476
vn -1.358404 5.235263 -2.340903
v -0.010338 0.002756 -0.000593
vn -4.088647 2.818925 -3.046588
v -0.016005 0.001987 0.003968
vn 0.051890 1.568343 -6.017795
v 0.004451 0.000406 -0.002712
vn -0.604577 0.070686 -6.168014
v -0.004451 -0.011666 -0.004087
vn 3.661773 -0.471347 -4.823317
v 0.017929 -0.014178 0.001899
vn 2.275433 0.244976 -5.677546
v 0.010298 -0.000501 -0.002552
vn 4.598763 2.411957 -2.664984
v 0.016223 0.001863 0.004187
vn 0.022456 6.184448 -0.210215
v 0.004485 0.002994 0.000202
vn 2.575876 4.860748 0.903070
v 0.015601 0.001623 0.009701
vn 1.880551 3.363878 -4.052780
v 0.010310 0.001965 -0.001844
vn -2.859147 -2.812941 -2.527186
v -0.018764 -0.015817 0.002903
vn 6.155575 0.462447 0.959182
v 0.017461 -0.011869 0.022057
vn -0.017238 5.510286 3.018627
v -0.006242 -0.002821 0.030138
vn 2.201739 4.986805 1.539854
v 0.014713 -0.002396 0.029048
vn 0.132858 -1.505383 6.036963
v 0.007505 -0.011479 0.043640
vn -3.405483 -3.216469 0.352662
v -0.018646 -0.016474 0.012222
vn -2.778672 -5.017342 -0.289948
v -0.019306 -0.016125 0.005635
vn 0.005635 -6.273614 -0.116052
v 0.000044 -0.017612 0.010530
vn -3.946512 0.071836 -4.631139
v -0.018000 -0.013075 0.001900
vn -0.619556 -3.319622 4.987944
v -0.008819 -0.014577 0.042432
vn -1.762044 1.624453 4.129964
v -0.010526 -0.010440 0.043316
vn -3.392438 3.951803 3.337456
v -0.013356 -0.009342 0.040315
vn -4.638068 -2.154304 3.181084
v -0.012729 -0.014026 0.040252
vn -6.155623 0.435017 0.977083
v -0.017455 -0.011863 0.022047
vn 5.597641 -1.611741 1.836654
v 0.013725 -0.013692 0.038344
vn 3.383958 -2.622215 4.108058
v 0.011557 -0.014246 0.041456
vn 2.721431 -5.092113 -0.187295
v 0.019306 -0.016124 0.005638
vn 0.838928 -4.998670 3.294777
v 0.009110 -0.016221 0.040817
vn 4.092916 -3.363157 0.691482
v 0.018021 -0.016375 0.017088
vn 3.015512 -4.493046 2.197567
v 0.011641 -0.016319 0.039112
vn -0.023697 5.062090 -3.572033
v -0.004465 0.002422 -0.001408
vn -0.039853 2.369944 -5.779536
v -0.004474 0.001054 -0.002435
vn 2.541658 -3.183395 -4.179912
v 0.017204 -0.015840 0.001931
vn 4.107280 0.395534 -4.662897
v 0.017929 -0.013072 0.001957
vn 1.756165 -0.063549 -6.032086
v 0.006250 -0.012948 -0.003629
vn 6.170877 0.757481 0.453782
v 0.019418 -0.011698 0.005807
vn 0.575007 6.128069 -0.245174
v 0.010299 0.002914 0.000319
vn -0.032135 5.934956 -1.835444
v -0.004593 0.002866 -0.000484
vn 5.293016 2.436895 -0.309512
v 0.016514 0.001608 0.004822
vn -2.593013 -3.061881 -4.343216
v -0.017205 -0.015841 0.001930
vn 6.185002 -0.103123 1.051886
v 0.017470 -0.014529 0.021968
vn 5.816926 1.434559 1.566783
v 0.014900 -0.003719 0.031035
vn 1.011513 0.056749 5.612735
v 0.009259 -0.010987 0.043668
vn -0.524620 -6.247667 0.074370
v -0.010987 -0.017268 0.028091
vn -3.827920 -3.147218 0.566747
v -0.018025 -0.016371 0.017142
vn -2.789889 -5.043379 0.055392
v -0.018793 -0.016418 0.010756
vn -5.558490 -1.934949 0.193371
v -0.019464 -0.015927 0.005835
vn -0.259882 -6.275650 -0.104325
v -0.007989 -0.017345 0.011888
vn 0.442387 -6.260976 -0.120548
v 0.011370 -0.017180 0.012102
vn -0.822063 -4.927683 3.386601
v -0.009188 -0.016328 0.040603
vn -0.233049 -2.108047 5.904305
v -0.007507 -0.011484 0.043641
vn 1.287513 -2.597879 5.257121
v 0.009409 -0.014133 0.042601
vn -1.318335 -0.658863 5.795067
v -0.009324 -0.010951 0.043662
vn -5.523479 -1.723100 1.925661
v -0.013684 -0.013723 0.038471
vn -3.006636 -4.515372 2.165757
v -0.011614 -0.016328 0.039167
vn -5.547209 1.790749 1.771111
v -0.014896 -0.003668 0.030998
vn 2.661050 0.911000 4.445105
v 0.011248 -0.010511 0.042970
vn 3.495776 -2.710485 -0.878012
v 0.019484 -0.015929 0.004312
vn 3.600018 -3.287117 0.486363
v 0.018210 -0.016445 0.015612
vn 4.047687 -4.384753 0.885417
v 0.017560 -0.016078 0.020685
vn 4.736003 -3.552664 1.802331
v 0.012809 -0.015415 0.038277
vn -0.002196 5.141436 -3.501923
v 0.004469 0.002559 -0.001218
vn 0.026518 2.925304 -5.527535
v 0.004465 0.001147 -0.002404
vn 6.163448 0.953169 0.751044
v 0.018640 -0.011687 0.012181
vn 5.732178 0.590824 -1.363084
v 0.019496 -0.011843 0.004048
vn 5.356298 -2.171626 0.459003
v 0.019315 -0.016046 0.007194
vn 0.125849 3.252138 4.726303
v 0.007514 -0.010529 0.043622
vn -6.258144 -0.100460 0.269823
v -0.019504 -0.014413 0.005801
vn -4.407062 -3.922832 0.257185
v -0.019258 -0.016155 0.007058
vn 2.982424 -4.703716 0.118513
v 0.018789 -0.016422 0.010751
vn -1.822636 -2.473891 5.263418
v -0.009782 -0.014054 0.042491
vn -5.568456 -1.968413 1.489065
v -0.017106 -0.015759 0.023387
vn -4.707459 -3.555037 1.848459
v -0.012767 -0.015445 0.038340
vn -3.825363 -4.762103 0.918141
v -0.017565 -0.016058 0.020689
vn 5.541630 -1.914689 0.278883
v 0.019459 -0.015931 0.005855
vn 6.235445 0.012917 0.767225
v 0.018724 -0.014308 0.012052
vn -6.230192 -0.011039 0.793868
v -0.018195 -0.013393 0.016513
vn 0.585432 -6.248814 -0.294812
v 0.012353 -0.016802 0.005652
vn 6.255729 0.096802 0.496728
v 0.019437 -0.012836 0.005927
vn 6.234263 0.065928 0.771100
v 0.018105 -0.013128 0.017026
vn -6.240022 -0.022778 0.713499
v -0.019432 -0.013392 0.006611
vn -6.219251 -0.076567 0.886949
v -0.017526 -0.014187 0.021423
# 121 vertices, 0 vertices normals

f 13//13 7//7 3//3
f 22//22 3//3 7//7
f 22//22 7//7 12//12
f 22//22 12//12 15//15
f 24//24 18//18 1//1
f 28//28 13//13 3//3
f 28//28 5//5 13//13
f 29//29 17//17 9//9
f 30//30 2//2 17//17
f 30//30 26//26 12//12
f 30//30 12//12 7//7
f 31//31 17//17 2//2
f 31//31 9//9 17//17
f 33//33 23//23 18//18
f 37//37 29//29 9//9
f 39//39 21//21 38//38
f 40//40 22//22 15//15
f 41//41 3//3 22//22
f 41//41 40//40 8//8
f 41//41 22//22 40//40
f 41//41 8//8 23//23
f 41//41 23//23 16//16
f 41//41 28//28 3//3
f 41//41 16//16 28//28
f 42//42 14//14 1//1
f 42//42 1//1 23//23
f 43//43 23//23 1//1
f 43//43 1//1 18//18
f 43//43 18//18 23//23
f 44//44 25//25 10//10
f 45//45 1//1 14//14
f 45//45 44//44 24//24
f 46//46 25//25 14//14
f 47//47 15//15 12//12
f 47//47 12//12 26//26
f 48//48 47//47 26//26
f 49//49 46//46 14//14
f 49//49 27//27 4//4
f 49//49 4//4 46//46
f 50//50 28//28 16//16
f 50//50 5//5 28//28
f 50//50 18//18 5//5
f 52//52 30//30 7//7
f 52//52 7//7 2//2
f 52//52 2//2 30//30
f 53//53 30//30 17//17
f 53//53 26//26 30//30
f 53//53 48//48 26//26
f 53//53 17//17 48//48
f 56//56 5//5 18//18
f 56//56 18//18 32//32
f 57//57 18//18 24//24
f 57//57 21//21 39//39
f 57//57 39//39 11//11
f 58//58 16//16 23//23
f 58//58 23//23 33//33
f 58//58 50//50 16//16
f 58//58 33//33 50//50
f 60//60 2//2 7//7
f 60//60 7//7 35//35
f 60//60 35//35 34//34
f 61//61 35//35 7//7
f 61//61 7//7 19//19
f 61//61 19//19 35//35
f 62//62 35//35 19//19
f 62//62 34//34 35//35
f 63//63 36//36 19//19
f 63//63 7//7 13//13
f 64//64 6//6 29//29
f 64//64 29//29 37//37
f 65//65 37//37 9//9
f 67//67 11//11 39//39
f 69//69 39//39 68//68
f 69//69 37//37 65//65
f 69//69 67//67 39//39
f 69//69 65//65 20//20
f 69//69 20//20 67//67
f 70//70 8//8 40//40
f 70//70 49//49 8//8
f 71//71 42//42 23//23
f 71//71 23//23 8//8
f 72//72 44//44 10//10
f 72//72 10//10 24//24
f 72//72 24//24 44//44
f 73//73 14//14 25//25
f 73//73 25//25 44//44
f 73//73 45//45 14//14
f 73//73 44//44 45//45
f 74//74 45//45 24//24
f 74//74 24//24 1//1
f 74//74 1//1 45//45
f 76//76 4//4 27//27
f 76//76 27//27 47//47
f 76//76 48//48 4//4
f 76//76 47//47 48//48
f 77//77 40//40 15//15
f 77//77 15//15 47//47
f 77//77 47//47 27//27
f 77//77 70//70 40//40
f 77//77 27//27 70//70
f 78//78 46//46 4//4
f 78//78 4//4 48//48
f 78//78 48//48 17//17
f 78//78 17//17 75//75
f 79//79 50//50 33//33
f 79//79 33//33 18//18
f 79//79 18//18 50//50
f 80//80 51//51 29//29
f 80//80 29//29 6//6
f 81//81 51//51 17//17
f 81//81 17//17 29//29
f 81//81 29//29 51//51
f 82//82 2//2 54//54
f 83//83 55//55 32//32
f 83//83 11//11 55//55
f 83//83 57//57 11//11
f 84//84 55//55 11//11
f 85//85 56//56 32//32
f 85//85 32//32 55//55
f 86//86 5//5 56//56
f 87//87 32//32 18//18
f 87//87 18//18 57//57
f 87//87 83//83 32//32
f 87//87 57//57 83//83
f 88//88 38//38 21//21
f 88//88 21//21 57//57
f 88//88 57//57 24//24
f 89//89 59//59 34//34
f 89//89 11//11 67//67
f 89//89 67//67 20//20
f 89//89 20//20 59//59
f 90//90 59//59 54//54
f 90//90 54//54 2//2
f 91//91 59//59 20//20
f 91//91 54//54 59//59
f 91//91 82//82 54//54
f 91//91 20//20 65//65
f 92//92 2//2 60//60
f 92//92 90//90 2//2
f 92//92 59//59 90//90
f 93//93 62//62 19//19
f 94//94 84//84 11//11
f 94//94 34//34 62//62
f 94//94 89//89 34//34
f 94//94 11//11 89//89
f 95//95 63//63 19//19
f 95//95 19//19 7//7
f 95//95 7//7 63//63
f 96//96 65//65 9//9
f 96//96 9//9 31//31
f 96//96 31//31 82//82
f 96//96 91//91 65//65
f 96//96 82//82 91//91
f 97//97 66//66 24//24
f 97//97 24//24 10//10
f 98//98 68//68 39//39
f 98//98 39//39 38//38
f 98//98 6//6 68//68
f 99//99 69//69 68//68
f 99//99 68//68 6//6
f 99//99 6//6 69//69
f 100//100 64//64 37//37
f 100//100 37//37 69//69
f 100//100 69//69 6//6
f 100//100 6//6 64//64
f 101//101 70//70 27//27
f 101//101 27//27 49//49
f 101//101 49//49 70//70
f 102//102 14//14 42//42
f 102//102 42//42 71//71
f 102//102 49//49 14//14
f 102//102 71//71 8//8
f 102//102 8//8 49//49
f 103//103 75//75 17//17
f 103//103 17//17 51//51
f 103//103 51//51 75//75
f 104//104 78//78 75//75
f 104//104 25//25 46//46
f 104//104 46//46 78//78
f 104//104 97//97 10//10
f 104//104 10//10 25//25
f 105//105 98//98 38//38
f 105//105 80//80 6//6
f 105//105 6//6 98//98
f 106//106 82//82 31//31
f 106//106 31//31 2//2
f 106//106 2//2 82//82
f 107//107 13//13 5//5
f 107//107 5//5 86//86
f 108//108 86//86 56//56
f 108//108 56//56 85//85
f 108//108 85//85 55//55
f 108//108 55//55 86//86
f 109//109 38//38 88//88
f 109//109 105//105 38//38
f 109//109 66//66 105//105
f 110//110 92//92 60//60
f 110//110 60//60 34//34
f 110//110 34//34 59//59
f 110//110 59//59 92//92
f 111//111 93//93 19//19
f 111//111 19//19 36//36
f 112//112 94//94 62//62
f 112//112 62//62 93//93
f 112//112 93//93 111//111
f 112//112 111//111 36//36
f 112//112 36//36 94//94
f 113//113 94//94 36//36
f 113//113 36//36 84//84
f 113//113 84//84 94//94
f 114//114 97//97 104//104
f 114//114 105//105 66//66
f 114//114 66//66 97//97
f 115//115 80//80 105//105
f 116//116 63//63 13//13
f 116//116 84//84 36//36
f 116//116 55//55 84//84
f 116//116 86//86 55//55
f 117//117 109//109 88//88
f 117//117 88//88 24//24
f 117//117 24//24 66//66
f 117//117 66//66 109//109
f 118//118 114//114 104//104
f 118//118 104//104 75//75
f 118//118 105//105 114//114
f 118//118 115//115 105//105
f 118//118 75//75 51//51
f 119//119 51//51 80//80
f 119//119 80//80 115//115
f 119//119 118//118 51//51
f 119//119 115//115 118//118
f 120//120 116//116 13//13
f 120//120 13//13 107//107
f 120//120 107//107 86//86
f 120//120 86//86 116//116
f 121//121 116//116 36//36
f 121//121 36//36 63//63
f 121//121 63//63 116//116
# 238 faces, 0 coords texture

# End of File
