####
#
# OBJ File Generated by Meshlab
#
####
# Object right_outer_knuckle.obj
#
# Vertices: 52
# Faces: 100
#
####
vn -2.748894 -3.070204 0.260417
v -0.005900 -0.051464 0.023337
vn 2.770765 3.447060 0.294165
v 0.003900 0.025904 -0.001152
vn 2.777301 1.028471 3.240595
v 0.004500 -0.033676 0.047766
vn 2.945242 -1.701573 -2.622868
v 0.005900 -0.048779 0.018474
vn -2.933611 1.854788 2.906453
v -0.004500 -0.031825 0.046808
vn 3.131523 -2.616295 1.551193
v 0.005900 -0.044240 0.038133
vn -2.945243 -0.866923 -3.003869
v -0.005900 -0.001604 -0.005558
vn 2.790658 2.742852 2.525069
v 0.003900 0.024160 0.002564
vn 2.748894 -3.070203 0.260417
v 0.005900 -0.051464 0.023337
vn 3.127893 -0.049670 -3.022428
v 0.005900 0.009455 -0.006824
vn -2.651057 -2.637926 3.028382
v -0.004500 -0.039530 0.046452
vn -2.945245 -1.701573 -2.622868
v -0.005900 -0.048779 0.018474
vn -6.264572 0.171968 0.294826
v -0.005900 -0.033581 0.032621
vn 2.933611 1.854788 2.906453
v 0.004500 -0.031825 0.046808
vn -2.759971 3.217777 1.477092
v -0.003900 0.025360 0.000860
vn -2.945243 -2.904431 1.157179
v -0.005900 -0.050923 0.025212
vn 6.148863 0.658135 0.566855
v 0.005900 0.010470 0.005134
vn 3.043422 -1.303010 -2.854471
v 0.005900 -0.004700 -0.004324
vn 2.651057 -2.637926 3.028383
v 0.004500 -0.039530 0.046452
vn -2.768709 -0.133244 3.473634
v -0.004500 -0.035742 0.048032
vn -2.748893 -2.936155 -0.934322
v -0.005900 -0.051246 0.021399
vn 6.264572 0.171968 0.294826
v 0.005900 -0.033581 0.032621
vn -2.790658 2.742852 2.525068
v -0.003900 0.024160 0.002564
vn -2.619404 1.191867 -3.935163
v -0.003900 0.021497 -0.007482
vn 2.759971 3.217777 1.477092
v 0.003900 0.025360 0.000860
vn 2.945243 -2.904432 1.157180
v 0.005900 -0.050923 0.025212
vn -1.967240 -4.489004 3.042256
v -0.004500 -0.040794 0.044795
vn -3.131522 -2.616295 1.551193
v -0.005900 -0.044240 0.038133
vn 2.770765 3.348268 -0.870549
v 0.003900 0.025728 -0.003228
vn 3.043418 -0.418293 -3.109803
v 0.005900 0.001673 -0.006163
vn -3.043417 -1.303010 -2.854472
v -0.005900 -0.004700 -0.004324
vn 2.768709 -0.133244 3.473634
v 0.004500 -0.035742 0.048032
vn -2.777301 1.028471 3.240595
v -0.004500 -0.033676 0.047766
vn -2.748896 -2.355105 -1.986819
v -0.005900 -0.050303 0.019691
vn 2.748893 -2.936155 -0.934322
v 0.005900 -0.051246 0.021399
vn -6.148863 0.658135 0.566855
v -0.005900 0.010470 0.005134
vn -3.127893 -0.049670 -3.022428
v -0.005900 0.009455 -0.006824
vn 1.967240 -4.489003 3.042255
v 0.004500 -0.040794 0.044795
vn -2.745067 -1.351278 3.371566
v -0.004500 -0.037776 0.047576
vn 2.619404 1.191867 -3.935163
v 0.003900 0.021497 -0.007482
vn -2.770765 3.348269 -0.870549
v -0.003900 0.025728 -0.003228
vn 2.945242 -0.866923 -3.003869
v 0.005900 -0.001604 -0.005558
vn 2.745067 -1.351278 3.371566
v 0.004500 -0.037776 0.047576
vn 2.748896 -2.355105 -1.986819
v 0.005900 -0.050303 0.019691
vn -3.043423 -0.418293 -3.109803
v -0.005900 0.001673 -0.006163
vn 2.730735 2.181062 -2.998188
v 0.003900 0.023383 -0.006596
vn 1.887605 0.186791 -5.491190
v 0.003900 0.019421 -0.007669
vn -2.730735 2.181062 -2.998188
v -0.003900 0.023383 -0.006596
vn -2.770765 3.447060 0.294165
v -0.003900 0.025904 -0.001152
vn 2.759972 2.923022 -1.997958
v 0.003900 0.024852 -0.005119
vn -1.887605 0.186791 -5.491190
v -0.003900 0.019421 -0.007669
vn -2.759972 2.923022 -1.997958
v -0.003900 0.024852 -0.005119
# 52 vertices, 0 vertices normals

f 14//14 8//8 5//5
f 17//17 8//8 14//14
f 22//22 14//14 3//3
f 22//22 3//3 6//6
f 22//22 17//17 14//14
f 23//23 5//5 8//8
f 25//25 2//2 15//15
f 25//25 23//23 8//8
f 25//25 15//15 23//23
f 25//25 17//17 2//2
f 25//25 8//8 17//17
f 26//26 6//6 16//16
f 26//26 16//16 1//1
f 26//26 1//1 9//9
f 28//28 27//27 11//11
f 28//28 16//16 6//6
f 28//28 6//6 27//27
f 29//29 17//17 10//10
f 29//29 2//2 17//17
f 31//31 18//18 4//4
f 31//31 4//4 12//12
f 32//32 6//6 3//3
f 33//33 32//32 3//3
f 33//33 20//20 32//32
f 33//33 14//14 5//5
f 33//33 3//3 14//14
f 33//33 28//28 20//20
f 33//33 5//5 13//13
f 33//33 13//13 28//28
f 35//35 1//1 21//21
f 35//35 9//9 1//1
f 36//36 13//13 5//5
f 36//36 5//5 23//23
f 36//36 23//23 15//15
f 38//38 27//27 6//6
f 38//38 6//6 19//19
f 38//38 19//19 11//11
f 38//38 11//11 27//27
f 39//39 28//28 11//11
f 39//39 20//20 28//28
f 41//41 2//2 29//29
f 41//41 37//37 36//36
f 42//42 31//31 7//7
f 42//42 18//18 31//31
f 43//43 19//19 6//6
f 43//43 6//6 32//32
f 43//43 39//39 11//11
f 43//43 11//11 19//19
f 43//43 32//32 20//20
f 43//43 20//20 39//39
f 44//44 35//35 21//21
f 44//44 21//21 34//34
f 44//44 34//34 12//12
f 44//44 12//12 4//4
f 44//44 9//9 35//35
f 44//44 4//4 18//18
f 44//44 18//18 42//42
f 44//44 26//26 9//9
f 44//44 6//6 26//26
f 44//44 22//22 6//6
f 44//44 17//17 22//22
f 44//44 10//10 17//17
f 44//44 42//42 30//30
f 44//44 30//30 10//10
f 45//45 7//7 31//31
f 45//45 42//42 7//7
f 45//45 30//30 42//42
f 45//45 31//31 12//12
f 45//45 12//12 34//34
f 45//45 34//34 21//21
f 45//45 21//21 1//1
f 45//45 1//1 16//16
f 45//45 16//16 28//28
f 45//45 28//28 13//13
f 45//45 13//13 36//36
f 45//45 36//36 37//37
f 46//46 10//10 40//40
f 47//47 40//40 10//10
f 47//47 10//10 30//30
f 48//48 24//24 37//37
f 48//48 46//46 40//40
f 48//48 40//40 24//24
f 49//49 15//15 2//2
f 49//49 2//2 41//41
f 49//49 41//41 36//36
f 49//49 36//36 15//15
f 50//50 29//29 10//10
f 50//50 10//10 46//46
f 51//51 37//37 24//24
f 51//51 45//45 37//37
f 51//51 24//24 40//40
f 51//51 40//40 47//47
f 51//51 47//47 30//30
f 51//51 30//30 45//45
f 52//52 48//48 37//37
f 52//52 37//37 41//41
f 52//52 50//50 46//46
f 52//52 46//46 48//48
f 52//52 41//41 29//29
f 52//52 29//29 50//50
# 100 faces, 0 coords texture

# End of File
