####
#
# OBJ File Generated by Meshlab
#
####
# Object right_inner_knuckle.obj
#
# Vertices: 81
# Faces: 158
#
####
vn -2.826998 0.231215 -3.146465
v -0.013500 0.000434 -0.005984
vn 2.825924 2.971299 1.198100
v 0.013500 0.005557 0.002262
vn 2.970899 -2.793221 -1.979940
v 0.013500 -0.040051 0.038170
vn -2.975328 2.746795 1.950663
v -0.013500 0.004586 0.003869
vn -2.970775 -2.793206 -1.979929
v -0.013500 -0.040051 0.038170
vn 2.824601 1.695377 2.755223
v 0.013500 -0.032299 0.047135
vn 2.825776 -1.681533 -2.727249
v 0.013500 -0.003166 -0.005097
vn -2.827100 2.673573 -1.662414
v -0.013500 0.005097 -0.003166
vn -2.824600 1.695377 2.755222
v -0.013500 -0.032299 0.047135
vn 2.975438 2.746810 1.950674
v 0.013500 0.004586 0.003869
vn -2.975002 -2.385661 -2.379261
v -0.013500 -0.004586 -0.003869
vn -2.826719 3.161373 0.224191
v -0.013500 0.005984 0.000434
vn 2.827101 1.188335 -2.915355
v 0.013500 0.002262 -0.005557
vn 0.000000 -0.000000 -0.000000
v -0.008500 -0.041449 0.041604
vn 2.826903 -2.037692 2.415419
v 0.013500 -0.039334 0.046625
vn -2.826903 -2.037693 2.415419
v -0.013500 -0.039334 0.046625
vn -2.826719 -0.753443 -3.078460
v -0.013500 -0.001436 -0.005826
vn 2.975356 -2.385702 -2.379298
v 0.013500 -0.004586 -0.003869
vn -2.825438 2.971270 1.198084
v -0.013500 0.005557 0.002262
vn 2.826996 3.062624 -0.757874
v 0.013500 0.005826 -0.001436
vn -2.827101 1.188336 -2.915356
v -0.013500 0.002262 -0.005557
vn 0.000000 0.000000 0.000000
v -0.008500 -0.041022 0.039776
vn 2.826663 -0.233329 3.163272
v 0.013500 -0.035899 0.048023
vn 2.826663 -3.078875 0.762790
v 0.013500 -0.041290 0.043475
vn -2.826666 -0.233329 3.163274
v -0.013500 -0.035899 0.048023
vn -2.826663 -3.078876 0.762790
v -0.013500 -0.041290 0.043475
vn 2.971197 2.422383 2.420120
v 0.013500 -0.030879 0.045908
vn -2.970924 2.422350 2.420090
v -0.013500 -0.030879 0.045908
vn -2.825776 -1.681533 -2.727250
v -0.013500 -0.003166 -0.005097
vn 2.826719 -0.753443 -3.078460
v 0.013500 -0.001436 -0.005826
vn 2.826725 3.161372 0.224191
v 0.013500 0.005984 0.000434
vn -2.826995 3.062623 -0.757874
v -0.013500 0.005826 -0.001436
vn 2.827100 2.673573 -1.662414
v 0.013500 0.005097 -0.003166
vn -2.827130 2.028742 -2.404805
v -0.013500 0.003869 -0.004586
vn -2.824617 -3.001057 -1.206979
v -0.013500 -0.041022 0.039776
vn 2.826044 -3.182816 -0.224154
v 0.013500 -0.041449 0.041604
vn 2.826184 0.757010 3.099618
v 0.013500 -0.034029 0.047864
vn 2.826852 -2.685740 1.670552
v 0.013500 -0.040561 0.045205
vn -2.826184 0.757010 3.099618
v -0.013500 -0.034029 0.047864
vn -2.826851 -2.685741 1.670553
v -0.013500 -0.040561 0.045205
vn 2.826992 0.231214 -3.146466
v 0.013500 0.000434 -0.005984
vn 2.827130 2.028742 -2.404805
v 0.013500 0.003869 -0.004586
vn -2.826047 -3.182812 -0.224153
v -0.013500 -0.041449 0.041604
vn 2.824617 -3.001050 -1.206977
v 0.013500 -0.041022 0.039776
vn -2.826853 -1.194295 2.928703
v -0.013500 -0.037727 0.047596
vn 2.826853 -1.194295 2.928705
v 0.013500 -0.037727 0.047596
vn 0.000000 4.001606 -4.743359
v -0.010000 0.003869 -0.004586
vn -6.281888 -0.019853 0.084873
v -0.014068 -0.018699 0.026751
vn -6.244182 0.352169 0.332642
v -0.014068 -0.017983 0.026751
vn -6.247541 -0.345272 -0.308210
v -0.014068 -0.023285 0.022167
vn 6.244151 0.352313 0.332734
v 0.014068 -0.017983 0.026751
vn 6.282437 0.015139 -0.064188
v 0.014068 -0.022569 0.022167
vn 6.281439 -0.096653 0.023831
v 0.014068 -0.023285 0.022882
vn -6.147458 0.981711 0.834631
v -0.013992 -0.017618 0.026970
vn -6.226157 0.602230 0.477184
v -0.014066 -0.017921 0.026703
vn -6.282181 0.073275 -0.018114
v -0.014068 -0.017983 0.026035
vn -6.282442 0.015146 -0.064179
v -0.014068 -0.022569 0.022167
vn -6.147242 -0.985319 -0.832212
v -0.013992 -0.023650 0.021948
vn -6.232440 -0.534560 -0.384846
v -0.014066 -0.023347 0.022214
vn -6.281444 -0.096669 0.023820
v -0.014068 -0.023285 0.022882
vn 6.281886 -0.019844 0.084883
v 0.014068 -0.018699 0.026751
vn 6.147457 0.981711 0.834630
v 0.013992 -0.017618 0.026970
vn 6.226161 0.602062 0.477048
v 0.014066 -0.017921 0.026703
vn 6.282183 0.073262 -0.018122
v 0.014068 -0.017983 0.026035
vn 6.247519 -0.345407 -0.308299
v 0.014068 -0.023285 0.022167
vn -6.237013 0.547453 0.441612
v -0.014066 -0.017937 0.026715
vn -6.191056 0.821364 0.683442
v -0.014060 -0.017848 0.026673
vn -6.193572 -0.815914 -0.664733
v -0.014060 -0.023420 0.022244
vn -6.245306 -0.469464 -0.339617
v -0.014066 -0.023331 0.022202
vn 6.179808 0.876143 0.721194
v 0.014050 -0.017771 0.026663
vn 6.191149 0.820931 0.683053
v 0.014060 -0.017849 0.026674
vn 6.213609 0.688600 0.626597
v 0.014066 -0.017937 0.026715
vn 6.147242 -0.985317 -0.832211
v 0.013992 -0.023650 0.021948
vn 6.232437 -0.534464 -0.384779
v 0.014066 -0.023347 0.022214
vn -6.194559 0.802246 0.676192
v -0.014060 -0.017852 0.026675
vn -6.179793 0.876222 0.721234
v -0.014050 -0.017771 0.026663
vn -6.198274 -0.792585 -0.652084
v -0.014060 -0.023416 0.022243
vn -6.180398 -0.877561 -0.714024
v -0.014050 -0.023497 0.022254
vn 6.180415 -0.877477 -0.713974
v 0.014050 -0.023497 0.022254
vn 6.216986 -0.675202 -0.608988
v 0.014066 -0.023331 0.022202
vn 6.193672 -0.815446 -0.664282
v 0.014060 -0.023419 0.022244
# 81 vertices, 0 vertices normals

f 18//18 3//3 5//5
f 18//18 5//5 11//11
f 19//19 10//10 2//2
f 19//19 4//4 10//10
f 28//28 27//27 10//10
f 28//28 10//10 4//4
f 28//28 9//9 6//6
f 28//28 6//6 27//27
f 29//29 18//18 11//11
f 29//29 7//7 18//18
f 30//30 17//17 1//1
f 30//30 29//29 17//17
f 30//30 7//7 29//29
f 31//31 19//19 2//2
f 31//31 12//12 19//19
f 32//32 31//31 20//20
f 32//32 12//12 31//31
f 33//33 32//32 20//20
f 33//33 8//8 32//32
f 39//39 25//25 23//23
f 39//39 23//23 37//37
f 39//39 37//37 6//6
f 39//39 6//6 9//9
f 40//40 26//26 24//24
f 40//40 24//24 38//38
f 40//40 38//38 15//15
f 40//40 15//15 16//16
f 41//41 30//30 1//1
f 41//41 21//21 13//13
f 41//41 1//1 21//21
f 43//43 14//14 22//22
f 43//43 24//24 26//26
f 43//43 36//36 24//24
f 44//44 14//14 43//43
f 44//44 22//22 14//14
f 44//44 43//43 22//22
f 44//44 36//36 43//43
f 44//44 35//35 5//5
f 44//44 43//43 35//35
f 44//44 5//5 3//3
f 46//46 45//45 16//16
f 46//46 16//16 15//15
f 46//46 23//23 25//25
f 46//46 25//25 45//45
f 47//47 33//33 42//42
f 47//47 42//42 13//13
f 47//47 34//34 8//8
f 47//47 8//8 33//33
f 47//47 13//13 21//21
f 47//47 21//21 34//34
f 48//48 45//45 25//25
f 48//48 16//16 45//45
f 49//49 48//48 25//25
f 49//49 25//25 39//39
f 49//49 39//39 9//9
f 49//49 9//9 28//28
f 49//49 19//19 12//12
f 50//50 1//1 17//17
f 50//50 17//17 29//29
f 50//50 29//29 11//11
f 51//51 37//37 23//23
f 51//51 6//6 37//37
f 51//51 27//27 6//6
f 51//51 31//31 2//2
f 52//52 13//13 42//42
f 52//52 41//41 13//13
f 53//53 24//24 36//36
f 53//53 38//38 24//24
f 53//53 15//15 38//38
f 54//54 28//28 4//4
f 55//55 4//4 19//19
f 56//56 49//49 12//12
f 56//56 12//12 32//32
f 56//56 32//32 8//8
f 56//56 8//8 34//34
f 57//57 21//21 1//1
f 57//57 1//1 50//50
f 57//57 34//34 21//21
f 57//57 56//56 34//34
f 58//58 11//11 5//5
f 59//59 5//5 35//35
f 59//59 35//35 43//43
f 60//60 50//50 43//43
f 60//60 43//43 26//26
f 60//60 26//26 40//40
f 60//60 40//40 16//16
f 60//60 16//16 48//48
f 60//60 57//57 50//50
f 60//60 48//48 49//49
f 60//60 49//49 56//56
f 60//60 56//56 57//57
f 61//61 51//51 23//23
f 61//61 23//23 46//46
f 61//61 46//46 15//15
f 61//61 15//15 53//53
f 62//62 10//10 27//27
f 63//63 51//51 2//2
f 63//63 2//2 10//10
f 64//64 20//20 31//31
f 64//64 31//31 51//51
f 64//64 33//33 20//20
f 64//64 42//42 33//33
f 64//64 52//52 42//42
f 65//65 30//30 41//41
f 65//65 41//41 52//52
f 65//65 7//7 30//30
f 65//65 18//18 7//7
f 65//65 52//52 64//64
f 65//65 61//61 53//53
f 65//65 53//53 36//36
f 65//65 64//64 51//51
f 65//65 51//51 61//61
f 66//66 55//55 19//19
f 66//66 19//19 49//49
f 66//66 49//49 28//28
f 66//66 28//28 55//55
f 67//67 28//28 54//54
f 68//68 11//11 58//58
f 69//69 59//59 43//43
f 69//69 43//43 50//50
f 69//69 50//50 11//11
f 69//69 11//11 59//59
f 70//70 10//10 62//62
f 71//71 62//62 27//27
f 71//71 27//27 63//63
f 71//71 10//10 70//70
f 71//71 70//70 62//62
f 71//71 63//63 10//10
f 72//72 63//63 27//27
f 72//72 27//27 51//51
f 72//72 51//51 63//63
f 73//73 3//3 18//18
f 74//74 44//44 3//3
f 74//74 65//65 36//36
f 74//74 36//36 44//44
f 75//75 55//55 28//28
f 75//75 28//28 67//67
f 75//75 67//67 4//4
f 75//75 4//4 55//55
f 76//76 67//67 54//54
f 76//76 54//54 4//4
f 76//76 4//4 67//67
f 77//77 59//59 11//11
f 77//77 11//11 68//68
f 77//77 68//68 5//5
f 77//77 5//5 59//59
f 78//78 68//68 58//58
f 78//78 58//58 5//5
f 78//78 5//5 68//68
f 79//79 3//3 73//73
f 80//80 74//74 18//18
f 80//80 18//18 65//65
f 80//80 65//65 74//74
f 81//81 74//74 3//3
f 81//81 3//3 79//79
f 81//81 79//79 73//73
f 81//81 18//18 74//74
f 81//81 73//73 18//18
# 158 faces, 0 coords texture

# End of File
