####
#
# OBJ File Generated by Meshlab
#
####
# Object right_finger.obj
#
# Vertices: 105
# Faces: 206
#
####
vn -2.712148 4.705156 0.204405
v -0.014750 0.026003 0.056753
vn 4.663611 -2.209561 1.688034
v 0.015804 0.019003 0.058239
vn 1.130294 5.687518 -1.442790
v 0.013513 0.026003 0.022826
vn -1.897335 -5.344699 1.773948
v -0.008000 -0.005346 0.002724
vn 5.590100 -2.087405 -1.298675
v 0.010100 -0.002559 -0.001566
vn 2.209607 4.666408 1.596989
v 0.014177 0.026003 0.058517
vn -3.997068 2.409467 -1.594196
v -0.016000 0.024003 0.021003
vn -0.767726 -5.463730 2.794382
v -0.003854 0.012003 0.052710
vn 6.103400 -0.617591 -0.549071
v 0.016000 0.019003 0.021003
vn 2.171828 3.303181 -4.063152
v 0.008000 0.004243 -0.004243
vn 2.346413 -4.242143 -2.162676
v 0.008000 -0.005346 -0.002724
vn -0.450647 -2.385418 4.953346
v -0.012000 0.019003 0.061003
vn -2.327437 2.139675 -4.289959
v -0.008000 0.002724 -0.005346
vn -5.703973 -1.594681 0.596157
v -0.016000 0.019003 0.057003
vn -1.585153 5.617812 -1.082225
v -0.014177 0.026003 0.023490
vn 5.702699 -1.596619 0.596044
v 0.016000 0.019003 0.057003
vn 3.997046 2.409514 -1.594169
v 0.016000 0.024003 0.021003
vn 2.346587 -0.745902 -4.702569
v 0.008000 -0.000939 -0.005926
vn -1.003447 4.796664 -3.187204
v -0.008000 0.024003 0.015518
vn 1.897335 -5.344698 1.773948
v 0.008000 -0.005346 0.002724
vn -0.455851 1.631978 5.691391
v -0.012000 0.024003 0.061003
vn 0.450647 -2.385418 4.953346
v 0.012000 0.019003 0.061003
vn -5.564430 -1.949876 -1.473750
v -0.010100 -0.002625 -0.001453
vn -5.691391 1.631977 0.455852
v -0.016000 0.024003 0.057003
vn -3.672888 -2.443377 2.765695
v -0.015236 0.019003 0.059354
vn -2.666609 4.796593 -0.068448
v -0.014750 0.026003 0.025253
vn 5.529805 -2.656930 0.080706
v 0.010100 -0.002996 -0.000154
vn 5.691391 1.631979 0.455848
v 0.016000 0.024003 0.057003
vn 2.666609 4.796597 -0.068448
v 0.014750 0.026003 0.025253
vn 5.565793 0.031483 -2.588034
v 0.010100 0.000077 -0.002999
vn 0.000000 -4.388178 -4.388188
v 0.004800 -0.004243 -0.004243
vn 2.346588 -3.367542 -3.366036
v 0.008000 -0.004243 -0.004243
vn -2.171828 3.303181 -4.063153
v -0.008000 0.004243 -0.004243
vn -0.108309 6.120146 -0.991410
v -0.011750 0.026003 0.022253
vn -1.130295 5.687518 -1.442790
v -0.013513 0.026003 0.022826
vn 1.003447 4.796664 -3.187204
v 0.008000 0.024003 0.015518
vn -0.156047 -5.330165 3.065712
v -0.002000 0.012003 0.053003
vn -0.204402 4.705160 2.712146
v -0.011750 0.026003 0.059753
vn 3.261118 1.644917 4.479795
v 0.014351 0.024003 0.060239
vn 1.601062 -5.546151 2.364449
v 0.005527 0.012003 0.051857
vn -5.495661 0.839788 -2.718293
v -0.010100 0.000949 -0.002846
vn -6.103337 -0.617441 -0.549485
v -0.016000 0.019003 0.021003
vn -5.483851 -2.893952 0.424551
v -0.010100 -0.002939 0.000601
vn -4.479787 1.644916 3.261116
v -0.015236 0.024003 0.059354
vn -4.663620 -2.209522 1.688188
v -0.015804 0.019003 0.058239
vn -2.232894 -5.484961 2.089923
v -0.006854 0.012003 0.050530
vn -1.500100 -2.410274 4.407474
v -0.013236 0.019003 0.060807
vn -2.233485 5.271761 -0.532315
v -0.014603 0.026003 0.024326
vn 5.586006 -2.345903 -0.843413
v 0.010100 -0.002828 -0.001000
vn 2.339848 -4.723638 0.706063
v 0.008000 -0.005926 0.000939
vn 5.285114 1.618112 1.733201
v 0.015804 0.024003 0.058239
vn 1.585153 5.617811 -1.082225
v 0.014177 0.026003 0.023490
vn 2.712147 4.705158 0.204405
v 0.014750 0.026003 0.056753
vn 5.595840 -1.388850 -2.006594
v 0.010100 -0.001700 -0.002472
vn 5.419752 1.229109 -2.793347
v 0.010100 0.001290 -0.002708
vn -2.346854 -0.743011 -4.702568
v -0.008000 -0.000939 -0.005926
vn 2.329798 2.137922 -4.286780
v 0.008000 0.002724 -0.005346
vn -2.349124 -4.238240 -2.160702
v -0.008000 -0.005346 -0.002724
vn -0.566342 5.945739 -1.291088
v -0.012677 0.026003 0.022400
vn 0.108309 6.120146 -0.991410
v 0.011750 0.026003 0.022253
vn 2.687686 -2.471557 3.664935
v 0.014351 0.019003 0.060239
vn 0.455851 1.631978 5.691391
v 0.012000 0.024003 0.061003
vn 0.156047 -5.330166 3.065713
v 0.002000 0.012003 0.053003
vn -5.360458 1.460724 -2.873315
v -0.010100 0.001520 -0.002586
vn -5.557214 -1.228284 -2.124454
v -0.010100 -0.001128 -0.002780
vn -5.572290 -0.257613 -2.528682
v -0.010100 -0.000291 -0.002986
vn -5.573780 -2.468142 -0.577623
v -0.010100 -0.002930 -0.000646
vn -5.557443 -2.624146 -0.062851
v -0.010100 -0.003000 -0.000023
vn -5.285118 1.618111 1.733202
v -0.015804 0.024003 0.058239
vn -1.596993 4.666404 2.209606
v -0.013513 0.026003 0.059180
vn -2.325600 -4.746498 0.699347
v -0.008000 -0.005926 0.000939
vn -1.601062 -5.546151 2.364448
v -0.005527 0.012003 0.051857
vn -2.687686 -2.471557 3.664934
v -0.014351 0.019003 0.060239
vn -1.733206 1.618110 5.285115
v -0.013236 0.024003 0.060807
vn 5.592653 -2.504492 -0.428040
v 0.010100 -0.002975 -0.000390
vn 4.479784 1.644917 3.261122
v 0.015236 0.024003 0.059354
vn 2.233485 5.271762 -0.532314
v 0.014603 0.026003 0.024326
vn 2.617259 4.631018 0.829463
v 0.014603 0.026003 0.057680
vn 5.579470 -0.482863 -2.465343
v 0.010100 -0.000548 -0.002950
vn 5.592713 -1.774772 -1.677533
v 0.010100 -0.002177 -0.002064
vn 2.346416 -2.160780 -4.243114
v 0.008000 -0.002724 -0.005346
vn 5.522902 0.598840 -2.681148
v 0.010100 0.000699 -0.002917
vn -2.346918 0.742993 -4.702477
v -0.008000 0.000939 -0.005926
vn 2.346412 0.745936 -4.702820
v 0.008000 0.000939 -0.005926
vn -2.363910 -3.341685 -3.353527
v -0.008000 -0.004243 -0.004243
vn 0.566342 5.945739 -1.291088
v 0.012677 0.026003 0.022400
vn 1.500100 -2.410273 4.407473
v 0.013236 0.019003 0.060807
vn 2.232893 -5.484961 2.089923
v 0.006854 0.012003 0.050530
vn 3.672885 -2.443379 2.765699
v 0.015236 0.019003 0.059354
vn 0.829461 4.631015 2.617262
v 0.012677 0.026003 0.059606
vn 0.767727 -5.463731 2.794383
v 0.003854 0.012003 0.052710
vn -5.549319 0.246942 -2.631105
v -0.010100 0.000337 -0.002981
vn -5.600612 -0.690702 -2.383900
v -0.010100 -0.000905 -0.002860
vn -5.601645 -2.286678 -0.951901
v -0.010100 -0.002731 -0.001241
vn -2.617260 4.631016 0.829464
v -0.014603 0.026003 0.057680
vn -2.346856 -4.702013 -0.746532
v -0.008000 -0.005926 -0.000939
vn -3.261118 1.644917 4.479794
v -0.014351 0.024003 0.060239
vn -0.829461 4.631015 2.617262
v -0.012677 0.026003 0.059606
vn 2.345829 -4.703968 -0.744682
v 0.008000 -0.005926 -0.000939
vn 1.596993 4.666404 2.209607
v 0.013513 0.026003 0.059180
vn 5.588627 -0.946204 -2.277609
v 0.010100 -0.001149 -0.002771
vn -2.355655 -2.164963 -4.224352
v -0.008000 -0.002724 -0.005346
vn 1.733207 1.618110 5.285115
v 0.013236 0.024003 0.060807
vn 0.204402 4.705160 2.712146
v 0.011750 0.026003 0.059753
vn -2.209607 4.666384 1.596989
v -0.014177 0.026003 0.058517
# 105 vertices, 0 vertices normals

f 24//24 1//1 7//7
f 26//26 7//7 1//1
f 27//27 9//9 16//16
f 28//28 16//16 9//9
f 28//28 9//9 17//17
f 30//30 17//17 9//9
f 32//32 5//5 11//11
f 33//33 13//13 7//7
f 33//33 7//7 19//19
f 35//35 19//19 7//7
f 35//35 7//7 15//15
f 36//36 17//17 10//10
f 36//36 3//3 17//17
f 36//36 33//33 19//19
f 36//36 10//10 33//33
f 36//36 19//19 34//34
f 37//37 8//8 4//4
f 42//42 24//24 7//7
f 42//42 14//14 24//24
f 45//45 4//4 25//25
f 45//45 14//14 43//43
f 46//46 25//25 4//4
f 47//47 37//37 12//12
f 47//47 8//8 37//37
f 48//48 15//15 7//7
f 48//48 7//7 26//26
f 49//49 5//5 9//9
f 49//49 11//11 5//5
f 50//50 2//2 20//20
f 50//50 27//27 16//16
f 50//50 16//16 2//2
f 51//51 2//2 16//16
f 51//51 16//16 28//28
f 52//52 17//17 3//3
f 53//53 17//17 29//29
f 53//53 51//51 28//28
f 53//53 28//28 17//17
f 57//57 33//33 10//10
f 57//57 13//13 33//33
f 57//57 17//17 55//55
f 57//57 10//10 17//17
f 58//58 32//32 11//11
f 58//58 31//31 32//32
f 59//59 34//34 19//19
f 59//59 19//19 35//35
f 60//60 36//36 34//34
f 62//62 21//21 12//12
f 62//62 12//12 22//22
f 63//63 37//37 4//4
f 63//63 4//4 20//20
f 63//63 22//22 12//12
f 63//63 12//12 37//37
f 64//64 41//41 7//7
f 64//64 7//7 13//13
f 64//64 13//13 41//41
f 65//65 23//23 42//42
f 66//66 42//42 7//7
f 68//68 43//43 14//14
f 68//68 14//14 42//42
f 68//68 42//42 67//67
f 69//69 45//45 25//25
f 69//69 25//25 44//44
f 69//69 24//24 14//14
f 69//69 14//14 45//45
f 71//71 45//45 43//43
f 71//71 4//4 45//45
f 71//71 43//43 68//68
f 71//71 50//50 20//20
f 71//71 20//20 4//4
f 72//72 25//25 46//46
f 72//72 46//46 4//4
f 72//72 4//4 8//8
f 73//73 25//25 72//72
f 73//73 72//72 8//8
f 73//73 8//8 47//47
f 74//74 47//47 12//12
f 74//74 12//12 21//21
f 75//75 49//49 9//9
f 75//75 9//9 27//27
f 76//76 51//51 6//6
f 77//77 29//29 17//17
f 77//77 17//17 52//52
f 78//78 6//6 51//51
f 78//78 51//51 53//53
f 79//79 30//30 9//9
f 79//79 18//18 30//30
f 80//80 54//54 9//9
f 80//80 9//9 5//5
f 80//80 5//5 32//32
f 80//80 32//32 54//54
f 81//81 54//54 32//32
f 82//82 55//55 17//17
f 82//82 57//57 55//55
f 82//82 17//17 30//30
f 83//83 41//41 13//13
f 83//83 56//56 66//66
f 84//84 57//57 82//82
f 84//84 82//82 30//30
f 84//84 30//30 18//18
f 84//84 18//18 56//56
f 84//84 56//56 83//83
f 84//84 83//83 13//13
f 84//84 13//13 57//57
f 85//85 31//31 58//58
f 85//85 58//58 23//23
f 85//85 23//23 65//65
f 86//86 3//3 36//36
f 86//86 36//36 60//60
f 88//88 40//40 20//20
f 89//89 20//20 2//2
f 89//89 40//40 88//88
f 89//89 88//88 20//20
f 89//89 61//61 40//40
f 89//89 76//76 39//39
f 89//89 39//39 61//61
f 89//89 2//2 51//51
f 89//89 51//51 76//76
f 91//91 63//63 20//20
f 91//91 20//20 40//40
f 91//91 87//87 22//22
f 91//91 22//22 63//63
f 91//91 40//40 61//61
f 91//91 61//61 87//87
f 92//92 66//66 7//7
f 92//92 7//7 41//41
f 92//92 83//83 66//66
f 92//92 41//41 83//83
f 93//93 65//65 42//42
f 93//93 42//42 66//66
f 93//93 66//66 56//56
f 94//94 67//67 42//42
f 94//94 42//42 23//23
f 94//94 23//23 58//58
f 94//94 58//58 67//67
f 95//95 69//69 44//44
f 95//95 1//1 24//24
f 95//95 24//24 69//69
f 96//96 71//71 68//68
f 96//96 68//68 67//67
f 96//96 67//67 58//58
f 97//97 74//74 70//70
f 97//97 70//70 44//44
f 97//97 44//44 25//25
f 97//97 25//25 73//73
f 97//97 73//73 47//47
f 97//97 47//47 74//74
f 98//98 74//74 21//21
f 98//98 21//21 38//38
f 98//98 70//70 74//74
f 99//99 11//11 49//49
f 99//99 49//49 75//75
f 99//99 75//75 27//27
f 99//99 27//27 50//50
f 99//99 96//96 58//58
f 99//99 58//58 11//11
f 99//99 50//50 71//71
f 99//99 71//71 96//96
f 100//100 76//76 6//6
f 100//100 39//39 76//76
f 101//101 79//79 9//9
f 101//101 9//9 54//54
f 101//101 54//54 81//81
f 101//101 81//81 18//18
f 101//101 18//18 79//79
f 102//102 85//85 65//65
f 102//102 93//93 56//56
f 102//102 65//65 93//93
f 102//102 31//31 85//85
f 102//102 56//56 18//18
f 102//102 18//18 81//81
f 102//102 81//81 32//32
f 102//102 32//32 31//31
f 103//103 87//87 61//61
f 103//103 61//61 39//39
f 103//103 90//90 62//62
f 103//103 62//62 22//22
f 103//103 22//22 87//87
f 103//103 100//100 90//90
f 103//103 39//39 100//100
f 104//104 62//62 90//90
f 104//104 38//38 21//21
f 104//104 21//21 62//62
f 105//105 95//95 44//44
f 105//105 44//44 70//70
f 105//105 1//1 95//95
f 105//105 70//70 98//98
f 105//105 26//26 1//1
f 105//105 98//98 38//38
f 105//105 38//38 104//104
f 105//105 48//48 26//26
f 105//105 15//15 48//48
f 105//105 35//35 15//15
f 105//105 59//59 35//35
f 105//105 34//34 59//59
f 105//105 60//60 34//34
f 105//105 86//86 60//60
f 105//105 3//3 86//86
f 105//105 52//52 3//3
f 105//105 77//77 52//52
f 105//105 29//29 77//77
f 105//105 53//53 29//29
f 105//105 78//78 53//53
f 105//105 6//6 78//78
f 105//105 100//100 6//6
f 105//105 104//104 90//90
f 105//105 90//90 100//100
# 206 faces, 0 coords texture

# End of File
